<svg width="252" height="252" viewBox="0 0 252 252" fill="none" xmlns="http://www.w3.org/2000/svg">
<circle cx="126" cy="126" r="125.5" fill="white" stroke="#E2E2E2"/>
<path d="M114.333 94.3333C116.544 94.3333 118.663 93.4554 120.226 91.8926C121.789 90.3298 122.667 88.2101 122.667 86C122.667 81.4 121 79.3333 119.333 76C115.76 68.8567 118.587 62.4867 126 56C127.667 64.3333 132.667 72.3333 139.333 77.6667C146 83 149.333 89.3333 149.333 96C149.333 99.0642 148.73 102.098 147.557 104.929C146.385 107.76 144.666 110.332 142.499 112.499C140.333 114.666 137.76 116.385 134.929 117.557C132.098 118.73 129.064 119.333 126 119.333C122.936 119.333 119.902 118.73 117.071 117.557C114.24 116.385 111.668 114.666 109.501 112.499C107.334 110.332 105.616 107.76 104.443 104.929C103.27 102.098 102.667 99.0642 102.667 96C102.667 92.1567 104.11 88.3533 106 86C106 88.2101 106.878 90.3298 108.441 91.8926C110.004 93.4554 112.123 94.3333 114.333 94.3333V94.3333Z" stroke="#0E0E2C" stroke-width="3" stroke-linecap="round" stroke-linejoin="round"/>
<path d="M121.6 109.81C122.433 109.81 123.233 109.467 123.822 108.855C124.412 108.243 124.743 107.413 124.743 106.547C124.743 104.746 124.114 103.937 123.486 102.631C122.138 99.8342 123.204 97.3398 126 94.7998C126.629 98.063 128.514 101.196 131.029 103.284C133.543 105.372 134.8 107.852 134.8 110.463C134.8 111.663 134.572 112.851 134.13 113.959C133.688 115.068 133.04 116.075 132.222 116.924C131.405 117.772 130.435 118.445 129.368 118.904C128.3 119.363 127.156 119.6 126 119.6C124.844 119.6 123.7 119.363 122.632 118.904C121.565 118.445 120.595 117.772 119.777 116.924C118.96 116.075 118.312 115.068 117.87 113.959C117.428 112.851 117.2 111.663 117.2 110.463C117.2 108.958 117.744 107.469 118.457 106.547C118.457 107.413 118.788 108.243 119.378 108.855C119.967 109.467 120.766 109.81 121.6 109.81V109.81Z" stroke="#0E0E2C" stroke-width="3" stroke-linecap="round" stroke-linejoin="round"/>
<path d="M125.636 202.08C121.46 202.08 117.788 201.24 114.62 199.56C111.452 197.856 108.98 195.468 107.204 192.396C105.428 189.324 104.54 185.712 104.54 181.56V149.232L114.476 149.16V181.488C114.476 183.192 114.764 184.74 115.34 186.132C115.916 187.524 116.708 188.724 117.716 189.732C118.748 190.74 119.936 191.52 121.28 192.072C122.648 192.6 124.1 192.864 125.636 192.864C127.22 192.864 128.684 192.588 130.028 192.036C131.396 191.484 132.584 190.704 133.592 189.696C134.6 188.688 135.38 187.488 135.932 186.096C136.508 184.704 136.796 183.168 136.796 181.488V149.16H146.732V181.56C146.732 185.712 145.844 189.324 144.068 192.396C142.292 195.468 139.82 197.856 136.652 199.56C133.484 201.24 129.812 202.08 125.636 202.08Z" fill="#0E0E2C"/>
</svg>
