<svg width="288" height="756" viewBox="0 0 288 756" fill="none" xmlns="http://www.w3.org/2000/svg">
<mask id="mask0_3261_4726" style="mask-type:alpha" maskUnits="userSpaceOnUse" x="0" y="0" width="288" height="810">
<rect x="0.5" y="0.499939" width="287" height="809" fill="#F9FAFB" stroke="#E2E2E2"/>
</mask>
<g mask="url(#mask0_3261_4726)">
<path d="M-11.3976 380.455V112.103H101.906C104.515 112.103 107.994 112.227 112.342 112.476C116.815 112.6 120.79 112.973 124.269 113.594C140.296 116.078 153.403 121.359 163.59 129.434C173.902 137.509 181.48 147.697 186.325 159.996C191.171 172.171 193.593 185.775 193.593 200.808C193.593 215.841 191.109 229.507 186.139 241.806C181.294 253.981 173.715 264.107 163.404 272.182C153.216 280.257 140.171 285.538 124.269 288.022C120.79 288.519 116.815 288.892 112.342 289.14C107.87 289.389 104.391 289.513 101.906 289.513H39.2911V380.455H-11.3976ZM39.2911 242.179H99.6702C102.279 242.179 105.137 242.055 108.243 241.806C111.348 241.558 114.206 241.061 116.815 240.315C123.648 238.452 128.928 235.346 132.655 230.998C136.382 226.525 138.929 221.618 140.296 216.276C141.787 210.809 142.532 205.653 142.532 200.808C142.532 195.963 141.787 190.869 140.296 185.527C138.929 180.06 136.382 175.153 132.655 170.805C128.928 166.332 123.648 163.164 116.815 161.301C114.206 160.555 111.348 160.058 108.243 159.81C105.137 159.561 102.279 159.437 99.6702 159.437H39.2911V242.179Z" fill="#E6ECF9"/>
</g>
</svg>
