<svg width="252" height="252" viewBox="0 0 252 252" fill="none" xmlns="http://www.w3.org/2000/svg">
<circle cx="126" cy="126" r="125.5" fill="white" stroke="#E2E2E2"/>
<path d="M110.307 96.6603C113.604 99.9415 115.2 104.563 114.574 109.021C114.55 109.193 114.564 109.368 114.615 109.535C114.666 109.701 114.754 109.854 114.871 109.982C114.99 110.111 115.136 110.214 115.299 110.282C115.461 110.349 115.636 110.381 115.812 110.375H115.817L125.302 110.371C125.469 110.459 125.655 110.508 125.844 110.514C126.035 110.517 126.223 110.475 126.395 110.393L135.938 110.359C136.116 110.359 136.292 110.32 136.454 110.246C136.615 110.173 136.76 110.065 136.877 109.93C136.993 109.796 137.08 109.638 137.131 109.468C137.182 109.297 137.195 109.118 137.171 108.941C136.546 104.412 138.05 100.194 141.523 96.7414C141.527 96.7375 141.531 96.7337 141.535 96.7296C145.353 92.8295 147.456 87.8107 147.456 82.5976C147.456 77.2409 145.304 72.1692 141.396 68.3164C137.223 64.2026 131.627 61.9826 125.639 62.0709C120.129 62.1621 114.856 64.3289 110.874 68.1384C106.827 71.9837 104.548 76.9956 104.46 82.2493C104.417 84.921 104.912 87.574 105.917 90.0499C106.922 92.5259 108.415 94.774 110.307 96.6603ZM106.959 82.2936C107.038 77.7143 109.039 73.331 112.596 69.9515C116.123 66.5752 120.794 64.6537 125.676 64.5711C125.776 64.5696 125.876 64.5689 125.975 64.5689C131.174 64.5689 136.017 66.5256 139.641 70.0973C143.068 73.4762 144.956 77.9156 144.956 82.5973C144.956 87.1501 143.109 91.5453 139.753 94.9746C136.123 98.5865 134.308 103.119 134.558 107.868L127.094 107.899V85.4926C127.242 85.6759 127.403 85.8989 127.592 86.1692C128.301 87.1861 129.273 88.5787 131.234 88.5787C133.195 88.5787 134.167 87.1861 134.876 86.1692C135.541 85.2161 135.871 84.8287 136.469 84.8287C136.8 84.8287 137.118 84.697 137.353 84.4626C137.587 84.2282 137.719 83.9102 137.719 83.5787C137.719 83.2472 137.587 82.9292 137.353 82.6948C137.118 82.4604 136.8 82.3287 136.469 82.3287C134.508 82.3287 133.536 83.7214 132.826 84.7382C132.161 85.6914 131.831 86.0787 131.234 86.0787C130.637 86.0787 130.306 85.6907 129.642 84.7382C128.932 83.7207 127.96 82.3281 126 82.3281C124.04 82.3281 123.068 83.7209 122.358 84.7378C121.693 85.6909 121.363 86.0781 120.766 86.0781C120.169 86.0781 119.839 85.6901 119.174 84.7376C118.464 83.7207 117.492 82.3281 115.531 82.3281C115.2 82.3281 114.882 82.4598 114.647 82.6942C114.413 82.9286 114.281 83.2466 114.281 83.5781C114.281 83.9096 114.413 84.2275 114.647 84.462C114.882 84.6964 115.2 84.8281 115.531 84.8281C116.128 84.8281 116.459 85.2159 117.123 86.1684C117.833 87.1853 118.805 88.5781 120.765 88.5781C122.726 88.5781 123.698 87.1854 124.407 86.1686C124.473 86.0748 124.534 85.9881 124.594 85.9051V107.909L117.187 107.939C117.431 103.165 115.574 98.3739 112.07 94.887C110.416 93.2388 109.111 91.2742 108.233 89.1105C107.355 86.9468 106.922 84.6283 106.959 82.2936Z" fill="#0E0E2C"/>
<path d="M125.531 57.6428C125.863 57.6428 126.181 57.5111 126.415 57.2767C126.65 57.0423 126.781 56.7243 126.781 56.3928V48.4219C126.781 48.0904 126.65 47.7724 126.415 47.538C126.181 47.3036 125.863 47.1719 125.531 47.1719C125.2 47.1719 124.882 47.3036 124.647 47.538C124.413 47.7724 124.281 48.0904 124.281 48.4219V56.3928C124.281 56.7243 124.413 57.0423 124.647 57.2767C124.882 57.5111 125.2 57.6428 125.531 57.6428ZM146.12 66.9642C146.428 66.9645 146.726 66.8506 146.955 66.6445L153.119 61.1133C153.366 60.8919 153.515 60.5815 153.532 60.2504C153.55 59.9194 153.436 59.5947 153.215 59.348C152.993 59.1012 152.683 58.9525 152.352 58.9345C152.021 58.9166 151.696 59.0309 151.449 59.2523L145.285 64.7836C145.097 64.9526 144.964 65.1747 144.905 65.4207C144.845 65.6667 144.862 65.9249 144.952 66.1612C145.043 66.3975 145.203 66.6008 145.412 66.7442C145.62 66.8875 145.867 66.9642 146.12 66.9641V66.9642ZM104.756 65.8822C104.996 66.1054 105.314 66.2254 105.641 66.2164C105.969 66.2075 106.28 66.0702 106.507 65.8342C106.735 65.5982 106.86 65.2824 106.857 64.9547C106.854 64.627 106.722 64.3137 106.49 64.0822L100.583 58.3888C100.466 58.2715 100.326 58.1788 100.172 58.1161C100.019 58.0534 99.854 58.0219 99.688 58.0235C99.522 58.0251 99.358 58.0598 99.2055 58.1255C99.0531 58.1912 98.9152 58.2866 98.8001 58.4061C98.6849 58.5257 98.5946 58.667 98.5347 58.8218C98.4747 58.9765 98.4461 59.1417 98.4507 59.3077C98.4552 59.4736 98.4928 59.637 98.5611 59.7883C98.6295 59.9396 98.7273 60.0757 98.8489 60.1888L104.756 65.8822Z" fill="#0E0E2C"/>
<path d="M136.312 114.281C136.312 113.95 136.181 113.632 135.946 113.397C135.712 113.163 135.394 113.031 135.062 113.031H116.938C116.606 113.031 116.288 113.163 116.054 113.397C115.819 113.632 115.688 113.95 115.688 114.281V123.656C115.688 123.988 115.819 124.306 116.054 124.54C116.288 124.775 116.606 124.906 116.938 124.906H135.062C135.394 124.906 135.712 124.775 135.946 124.54C136.181 124.306 136.312 123.988 136.312 123.656V114.281ZM133.812 122.406H118.188V115.531H133.812V122.406Z" fill="#0E0E2C"/>
<path d="M106.54 201V149.16H128.428C128.932 149.16 129.604 149.184 130.444 149.232C131.308 149.256 132.076 149.328 132.748 149.448C135.844 149.928 138.376 150.948 140.344 152.508C142.336 154.068 143.8 156.036 144.736 158.412C145.672 160.764 146.14 163.392 146.14 166.296C146.14 170.64 145.06 174.36 142.9 177.456C140.74 180.528 137.356 182.424 132.748 183.144L128.428 183.432H116.332V201H106.54ZM135.772 201L125.548 179.904L135.628 177.96L146.86 201H135.772ZM116.332 174.288H127.996C128.5 174.288 129.052 174.264 129.652 174.216C130.252 174.168 130.804 174.072 131.308 173.928C132.628 173.568 133.648 172.968 134.368 172.128C135.088 171.264 135.58 170.316 135.844 169.284C136.132 168.228 136.276 167.232 136.276 166.296C136.276 165.36 136.132 164.376 135.844 163.344C135.58 162.288 135.088 161.34 134.368 160.5C133.648 159.636 132.628 159.024 131.308 158.664C130.804 158.52 130.252 158.424 129.652 158.376C129.052 158.328 128.5 158.304 127.996 158.304H116.332V174.288Z" fill="#0E0E2C"/>
</svg>
