<svg width="288" height="756" viewBox="0 0 288 756" fill="none" xmlns="http://www.w3.org/2000/svg">
<defs>
    <linearGradient id="gradient" x1="0%" y1="0%" x2="100%" y2="0%">
        <stop offset="0%" stop-color="#7d17ff"/>
        <stop offset="100%" stop-color="#0085ff"/>
    </linearGradient>
</defs>
<mask id="mask0_3261_4724" style="mask-type:alpha" maskUnits="userSpaceOnUse" x="0" y="0" width="288" height="810">
<rect x="0.5" y="0.499939" width="287" height="809" fill="#F9FAFB" stroke="#E2E2E2"/>
</mask>
<g mask="url(#mask0_3261_4724)">
<path d="M51.1741 446.591C31.2962 446.591 13.3439 443.112 -2.68262 436.155C-18.5849 429.073 -31.6919 419.01 -42.0036 405.965C-52.191 392.796 -58.6513 377.142 -61.3845 359.004L-8.45964 351.177C-4.73253 366.582 2.97016 378.447 14.6484 386.771C26.3267 395.094 39.62 399.256 54.5285 399.256C62.8523 399.256 70.9277 397.952 78.7546 395.343C86.5816 392.734 92.9798 388.883 97.9492 383.789C103.043 378.695 105.59 372.421 105.59 364.967C105.59 362.234 105.155 359.625 104.285 357.14C103.54 354.531 102.235 352.108 100.372 349.872C98.5083 347.636 95.8372 345.524 92.3586 343.536C89.0042 341.548 84.718 339.747 79.5001 338.132L9.80318 317.633C4.58523 316.142 -1.50237 314.03 -8.45964 311.297C-15.2927 308.563 -21.9393 304.65 -28.3997 299.556C-34.86 294.463 -40.2643 287.754 -44.6126 279.43C-48.8366 270.982 -50.9486 260.36 -50.9486 247.563C-50.9486 229.549 -46.414 214.578 -37.3447 202.652C-28.2754 190.725 -16.1623 181.842 -1.00542 176.003C14.1515 170.164 30.9235 167.306 49.3105 167.43C67.8218 167.679 84.3453 170.847 98.881 176.934C113.417 183.022 125.592 191.905 135.407 203.583C145.221 215.137 152.303 229.3 156.651 246.072L101.863 255.39C99.8749 246.693 96.2099 239.363 90.8677 233.4C85.5256 227.437 79.1274 222.902 71.6731 219.796C64.3432 216.69 56.6405 215.013 48.5651 214.765C40.6139 214.516 33.0976 215.634 26.0161 218.119C19.0588 220.479 13.3439 223.958 8.87141 228.555C4.52312 233.152 2.34897 238.618 2.34897 244.954C2.34897 250.793 4.15041 255.576 7.75328 259.304C11.3561 262.906 15.8908 265.826 21.3572 268.062C26.8236 270.298 32.4143 272.162 38.1292 273.653L84.718 286.325C91.6753 288.189 99.378 290.673 107.826 293.779C116.274 296.761 124.35 300.985 132.052 306.451C139.879 311.794 146.277 318.875 151.247 327.696C156.341 336.517 158.887 347.698 158.887 361.24C158.887 375.651 155.844 388.261 149.756 399.07C143.793 409.754 135.717 418.637 125.53 425.719C115.342 432.676 103.788 437.894 90.8677 441.373C78.0713 444.851 64.8401 446.591 51.1741 446.591Z" fill="url(#gradient)"/>
</g>
</svg>
