<svg width="288" height="756" viewBox="0 0 288 756" fill="none" xmlns="http://www.w3.org/2000/svg">
<mask id="mask0_3261_4725" style="mask-type:alpha" maskUnits="userSpaceOnUse" x="0" y="-1" width="288" height="811">
<rect x="0.5" y="0.499878" width="287" height="809" fill="#F9FAFB" stroke="#E2E2E2"/>
</mask>
<g mask="url(#mask0_3261_4725)">
<path d="M109.957 655.43C88.3393 655.43 69.3311 651.081 52.9318 642.385C36.5326 633.564 23.7362 621.202 14.5426 605.3C5.3491 589.398 0.75234 570.7 0.75234 549.207V381.86L52.1864 381.487V548.834C52.1864 557.655 53.6772 565.669 56.6589 572.874C59.6406 580.08 63.7404 586.292 68.9584 591.51C74.3006 596.728 80.4503 600.765 87.4076 603.623C94.4891 606.356 102.005 607.723 109.957 607.723C118.156 607.723 125.735 606.294 132.692 603.437C139.773 600.579 145.923 596.541 151.141 591.323C156.359 586.105 160.397 579.894 163.254 572.688C166.236 565.482 167.727 557.531 167.727 548.834V381.487H219.161V549.207C219.161 570.7 214.564 589.398 205.37 605.3C196.177 621.202 183.381 633.564 166.981 642.385C150.582 651.081 131.574 655.43 109.957 655.43Z" fill="#E6ECF9"/>
</g>
</svg>
