<svg width="288" height="756" viewBox="0 0 288 756" fill="none" xmlns="http://www.w3.org/2000/svg">
<mask id="mask0_3261_4728" style="mask-type:alpha" maskUnits="userSpaceOnUse" x="0" y="0" width="288" height="810">
<rect x="0.5" y="0.499939" width="287" height="809" fill="#F9FAFB" stroke="#E2E2E2"/>
</mask>
<g mask="url(#mask0_3261_4728)">
<path d="M-18.7189 478.913V210.561H94.5852C97.1942 210.561 100.673 210.685 105.021 210.934C109.494 211.058 113.469 211.431 116.948 212.052C132.974 214.537 146.081 219.817 156.269 227.892C166.58 235.968 174.159 246.155 179.004 258.454C183.849 270.63 186.272 284.234 186.272 299.266C186.272 321.753 180.681 341.01 169.5 357.036C158.319 372.939 140.801 382.753 116.948 386.48L94.5852 387.971H31.9698V478.913H-18.7189ZM132.602 478.913L79.6768 369.709L131.856 359.645L189.999 478.913H132.602ZM31.9698 340.637H92.3489C94.9579 340.637 97.8153 340.513 100.921 340.264C104.027 340.016 106.885 339.519 109.494 338.774C116.327 336.91 121.607 333.804 125.334 329.456C129.061 324.983 131.608 320.076 132.974 314.734C134.465 309.267 135.211 304.111 135.211 299.266C135.211 294.421 134.465 289.327 132.974 283.985C131.608 278.519 129.061 273.611 125.334 269.263C121.607 264.79 116.327 261.622 109.494 259.759C106.885 259.013 104.027 258.517 100.921 258.268C97.8153 258.02 94.9579 257.895 92.3489 257.895H31.9698V340.637Z" fill="#E6ECF9"/>
</g>
</svg>
