<svg width="252" height="252" viewBox="0 0 252 252" fill="none" xmlns="http://www.w3.org/2000/svg">
<circle cx="126" cy="126" r="125.5" fill="white" stroke="#E2E2E2"/>
<path d="M154.067 61.2669C152.394 59.5888 150.407 58.2573 148.219 57.3488C146.032 56.4403 143.686 55.9727 141.317 55.9727C138.948 55.9727 136.602 56.4403 134.414 57.3488C132.226 58.2573 130.239 59.5888 128.567 61.2669L126 63.8669L123.433 61.2669C121.761 59.5888 119.774 58.2573 117.586 57.3488C115.398 56.4403 113.052 55.9727 110.683 55.9727C108.314 55.9727 105.969 56.4403 103.781 57.3488C101.593 58.2573 99.6056 59.5888 97.9334 61.2669C90.8667 68.3335 90.4334 80.2669 99.3334 89.3335L126 116L152.667 89.3335C161.567 80.2669 161.133 68.3335 154.067 61.2669Z" stroke="#0E0E2C" stroke-width="4" stroke-linecap="round" stroke-linejoin="round"/>
<path d="M126 63.8662L115.567 74.3329C114.248 75.6627 113.508 77.4598 113.508 79.3329C113.508 81.2059 114.248 83.0031 115.567 84.3329V84.3329C116.897 85.6519 118.694 86.392 120.567 86.392C122.44 86.392 124.237 85.6519 125.567 84.3329L133.1 76.9662C134.972 75.1138 137.5 74.0748 140.133 74.0748C142.767 74.0748 145.295 75.1138 147.167 76.9662L155.167 84.9662" stroke="#0E0E2C" stroke-width="4" stroke-linecap="round" stroke-linejoin="round"/>
<path d="M146 95.9997L139.333 89.333" stroke="#0E0E2C" stroke-width="4" stroke-linecap="round" stroke-linejoin="round"/>
<path d="M136 106.001L129.333 99.334" stroke="#0E0E2C" stroke-width="4" stroke-linecap="round" stroke-linejoin="round"/>
<path d="M126.124 202.08C122.284 202.08 118.816 201.408 115.72 200.064C112.648 198.696 110.116 196.752 108.124 194.232C106.156 191.688 104.908 188.664 104.38 185.16L114.604 183.648C115.324 186.624 116.812 188.916 119.068 190.524C121.324 192.132 123.892 192.936 126.772 192.936C128.38 192.936 129.94 192.684 131.452 192.18C132.964 191.676 134.2 190.932 135.16 189.948C136.144 188.964 136.636 187.752 136.636 186.312C136.636 185.784 136.552 185.28 136.384 184.8C136.24 184.296 135.988 183.828 135.628 183.396C135.268 182.964 134.752 182.556 134.08 182.172C133.432 181.788 132.604 181.44 131.596 181.128L118.132 177.168C117.124 176.88 115.948 176.472 114.604 175.944C113.284 175.416 112 174.66 110.752 173.676C109.504 172.692 108.46 171.396 107.62 169.788C106.804 168.156 106.396 166.104 106.396 163.632C106.396 160.152 107.272 157.26 109.024 154.956C110.776 152.652 113.116 150.936 116.044 149.808C118.972 148.68 122.212 148.128 125.764 148.152C129.34 148.2 132.532 148.812 135.34 149.988C138.148 151.164 140.5 152.88 142.396 155.136C144.292 157.368 145.66 160.104 146.5 163.344L135.916 165.144C135.532 163.464 134.824 162.048 133.792 160.896C132.76 159.744 131.524 158.868 130.084 158.268C128.668 157.668 127.18 157.344 125.62 157.296C124.084 157.248 122.632 157.464 121.264 157.944C119.92 158.4 118.816 159.072 117.952 159.96C117.112 160.848 116.692 161.904 116.692 163.128C116.692 164.256 117.04 165.18 117.736 165.9C118.432 166.596 119.308 167.16 120.364 167.592C121.42 168.024 122.5 168.384 123.604 168.672L132.604 171.12C133.948 171.48 135.436 171.96 137.068 172.56C138.7 173.136 140.26 173.952 141.748 175.008C143.26 176.04 144.496 177.408 145.456 179.112C146.44 180.816 146.932 182.976 146.932 185.592C146.932 188.376 146.344 190.812 145.168 192.9C144.016 194.964 142.456 196.68 140.488 198.048C138.52 199.392 136.288 200.4 133.792 201.072C131.32 201.744 128.764 202.08 126.124 202.08Z" fill="#0E0E2C"/>
</svg>
