<svg width="288" height="756" viewBox="0 0 288 756" fill="none" xmlns="http://www.w3.org/2000/svg">
<defs>
    <linearGradient id="gradient" x1="0%" y1="0%" x2="100%" y2="0%">
        <stop offset="0%" stop-color="#7d17ff"/>
        <stop offset="100%" stop-color="#0085ff"/>
    </linearGradient>
</defs>
<mask id="mask0_3261_4728" style="mask-type:alpha" maskUnits="userSpaceOnUse" x="0" y="0" width="288" height="810">
<rect x="0.5" y="0.499939" width="287" height="809" fill="#F9FAFB" stroke="#E2E2E2"/>
</mask>
<g mask="url(#mask0_3261_4728)">
<path d="M101.517 478.913V210.561H214.821C217.43 210.561 220.908 210.685 225.256 210.934C229.729 211.058 233.705 211.431 237.183 212.052C253.21 214.537 266.317 219.817 276.504 227.892C286.816 235.968 294.394 246.155 299.239 258.454C304.085 270.63 306.507 284.234 306.507 299.266C306.507 321.753 300.917 341.01 289.735 357.036C278.554 372.939 261.037 382.753 237.183 386.481L214.821 387.971H152.205V478.913H101.517ZM252.837 478.913L199.912 369.709L252.092 359.645L310.234 478.913H252.837ZM152.205 340.637H212.584C215.193 340.637 218.051 340.513 221.157 340.264C224.263 340.016 227.12 339.519 229.729 338.774C236.562 336.91 241.842 333.804 245.569 329.456C249.296 324.983 251.843 320.076 253.21 314.734C254.701 309.267 255.446 304.111 255.446 299.266C255.446 294.421 254.701 289.327 253.21 283.985C251.843 278.519 249.296 273.611 245.569 269.263C241.842 264.791 236.562 261.622 229.729 259.759C227.12 259.014 224.263 258.517 221.157 258.268C218.051 258.02 215.193 257.895 212.584 257.895H152.205V340.637Z" fill="url(#gradient)"/>
</g>
</svg>
