<svg width="252" height="252" viewBox="0 0 252 252" fill="none" xmlns="http://www.w3.org/2000/svg">
<circle cx="126" cy="126" r="125.5" fill="white" stroke="#E2E2E2"/>
<g clip-path="url(#clip0_2002_8472)">
<path d="M161.413 109.528C164.85 102.993 166.406 95.6321 165.908 88.265C165.41 80.898 162.878 73.8136 158.592 67.8004C158.564 67.7601 158.533 67.7217 158.5 67.6854L158.475 67.6554C157.226 65.8973 155.829 64.2489 154.3 62.7279C146.799 55.2268 136.625 51.0127 126.016 51.0127C115.408 51.0127 105.234 55.2268 97.7325 62.7279C96.6434 63.8118 95.6247 64.9641 94.6825 66.1779C94.5498 66.2838 94.4401 66.4157 94.36 66.5654C94.36 66.5829 94.36 66.6004 94.345 66.6179C89.6686 72.6584 86.8285 79.9167 86.1636 87.5269C85.4987 95.1371 87.037 102.778 90.595 109.538C89.1532 110.821 87.9986 112.394 87.2068 114.153C86.415 115.913 86.0037 117.821 86 119.75V124.75C86 125.082 86.1317 125.4 86.3661 125.634C86.6005 125.869 86.9185 126 87.25 126H164.75C165.082 126 165.399 125.869 165.634 125.634C165.868 125.4 166 125.082 166 124.75V119.75C165.999 117.819 165.589 115.911 164.799 114.149C164.008 112.387 162.854 110.812 161.413 109.528ZM159.348 107.995C157.571 106.914 155.571 106.253 153.5 106.063C153.5 106.04 153.5 106.02 153.5 106V102.25C153.494 102.207 153.486 102.165 153.475 102.123C155.216 101.189 156.624 99.738 157.504 97.9693C158.384 96.2007 158.693 94.2022 158.387 92.2504H163.46C163.268 97.7395 161.864 103.118 159.348 108V107.995ZM148.5 101C146.511 101 144.603 100.21 143.197 98.8037C141.79 97.3972 141 95.4895 141 93.5004C141.16 93.5006 141.319 93.4701 141.467 93.4104L146.077 91.5504C146.848 91.238 147.701 91.1931 148.5 91.4229L155.652 93.4554C155.764 93.4795 155.879 93.488 155.993 93.4804V93.5004C155.993 95.4882 155.203 97.3947 153.798 98.8011C152.394 100.207 150.488 100.998 148.5 101ZM151 103.145V106C151 106.663 150.737 107.299 150.268 107.768C149.799 108.237 149.163 108.5 148.5 108.5C147.837 108.5 147.201 108.237 146.732 107.768C146.263 107.299 146 106.663 146 106V103.145C147.633 103.619 149.367 103.619 151 103.145ZM143.5 106.115C142.589 106.198 141.689 106.372 140.812 106.635C139.665 105.065 138.197 103.756 136.505 102.795C134.813 101.834 132.937 101.244 131 101.063C131 101.04 131 101.02 131 101V97.2504C130.994 97.2075 130.986 97.1649 130.975 97.1229C132.901 96.0184 134.406 94.3042 135.25 92.2504H138.62C138.553 92.6641 138.513 93.0816 138.5 93.5004C138.506 95.2525 138.973 96.9722 139.855 98.486C140.738 99.9999 142.003 101.254 143.525 102.123C143.514 102.165 143.506 102.207 143.5 102.25V106C143.5 106.04 143.5 106.075 143.5 106.113V106.115ZM126 96.0004C124.011 96.0004 122.103 95.2102 120.697 93.8037C119.29 92.3972 118.5 90.4895 118.5 88.5004C118.66 88.5006 118.819 88.4701 118.967 88.4104L123.577 86.5504C124.348 86.2382 125.201 86.1933 126 86.4229L133.153 88.4554C133.264 88.4794 133.379 88.4879 133.493 88.4804V88.5004C133.493 90.4882 132.703 92.3947 131.298 93.8011C129.894 95.2074 127.988 95.9984 126 96.0004ZM128.5 98.1454V101C128.5 101.663 128.237 102.299 127.768 102.768C127.299 103.237 126.663 103.5 126 103.5C125.337 103.5 124.701 103.237 124.232 102.768C123.763 102.299 123.5 101.663 123.5 101V98.1454C125.133 98.6189 126.867 98.6189 128.5 98.1454ZM121 101.063C119.06 101.241 117.18 101.831 115.485 102.791C113.791 103.752 112.32 105.063 111.17 106.635C110.3 106.372 109.405 106.197 108.5 106.113C108.5 106.073 108.5 106.038 108.5 106V102.25C108.494 102.207 108.486 102.165 108.475 102.123C109.997 101.254 111.262 99.9999 112.145 98.486C113.027 96.9722 113.494 95.2525 113.5 93.5004C113.484 93.0814 113.442 92.6639 113.373 92.2504H116.75C117.596 94.3053 119.103 96.0197 121.032 97.1229C121.019 97.1648 121.008 97.2073 121 97.2504V101C121 101.023 121 101.043 121 101.063ZM103.5 101C101.682 100.995 99.9282 100.328 98.5661 99.1239C97.2039 97.9199 96.3264 96.2614 96.0975 94.4579C99.0668 94.3845 101.998 93.7712 104.747 92.6479C106.71 93.501 108.795 94.0417 110.925 94.2504C110.743 96.0952 109.883 97.8069 108.511 99.0539C107.139 100.301 105.354 100.994 103.5 101ZM106 103.145V106C106 106.663 105.737 107.299 105.268 107.768C104.799 108.237 104.163 108.5 103.5 108.5C102.837 108.5 102.201 108.237 101.732 107.768C101.263 107.299 101 106.663 101 106V103.145C101.815 103.37 102.655 103.489 103.5 103.5C104.345 103.489 105.185 103.37 106 103.145ZM116.127 89.7504H112.75C111.774 87.3584 109.913 85.435 107.555 84.3804C107.892 80.3693 108.616 76.4001 109.715 72.5279C114.69 73.29 119.71 73.7259 124.743 73.8329V78.6254C122.334 78.9264 120.117 80.0952 118.508 81.913C116.898 83.7307 116.007 86.0727 116 88.5004C116.016 88.9194 116.058 89.3369 116.127 89.7504ZM110.75 91.6954C108.888 91.5156 107.074 90.9953 105.4 90.1604C105.203 90.0397 104.977 89.9758 104.746 89.9758C104.515 89.9758 104.289 90.0397 104.093 90.1604C101.603 91.3136 98.8985 91.9303 96.155 91.9704C96.4999 90.309 97.399 88.8141 98.705 87.7308C100.011 86.6475 101.646 86.0401 103.343 86.0081C105.039 85.9761 106.696 86.5215 108.042 87.5549C109.388 88.5882 110.343 90.0482 110.75 91.6954ZM95.75 87.2504C95.2587 86.7175 94.9335 86.0528 94.8143 85.3378C94.6951 84.6229 94.7871 83.8886 95.079 83.2252C95.371 82.5617 95.8501 81.9978 96.4578 81.6027C97.0654 81.2075 97.7752 80.9982 98.5 81.0004C99.2962 81.0038 100.07 81.2629 100.708 81.7396C101.346 82.2163 101.814 82.8852 102.042 83.6479C99.5661 84.0134 97.3189 85.2999 95.75 87.2504ZM141.562 90.6754C142.125 89.2834 143.094 88.0931 144.343 87.2594C145.591 86.4256 147.062 85.9871 148.563 86.0009C150.065 86.0146 151.527 86.48 152.76 87.3365C153.994 88.193 154.94 89.4009 155.478 90.8029L149.19 89.0204C147.854 88.6414 146.431 88.7161 145.142 89.2329L141.562 90.6754ZM163.452 89.7504H157.75C157.122 88.2069 156.119 86.8444 154.832 85.7863C153.544 84.7282 152.013 84.0078 150.378 83.6904C150.19 83.5708 149.973 83.505 149.75 83.5004H149.1C149.032 83.5079 148.965 83.5213 148.9 83.5404C148.765 83.5404 148.638 83.5004 148.5 83.5004C147.956 83.5107 147.413 83.5659 146.877 83.6654C146.531 79.9713 145.869 76.3138 144.897 72.7329C146.045 72.5679 147.195 72.4029 148.283 72.2029C151.258 71.6922 154.191 70.9593 157.058 70.0104C161.018 75.8507 163.236 82.697 163.452 89.7504ZM152.515 64.4854C153.58 65.5595 154.577 66.6992 155.5 67.8979C152.993 68.6806 150.436 69.297 147.847 69.7429C146.678 69.9579 145.443 70.1379 144.2 70.3129C142.558 64.3014 139.301 58.8543 134.783 54.5629C141.499 56.1619 147.639 59.5974 152.515 64.4854ZM127.25 53.5904C133.053 54.3929 138.43 60.7379 141.67 70.6254C137.145 71.1384 132.594 71.3947 128.04 71.3929C127.775 71.3929 127.515 71.3804 127.25 71.3779V53.5904ZM127.25 73.8804C127.515 73.8804 127.775 73.8954 128.04 73.8954C132.84 73.8989 137.635 73.621 142.403 73.0629C143.428 76.7646 144.109 80.5532 144.438 84.3804C142.082 85.4366 140.224 87.3598 139.25 89.7504H135.872C135.942 89.3369 135.984 88.9194 136 88.5004C135.997 86.1754 135.184 83.9241 133.701 82.1337C132.217 80.3433 130.156 79.1258 127.873 78.6904C127.686 78.5716 127.471 78.5059 127.25 78.5004V73.8804ZM132.978 85.8004L126.69 84.0179C125.354 83.64 123.931 83.7147 122.642 84.2304L119.062 85.6754C119.625 84.2834 120.594 83.0931 121.843 82.2594C123.091 81.4256 124.562 80.9871 126.063 81.0009C127.565 81.0146 129.027 81.48 130.26 82.3365C131.494 83.193 132.44 84.4009 132.978 85.8029V85.8004ZM124.75 53.5929V71.3429C119.971 71.2369 115.203 70.8285 110.475 70.1204C113.722 60.5304 119.045 54.3829 124.75 53.5929ZM99.485 64.4854C104.361 59.6032 110.497 56.1722 117.21 54.5754C112.833 58.6934 109.646 63.9148 107.985 69.6904C106.625 69.4404 105.302 69.1654 104.062 68.8604C101.801 68.3372 99.5904 67.6169 97.455 66.7079C98.075 65.9704 98.7325 65.2354 99.485 64.4854ZM95.8825 68.7354C98.3209 69.838 100.862 70.6963 103.47 71.2979C104.667 71.5929 105.945 71.8579 107.255 72.1054C106.196 75.889 105.481 79.7606 105.12 83.6729C104.935 83.6429 104.745 83.6354 104.557 83.6154C104.574 83.476 104.566 83.3348 104.535 83.1979C104.143 81.7401 103.236 80.4735 101.983 79.6322C100.729 78.7909 99.2137 78.4316 97.716 78.6209C96.2183 78.8102 94.8397 79.5352 93.8349 80.6619C92.8302 81.7886 92.2672 83.2409 92.25 84.7504C92.2619 85.6342 92.4592 86.5056 92.8291 87.3083C93.1991 88.1111 93.7334 88.8272 94.3975 89.4104C94.345 89.5254 94.2925 89.6354 94.245 89.7504H88.5525C88.8119 82.163 91.3669 74.8327 95.88 68.7279L95.8825 68.7354ZM88.54 92.2504H93.6275C93.5584 92.6639 93.5158 93.0814 93.5 93.5004C93.5056 95.2525 93.9731 96.9722 94.8553 98.486C95.7375 99.9999 97.0033 101.254 98.525 102.123C98.5143 102.165 98.506 102.207 98.5 102.25V106C98.5 106.023 98.5 106.043 98.5 106.063C96.4263 106.251 94.4234 106.912 92.645 107.995C90.1321 103.114 88.7303 97.7373 88.54 92.2504ZM108.5 114.75V123.5H88.5V119.75C88.5103 116.865 89.6292 114.093 91.6254 112.009C93.6216 109.925 96.3423 108.688 99.225 108.553C99.6623 109.299 100.287 109.917 101.037 110.347C101.787 110.776 102.637 111.002 103.501 111.002C104.366 111.002 105.215 110.776 105.965 110.347C106.715 109.917 107.34 109.299 107.778 108.553C108.476 108.586 109.17 108.686 109.85 108.85C108.964 110.691 108.502 112.707 108.5 114.75ZM141 123.5H111V114.75C111.01 111.865 112.129 109.093 114.125 107.009C116.122 104.925 118.842 103.688 121.725 103.553C122.163 104.297 122.788 104.915 123.538 105.343C124.287 105.772 125.136 105.998 126 105.998C126.864 105.998 127.713 105.772 128.462 105.343C129.212 104.915 129.837 104.297 130.275 103.553C133.158 103.688 135.878 104.925 137.875 107.009C139.871 109.093 140.99 111.865 141 114.75V123.5ZM163.5 123.5H143.5V114.75C143.498 112.707 143.037 110.689 142.15 108.848C142.83 108.684 143.524 108.584 144.222 108.55C144.66 109.296 145.285 109.914 146.035 110.344C146.785 110.774 147.634 111 148.499 111C149.363 111 150.213 110.774 150.963 110.344C151.713 109.914 152.338 109.296 152.775 108.55C155.658 108.685 158.379 109.923 160.375 112.007C162.372 114.092 163.49 116.864 163.5 119.75V123.5Z" fill="#0E0E2C"/>
</g>
<path d="M107.54 201V149.16H129.428C129.932 149.16 130.604 149.184 131.444 149.232C132.308 149.256 133.076 149.328 133.748 149.448C136.844 149.928 139.376 150.948 141.344 152.508C143.336 154.068 144.8 156.036 145.736 158.412C146.672 160.764 147.14 163.392 147.14 166.296C147.14 169.2 146.66 171.84 145.7 174.216C144.764 176.568 143.3 178.524 141.308 180.084C139.34 181.644 136.82 182.664 133.748 183.144C133.076 183.24 132.308 183.312 131.444 183.36C130.58 183.408 129.908 183.432 129.428 183.432H117.332V201H107.54ZM117.332 174.288H128.996C129.5 174.288 130.052 174.264 130.652 174.216C131.252 174.168 131.804 174.072 132.308 173.928C133.628 173.568 134.648 172.968 135.368 172.128C136.088 171.264 136.58 170.316 136.844 169.284C137.132 168.228 137.276 167.232 137.276 166.296C137.276 165.36 137.132 164.376 136.844 163.344C136.58 162.288 136.088 161.34 135.368 160.5C134.648 159.636 133.628 159.024 132.308 158.664C131.804 158.52 131.252 158.424 130.652 158.376C130.052 158.328 129.5 158.304 128.996 158.304H117.332V174.288Z" fill="#0E0E2C"/>
<defs>
<clipPath id="clip0_2002_8472">
<rect width="80" height="80" fill="white" transform="translate(86 46)"/>
</clipPath>
</defs>
</svg>
