<svg width="288" height="756" viewBox="0 0 288 756" fill="none" xmlns="http://www.w3.org/2000/svg">
<defs>
    <linearGradient id="gradient" x1="0%" y1="0%" x2="100%" y2="0%">
        <stop offset="0%" stop-color="#7d17ff"/>
        <stop offset="100%" stop-color="#0085ff"/>
    </linearGradient>
</defs>
<mask id="mask0_3261_4725" style="mask-type:alpha" maskUnits="userSpaceOnUse" x="0" y="-1" width="288" height="811">
<rect x="0.5" y="0.499878" width="287" height="809" fill="#F9FAFB" stroke="#E2E2E2"/>
</mask>
<g mask="url(#mask0_3261_4725)">
<path d="M101.836 655.43C80.2187 655.43 61.2105 651.081 44.8112 642.385C28.412 633.564 15.6156 621.202 6.42203 605.3C-2.7715 589.398 -7.36827 570.7 -7.36827 549.207V381.86L44.0658 381.487V548.834C44.0658 557.655 45.5566 565.668 48.5383 572.874C51.52 580.08 55.6198 586.292 60.8378 591.51C66.18 596.728 72.3297 600.765 79.287 603.623C86.3685 606.356 93.8848 607.723 101.836 607.723C110.036 607.723 117.614 606.294 124.571 603.436C131.653 600.579 137.803 596.541 143.02 591.323C148.238 586.105 152.276 579.894 155.134 572.688C158.115 565.482 159.606 557.531 159.606 548.834V381.487H211.04V549.207C211.04 570.7 206.443 589.398 197.25 605.3C188.056 621.202 175.26 633.564 158.861 642.385C142.461 651.081 123.453 655.43 101.836 655.43Z" fill="url(#gradient)"/>
</g>
</svg>
