<svg width="252" height="252" viewBox="0 0 252 252" fill="none" xmlns="http://www.w3.org/2000/svg">
<circle cx="126" cy="126" r="125.5" fill="white" stroke="#E2E2E2"/>
<path d="M90.5 74.2836C90.5 68.8803 94.8803 64.5 100.284 64.5H152.716C158.12 64.5 162.5 68.8803 162.5 74.2836C162.5 79.6869 158.12 84.0672 152.716 84.0672H100.284C94.8803 84.0672 90.5 79.6869 90.5 74.2836ZM90.5 106.716C90.5 101.313 94.8803 96.9328 100.284 96.9328H152.716C158.12 96.9328 162.5 101.313 162.5 106.716C162.5 112.12 158.12 116.5 152.716 116.5H100.284C94.8803 116.5 90.5 112.12 90.5 106.716Z" stroke="#0E0E2C" stroke-width="3"/>
<path d="M110.04 193V141.16H143.88V150.304H119.832V161.392H139.56V170.536H119.832V183.856H143.88V193H110.04Z" fill="#0E0E2C"/>
</svg>
