<svg width="264" height="69" viewBox="0 0 264 69" fill="none" xmlns="http://www.w3.org/2000/svg">
<g clip-path="url(#clip0_2038_6736)">
<path d="M24.4377 51.261C23.081 52.0409 20.1739 52.8208 16.4916 52.8208C5.83229 52.8208 0.211914 45.412 0.211914 35.8586C0.211914 24.1605 7.77036 17.7266 17.0731 17.7266C20.7554 17.7266 23.4687 18.5064 24.6315 19.2863L23.2748 25.3303C21.9182 24.7454 19.7863 24.1605 17.4607 24.1605C11.8403 24.1605 7.57655 27.8649 7.57655 35.4686C7.57655 42.2925 11.2589 46.5818 17.4607 46.5818C19.5925 46.5818 21.9182 45.9969 23.2748 45.412L24.4377 51.261Z" fill="#0041C4"/>
<path d="M67.4626 46.3868C70.5635 46.5818 72.6953 46.3868 75.021 46.3868C81.998 46.3868 86.068 42.0975 86.068 35.2737C86.068 27.6699 81.2228 23.9655 75.2148 23.9655C72.5015 23.9655 70.1759 23.7706 67.4626 24.1605L67.075 18.1165C71.5325 17.7266 71.5325 17.7266 75.4086 17.7266C85.6803 17.7266 94.014 24.1605 94.014 35.8586C94.014 45.607 88.006 52.8208 76.1838 52.8208C71.9201 52.8208 70.5635 52.8208 67.4626 52.4308V46.3868Z" fill="#0041C4"/>
<path d="M59.1291 34.689C59.1291 45.8022 52.9273 52.6261 43.8184 52.6261C34.5157 52.6261 29.283 45.0223 29.283 35.2739C29.283 25.1356 35.0971 17.3369 44.3998 17.3369C54.0902 17.5319 59.1291 25.3306 59.1291 34.689ZM36.8414 35.2739C36.8414 41.9028 39.7485 46.5821 44.3998 46.5821C49.0512 46.5821 51.7645 41.7079 51.7645 34.884C51.7645 28.84 49.0512 23.5759 44.206 23.5759C39.5547 23.5759 36.8414 28.645 36.8414 35.2739Z" fill="#0041C4"/>
<path d="M120.566 38.3929H109.131V46.3866H121.922V52.8206H102.154V18.7012H121.341V25.1351H109.325V32.154H120.759V38.3929H120.566Z" fill="#0041C4"/>
<path d="M129.868 18.7012H136.845V46.3866H149.055V52.8206H129.675V18.7012H129.868Z" fill="#0041C4"/>
<path d="M163.59 18.7012V52.8206H156.613V18.7012H163.59Z" fill="#0041C4"/>
<path d="M198.863 50.8718C196.731 51.6516 192.661 52.8215 188.591 52.8215C182.971 52.8215 178.901 51.2617 175.994 48.1422C173.087 45.2177 171.536 40.7335 171.536 35.8593C171.536 24.5511 179.095 18.1172 189.173 18.1172C193.243 18.1172 196.344 18.8971 197.7 19.8719L196.15 26.1109C194.405 25.331 192.274 24.5511 188.979 24.5511C183.165 24.5511 178.707 28.2555 178.707 35.4693C178.707 42.4882 182.777 46.5825 188.398 46.5825C189.948 46.5825 191.305 46.3875 191.886 45.9976V38.7838H187.041V32.7398H198.669L198.863 50.8718Z" fill="#0041C4"/>
<path d="M214.562 18.7012V31.764H226.19V18.7012H233.167V52.8206H226.19V38.5879H214.562V52.8206H207.584V18.7012H214.562Z" fill="#0041C4"/>
<path d="M248.284 25.1351H239.95V18.7012H263.788V25.1351H255.261V52.8206H248.284V25.1351Z" fill="#0041C4"/>
<path d="M73.8585 28.0605H67.269V34.4945H73.8585V28.0605Z" fill="#0041C4"/>
<path d="M73.8585 36.834H67.269V43.2679H73.8585V36.834Z" fill="#0041C4"/>
<path d="M162.815 15.1922L157.97 13.8274C157.97 3.29917 166.691 0.374655 167.079 0.179688L168.823 4.66396L167.854 2.5193L168.823 4.66396C168.629 4.66396 165.528 5.83375 163.978 9.34317C166.11 8.75827 169.211 8.56331 173.281 8.95324L172.699 13.6325C165.141 12.8526 162.815 14.9972 162.815 15.1922Z" fill="#0041C4"/>
</g>
<line x1="16" y1="67" x2="248" y2="67" stroke="#0041C4" stroke-width="4"/>
<defs>
<clipPath id="clip0_2038_6736">
<rect width="264" height="53" fill="white"/>
</clipPath>
</defs>
</svg>
