<svg width="240" height="84" viewBox="0 0 240 84" fill="none" xmlns="http://www.w3.org/2000/svg">
<path d="M64.4086 26C60.5474 26 57.4422 29.0736 57.4152 32.8956V40.5396C56.6861 40.5931 55.9571 40.6198 55.201 40.6198C54.445 40.6198 53.716 40.6465 52.9869 40.7V32.8956C52.9329 29.1271 49.8277 26.0802 45.9935 26.0802C42.1592 26.0802 39.054 29.1004 39 32.8956V51.1771C39.054 54.9456 42.1592 57.9925 45.9935 57.9925C49.8277 57.9925 52.9329 54.9723 52.9869 51.1771V43.5331C53.716 43.4796 54.445 43.4529 55.201 43.4529C55.9571 43.4529 56.6861 43.4262 57.4152 43.3727V51.1771C57.4692 54.9456 60.5744 57.9925 64.4086 57.9925C68.2429 57.9925 71.3481 54.9723 71.4021 51.1771V32.8956C71.3751 29.1004 68.2429 26 64.4086 26ZM45.9935 28.8331C48.2616 28.8331 50.1247 30.6505 50.1247 32.8956V40.994C48.0726 41.288 46.0745 41.8493 44.1843 42.6511C43.3743 42.9985 42.5912 43.4529 41.8892 44.0142V32.8956C41.8622 30.6505 43.7253 28.8331 45.9935 28.8331ZM50.0977 51.1771C50.0977 53.4221 48.2616 55.2663 45.9665 55.2663C43.6713 55.2663 41.8352 53.4489 41.8352 51.1771V49.3329C41.8352 47.7025 43.1313 46.1791 45.2914 45.2169C46.8305 44.5754 48.4236 44.0943 50.0707 43.8271L50.0977 51.1771ZM64.4086 55.2396C62.1405 55.2396 60.2774 53.4221 60.2774 51.1771V43.0787C62.3295 42.7847 64.3276 42.2234 66.2178 41.4216C67.0278 41.0742 67.8109 40.6198 68.5129 40.0585V51.1771C68.5129 53.4221 66.6768 55.2396 64.4086 55.2396ZM65.0567 38.8291C63.5176 39.4705 61.9245 39.9516 60.2774 40.2189V32.8956C60.2774 30.6505 62.1135 28.8064 64.4086 28.8064C66.7038 28.8064 68.5399 30.6238 68.5399 32.8956V34.7398C68.5129 36.3434 67.2168 37.8936 65.0567 38.8291Z" fill="url(#paint0_linear_2032_11796)"/>
<path d="M162.857 37.6536C159.778 37.6536 156.97 39.4978 155.809 42.3309C154.621 45.1639 155.269 48.3979 157.456 50.5628C159.643 52.7278 162.938 53.3692 165.773 52.1932C168.608 51.0172 170.498 48.2643 170.498 45.2174C170.498 41.0479 167.069 37.6536 162.857 37.6536ZM162.857 50.3223C160.777 50.3223 158.887 49.0928 158.077 47.1685C157.267 45.2709 157.726 43.0525 159.184 41.6092C160.669 40.1392 162.884 39.7116 164.801 40.4867C166.718 41.2885 167.987 43.1327 167.987 45.2174C168.014 48.0505 165.692 50.3223 162.857 50.3223ZM116.387 37.707C116.063 37.707 115.739 37.8407 115.523 38.0545C115.28 38.295 115.172 38.589 115.172 38.9098V39.6314C112.12 36.8518 107.395 36.9854 104.533 39.9254C101.644 42.8654 101.644 47.5427 104.533 50.4827C107.422 53.4227 112.147 53.5563 115.172 50.7767V51.4983C115.172 52.1665 115.739 52.7278 116.414 52.7278C117.089 52.7278 117.656 52.1665 117.656 51.4983V38.9365C117.656 38.6158 117.521 38.295 117.305 38.0812C117.035 37.8407 116.738 37.707 116.387 37.707ZM109.987 50.3223C107.908 50.3223 106.018 49.0661 105.208 47.1685C104.398 45.2709 104.857 43.0525 106.315 41.6092C107.8 40.1392 110.014 39.7116 111.931 40.5134C113.848 41.3152 115.118 43.1594 115.118 45.2441C115.118 46.6072 114.577 47.8901 113.605 48.8523C112.633 49.8145 111.364 50.3223 109.987 50.3223ZM129.509 38.883C129.509 39.5512 128.942 40.1125 128.267 40.1125C128.24 40.1125 128.213 40.1125 128.186 40.1125C128.159 40.1125 128.132 40.1125 128.105 40.1125C126.728 40.1125 125.432 40.647 124.46 41.6092C123.488 42.5714 122.948 43.8543 122.948 45.2174C122.894 45.4579 122.921 49.3601 122.921 51.6587C122.867 51.9794 122.705 52.2734 122.435 52.4605C122.165 52.6476 121.841 52.7278 121.517 52.701C120.896 52.5941 120.464 52.0596 120.464 51.4181V38.9098C120.464 38.5623 120.599 38.2416 120.842 38.0278C121.085 37.7872 121.409 37.6803 121.76 37.6803C122.435 37.7338 122.948 38.295 122.921 38.9632V39.6047C124.325 38.3218 126.161 37.6001 128.078 37.6001H128.24C128.564 37.6001 128.888 37.7338 129.104 37.9476C129.401 38.2416 129.509 38.5623 129.509 38.883ZM185.403 43.9879V51.4983C185.403 52.1665 184.836 52.7278 184.161 52.7278C183.486 52.7278 182.919 52.1665 182.919 51.4983V50.2688V43.9879C182.919 42.9189 182.46 41.9032 181.677 41.1816C180.894 40.4599 179.841 40.0858 178.761 40.1659C176.708 40.2996 175.169 42.0903 175.169 44.1216V45.6183V50.2688V51.4983C175.169 52.1665 174.602 52.7278 173.927 52.7278C173.252 52.7278 172.685 52.1665 172.685 51.4983V38.9365C172.685 38.2683 173.252 37.707 173.927 37.707C174.602 37.707 175.169 38.2683 175.169 38.9365V39.0434C176.195 38.2416 177.438 37.7605 178.734 37.707C180.462 37.6269 182.163 38.2416 183.432 39.4176C184.701 40.5936 185.403 42.2774 185.403 43.9879ZM99.8075 32.5754V51.525C99.7805 52.1665 99.2405 52.701 98.5924 52.701C97.9444 52.701 97.4044 52.1932 97.3774 51.525V42.9456H84.6325V51.5518C84.6055 52.1932 84.0655 52.7278 83.4175 52.7278C82.7694 52.7278 82.2294 52.2199 82.2024 51.5518V32.5754C82.2294 31.934 82.7694 31.3994 83.4175 31.3994C84.0655 31.3994 84.6055 31.9072 84.6325 32.5754V40.8341H97.3774V32.5754C97.4044 31.934 97.9444 31.3994 98.5924 31.3994C99.2405 31.3994 99.7805 31.9072 99.8075 32.5754ZM152.974 44.5759V51.4983C152.974 52.1665 152.407 52.7278 151.732 52.7278C151.057 52.7278 150.49 52.1665 150.49 51.4983V45.1907V43.5336C150.517 42.3041 149.869 41.1281 148.789 40.5134C147.709 39.8719 146.359 39.8719 145.278 40.5134C144.198 41.1549 143.55 42.3041 143.577 43.5336V51.4983C143.577 52.1665 143.01 52.7278 142.335 52.7278C141.66 52.7278 141.093 52.1665 141.093 51.4983V45.1907V43.5336C141.12 42.3041 140.472 41.1281 139.392 40.5134C138.312 39.8719 136.962 39.8719 135.882 40.5134C134.802 41.1549 134.154 42.3041 134.181 43.5336V51.4983C134.181 52.1665 133.614 52.7278 132.939 52.7278C132.264 52.7278 131.697 52.1665 131.697 51.4983V38.9632C131.697 38.3218 132.183 37.7605 132.831 37.7338C133.479 37.6803 134.073 38.1614 134.154 38.8029C136.746 36.932 140.364 37.4665 142.308 39.9789C143.847 37.9743 146.521 37.1992 148.924 38.001C151.327 38.8029 152.947 41.0479 152.947 43.5603L152.974 44.5759ZM200.821 39.4978L192.478 57.3783C192.153 57.9396 191.451 58.1534 190.857 57.8861C190.263 57.6188 189.993 56.9507 190.209 56.3359L192.45 51.525L186.834 39.4978C186.591 39.0969 186.591 38.589 186.861 38.1881C187.131 37.7872 187.59 37.5734 188.076 37.6269C188.562 37.6803 188.967 38.001 189.102 38.4554L193.828 48.5583L198.553 38.4554C198.715 38.001 199.12 37.6803 199.579 37.6269C200.065 37.5734 200.524 37.7872 200.794 38.1881C201.064 38.5623 201.064 39.0701 200.821 39.4978Z" fill="#555B68"/>
<defs>
<linearGradient id="paint0_linear_2032_11796" x1="41.0475" y1="56.0468" x2="68.9765" y2="27.6756" gradientUnits="userSpaceOnUse">
<stop stop-color="#00AEE9"/>
<stop offset="1" stop-color="#69FABD"/>
</linearGradient>
</defs>
</svg>
