<svg width="338" height="68" viewBox="0 0 338 68" fill="none" xmlns="http://www.w3.org/2000/svg">
<g clip-path="url(#clip0_3062_5189)">
<path d="M31.3752 65.7927C29.6398 66.7826 25.9213 67.7724 21.2111 67.7724C7.57641 67.7724 0.387207 58.369 0.387207 46.2435C0.387207 31.396 10.0554 23.2299 21.9548 23.2299C26.665 23.2299 30.1356 24.2197 31.6231 25.2095L29.8877 32.8807C28.1524 32.1384 25.4255 31.396 22.4506 31.396C15.2614 31.396 9.80754 36.0977 9.80754 45.7486C9.80754 54.4096 14.5177 59.8537 22.4506 59.8537C25.1776 59.8537 28.1524 59.1113 29.8877 58.369L31.3752 65.7927Z" fill="#0041C4"/>
<path d="M86.4096 59.6063C90.3761 59.8537 93.103 59.6063 96.0779 59.6063C105.002 59.6063 110.208 54.1622 110.208 45.5011C110.208 35.8502 104.011 31.1485 96.3258 31.1485C92.8551 31.1485 89.8803 30.9011 86.4096 31.396L85.9138 23.7248C91.6156 23.2299 91.6156 23.2299 96.5737 23.2299C109.713 23.2299 120.372 31.396 120.372 46.2435C120.372 58.6164 112.687 67.7724 97.5653 67.7724C92.1114 67.7724 90.3761 67.7724 86.4096 67.2775V59.6063Z" fill="#0041C4"/>
<path d="M75.7494 44.7588C75.7494 58.8639 67.8165 67.525 56.165 67.525C44.2657 67.525 37.5723 57.8741 37.5723 45.5012C37.5723 32.6333 45.0094 22.735 56.9087 22.735C69.3039 22.9824 75.7494 32.8808 75.7494 44.7588ZM47.2405 45.5012C47.2405 53.9147 50.9591 59.8538 56.9087 59.8538C62.8584 59.8538 66.3291 53.6673 66.3291 45.0062C66.3291 37.335 62.8584 30.6536 56.6608 30.6536C50.7112 30.6536 47.2405 37.0876 47.2405 45.5012Z" fill="#0041C4"/>
<path d="M154.335 49.4604H139.709V59.6062H156.071V67.7723H130.785V24.467H155.327V32.6332H139.957V41.5417H154.583V49.4604H154.335Z" fill="#0041C4"/>
<path d="M166.234 24.467H175.159V59.6062H190.777V67.7723H165.987V24.467H166.234Z" fill="#0041C4"/>
<path d="M209.37 24.467V67.7723H200.445V24.467H209.37Z" fill="#0041C4"/>
<path d="M254.488 65.2979C251.761 66.2877 246.555 67.7725 241.349 67.7725C234.16 67.7725 228.954 65.7928 225.235 61.8335C221.517 58.1216 219.533 52.4301 219.533 46.2436C219.533 31.891 229.202 23.7249 242.093 23.7249C247.299 23.7249 251.265 24.7147 253 25.952L251.017 33.8707C248.786 32.8808 246.059 31.891 241.845 31.891C234.408 31.891 228.706 36.5927 228.706 45.7487C228.706 54.6572 233.912 59.8538 241.101 59.8538C243.084 59.8538 244.82 59.6063 245.563 59.1114V49.9555H239.366V42.2842H254.24L254.488 65.2979Z" fill="#0041C4"/>
<path d="M274.568 24.467V41.0468H289.443V24.467H298.367V67.7723H289.443V49.7078H274.568V67.7723H265.644V24.467H274.568Z" fill="#0041C4"/>
<path d="M317.703 32.6332H307.043V24.467H337.536V32.6332H326.628V67.7723H317.703V32.6332Z" fill="#0041C4"/>
<path d="M94.5908 36.3453H86.1621V44.5115H94.5908V36.3453Z" fill="#0041C4"/>
<path d="M94.5908 47.4808H86.1621V55.647H94.5908V47.4808Z" fill="#0041C4"/>
<path d="M208.378 20.0129L202.18 18.2807C202.18 4.91796 213.336 1.20608 213.832 0.958618L216.063 6.65018L214.823 3.92811L216.063 6.65018C215.815 6.65018 211.848 8.13491 209.865 12.5892C212.592 11.8468 216.559 11.5993 221.765 12.0943L221.021 18.0333C211.353 17.0434 208.378 19.7655 208.378 20.0129Z" fill="#0041C4"/>
</g>
<defs>
<clipPath id="clip0_3062_5189">
<rect width="337.691" height="67.2691" fill="white" transform="translate(0.116211 0.730957)"/>
</clipPath>
</defs>
</svg>
