<svg width="278" height="107" viewBox="0 0 278 107" fill="none" xmlns="http://www.w3.org/2000/svg">
<path d="M124.212 86.4004C105.863 86.4004 90.9292 71.4666 90.9292 53.1085C90.9292 34.7504 105.863 19.8262 124.212 19.8262C132.211 19.8262 139.944 22.7083 145.994 27.9399C146.679 28.5296 147.088 29.3476 147.145 30.2418C147.211 31.1359 146.917 32.011 146.327 32.6863C145.69 33.4283 144.757 33.8468 143.778 33.8468C142.969 33.8468 142.18 33.5519 141.571 33.0193C136.758 28.8435 130.585 26.5511 124.202 26.5511C109.582 26.5701 97.6732 38.4791 97.6732 53.1085C97.6732 67.7379 109.582 79.6564 124.221 79.6564C126.808 79.6564 129.358 79.2854 131.812 78.553C132.125 78.4579 132.449 78.4103 132.772 78.4103C134.247 78.4103 135.578 79.3996 136.006 80.8168C136.539 82.5956 135.521 84.4789 133.743 85.0116C130.651 85.9343 127.455 86.4004 124.212 86.4004Z" fill="#0E0E2C"/>
<path d="M187 69.0413C187 73.8923 185.212 78.2774 181.959 81.4068C178.344 84.8882 173.037 86.7335 166.597 86.7335H140.135V61.1178H112.902C111.123 61.1178 109.649 59.8051 109.487 58.074C109.392 57.1323 109.706 56.1811 110.353 55.4772C110.99 54.7733 111.894 54.3738 112.845 54.3738H143.521C144.453 54.3738 145.29 54.7543 145.909 55.3631C146.517 55.9718 146.898 56.8184 146.898 57.7506V79.999H166.616C177.079 79.999 180.218 72.7129 180.218 67.272C180.218 61.4792 174.787 54.545 166.616 54.545H161.232C161.194 54.545 161.156 54.545 161.118 54.545C161.061 54.545 161.004 54.5355 160.957 54.5355C160.89 54.526 160.823 54.526 160.757 54.5165C160.291 54.4499 159.853 54.2787 159.473 54.0504C159.387 53.9933 159.301 53.9458 159.225 53.8887L159.216 53.8792C159.14 53.8221 159.064 53.7555 158.988 53.6985C158.854 53.5843 158.74 53.4607 158.626 53.3275C158.579 53.2704 158.531 53.2038 158.483 53.1373C158.455 53.0992 158.426 53.0612 158.398 53.0231C158.331 52.928 158.274 52.8234 158.227 52.7187C158.208 52.6807 158.179 52.6331 158.15 52.5665C158.084 52.4334 157.97 52.148 157.903 51.758C157.875 51.5773 157.856 51.3871 157.856 51.1968C157.856 50.1981 158.293 49.3039 158.978 48.6857C159.035 48.6381 159.092 48.581 159.159 48.5335C159.435 48.3242 159.739 48.153 160.062 48.0293C160.119 48.0103 160.167 47.9913 160.224 47.9723C160.272 47.9532 160.329 47.9437 160.376 47.9247C160.433 47.9057 160.5 47.8962 160.567 47.8771C160.652 47.8581 160.728 47.8486 160.823 47.8391C160.957 47.8201 161.09 47.8201 161.223 47.8201H166.454C169.727 47.8201 172.333 46.7452 174.216 44.6336C175.881 42.7597 176.832 40.1249 176.832 37.4045C176.832 32.7341 174.064 27.2647 166.283 27.2647H159.882C158.027 27.2647 156.514 25.7523 156.514 23.8975C156.514 22.0427 158.027 20.5303 159.882 20.5303H166.283C177.64 20.5303 183.576 29.0245 183.576 37.414C183.576 41.8371 182.035 46.0128 179.229 49.1518C178.63 49.8271 177.973 50.4454 177.279 50.9971C178.82 52.0053 180.247 53.2419 181.521 54.6972C185.003 58.6542 187 63.8858 187 69.0413Z" fill="#0E0E2C"/>
<mask id="path-3-inside-1_2032_11891" fill="white">
<path d="M160.737 54.5169C160.271 54.4503 159.834 54.2886 159.453 54.0508C159.834 54.2791 160.271 54.4408 160.737 54.5169Z"/>
</mask>
<path d="M160.737 54.5169C160.271 54.4503 159.834 54.2886 159.453 54.0508C159.834 54.2791 160.271 54.4408 160.737 54.5169Z" fill="#0E0E2C"/>
<path d="M160.737 54.5169L160.172 58.4767L161.382 50.5691L160.737 54.5169ZM159.453 54.0508L161.511 50.6208L157.333 57.4428L159.453 54.0508ZM161.303 50.5571C161.386 50.5689 161.478 50.5993 161.573 50.6588L157.333 57.4428C158.189 57.9778 159.157 58.3317 160.172 58.4767L161.303 50.5571ZM157.395 57.4808C158.217 57.9736 159.135 58.3082 160.093 58.4646L161.382 50.5691C161.407 50.5733 161.451 50.5845 161.511 50.6208L157.395 57.4808Z" fill="#F1B664" fill-opacity="0.5" mask="url(#path-3-inside-1_2032_11891)"/>
</svg>
