<svg width="240" height="84" viewBox="0 0 240 84" fill="none" xmlns="http://www.w3.org/2000/svg">
<path d="M29.6708 31.8167V27.528C29.6715 26.7673 29.4405 26.0237 29.0073 25.3918C28.574 24.7599 27.9581 24.2685 27.2381 23.9801L0 13V15.3783L24.2621 25.1254C24.5076 25.2295 24.7015 25.4236 24.8022 25.666C24.9028 25.9084 24.9022 26.1798 24.8005 26.4217C24.7526 26.541 24.6801 26.6492 24.5874 26.7398C24.4948 26.8304 24.384 26.9013 24.2621 26.9481L0 36.7536V46.3204L14.6211 40.4234L24.2322 44.2979C24.3553 44.3469 24.4671 44.4194 24.5611 44.5113C24.6551 44.6031 24.7294 44.7125 24.7795 44.8328C24.8297 44.9531 24.8547 45.082 24.8532 45.212C24.8517 45.3419 24.8236 45.4702 24.7706 45.5894C24.7227 45.7086 24.6502 45.8169 24.5575 45.9074C24.4649 45.998 24.3541 46.0689 24.2322 46.1157L0 55.892V71L27.2032 60.0492C27.9232 59.7607 28.5391 59.2693 28.9724 58.6374C29.4056 58.0056 29.6366 57.2619 29.6359 56.5012V46.6713C29.6369 45.9099 29.4061 45.1655 28.9729 44.5328C28.5397 43.9001 27.9236 43.4077 27.2032 43.1185L17.5672 39.2196L27.2032 35.3452C27.9326 35.0718 28.5594 34.5877 29.0002 33.9574C29.441 33.327 29.675 32.5803 29.6708 31.8167Z" fill="#0E0E2C"/>
<path d="M52.1034 16.5376C52.2436 16.2987 52.4498 16.1033 52.6986 15.974C52.9473 15.8447 53.2283 15.7866 53.5092 15.8066C54.5062 15.8066 55.3437 16.6107 55.3437 17.9899C55.3437 19.3691 54.4913 20.1733 53.5092 20.1733C53.2283 20.1932 52.9473 20.1352 52.6986 20.0059C52.4498 19.8765 52.2436 19.6812 52.1034 19.4422V21.4404H51.3806V15.8748H52.1034V16.5376ZM54.5561 17.9997C54.5561 17.025 54.0576 16.4255 53.3248 16.4255C52.6817 16.4255 52.0735 16.9129 52.0735 17.9997C52.0735 19.0865 52.6817 19.5738 53.3248 19.5738C54.0975 19.5641 54.5661 18.989 54.5661 17.9899L54.5561 17.9997Z" fill="#0E0E2C"/>
<path d="M57.8911 16.5867C57.2231 16.5867 56.8941 16.9522 56.8941 17.8733V20.0859H56.1663V15.8752H56.8741V16.6111C56.9779 16.3828 57.1481 16.1894 57.3635 16.0551C57.5789 15.9207 57.83 15.8514 58.0855 15.8557H58.2998V16.6111C58.1503 16.6013 58.0107 16.5867 57.8911 16.5867Z" fill="#0E0E2C"/>
<path d="M60.6676 20.1733C59.6706 20.1733 58.6138 19.5105 58.6138 17.99C58.6138 16.4694 59.6706 15.8066 60.6676 15.8066C61.6646 15.8066 62.7264 16.4694 62.7264 17.99C62.7264 19.5105 61.6696 20.1733 60.6676 20.1733ZM61.9537 17.99C61.9537 16.8739 61.3256 16.4305 60.6676 16.4305C60.0096 16.4305 59.3864 16.8447 59.3864 17.99C59.3864 19.1353 60.0146 19.5495 60.6676 19.5495C61.3206 19.5495 61.9537 19.067 61.9537 17.99Z" fill="#0E0E2C"/>
<path d="M64.237 15.8752V20.2613C64.237 21.1337 64.0525 21.4164 63.24 21.4164H62.8711V20.8218H63.0705C63.4444 20.8218 63.5142 20.7146 63.5142 20.276V15.8752H64.237ZM64.237 15.2757H63.5092V14.418H64.237V15.2757Z" fill="#0E0E2C"/>
<path d="M67.1383 19.5496C67.3837 19.5728 67.6302 19.5179 67.8412 19.3933C68.0523 19.2686 68.2166 19.0807 68.3098 18.8576H69.0525C68.9331 19.2584 68.6772 19.6073 68.3273 19.8466C67.9774 20.0859 67.5544 20.2012 67.1283 20.1734C65.7724 20.1734 65.0246 19.1987 65.0246 17.9852C65.0018 17.7058 65.0387 17.4248 65.1331 17.1601C65.2274 16.8955 65.3772 16.6529 65.5728 16.448C65.7683 16.243 66.0055 16.0801 66.269 15.9697C66.5325 15.8593 66.8167 15.8038 67.1034 15.8068C68.4144 15.8068 69.2021 16.8838 69.0974 18.2094H65.8123C65.8055 18.3835 65.8349 18.5571 65.8986 18.7198C65.9623 18.8824 66.059 19.0309 66.1828 19.1561C66.3067 19.2813 66.4552 19.3807 66.6194 19.4483C66.7836 19.5159 66.9601 19.5504 67.1383 19.5496ZM68.3496 17.6002C68.3294 17.286 68.1875 16.9911 67.9527 16.7755C67.718 16.56 67.408 16.44 67.0859 16.44C66.7639 16.44 66.4539 16.56 66.2191 16.7755C65.9844 16.9911 65.8424 17.286 65.8222 17.6002H68.3496Z" fill="#0E0E2C"/>
<path d="M72.8009 17.2778C72.7462 17.0317 72.6051 16.8121 72.402 16.6571C72.1989 16.5022 71.9467 16.4218 71.6892 16.4298C71.0462 16.4298 70.453 16.9171 70.453 17.9747C70.453 19.0322 71.0512 19.5488 71.6892 19.5488C71.9495 19.5574 72.2049 19.4784 72.4127 19.3249C72.6206 19.1714 72.7681 18.9528 72.8308 18.7057H73.5835C73.4868 19.1283 73.2431 19.505 72.894 19.7716C72.545 20.0382 72.1121 20.1782 71.6693 20.1678C70.438 20.1678 69.6753 19.2564 69.6753 17.9796C69.6753 16.7027 70.4829 15.8011 71.7491 15.8011C72.178 15.7932 72.5955 15.9367 72.925 16.2052C73.2546 16.4737 73.4742 16.8493 73.5437 17.2632L72.8009 17.2778Z" fill="#0E0E2C"/>
<path d="M75.2686 14.8223V15.875H76.0812V16.4452H75.2686V18.9355C75.2686 19.3693 75.3035 19.4814 75.7173 19.4814H76.0812V20.0857H75.5578C74.7352 20.0857 74.5608 19.9102 74.5608 19.033V16.4452H73.8828V15.875H74.5358V14.8223H75.2686Z" fill="#0E0E2C"/>
<path d="M80.2339 16.407C79.8102 16.407 79.3316 16.5581 79.3316 16.9382C79.3316 17.3183 79.5709 17.4256 79.9847 17.5084L80.5928 17.6254C81.3705 17.7716 82.0584 18.0591 82.0584 18.873C82.0584 19.6869 81.2907 20.1742 80.3137 20.1742C79.8735 20.2067 79.4372 20.0733 79.0943 19.8015C78.7514 19.5297 78.5278 19.14 78.4692 18.7122H79.2319C79.262 18.9677 79.3942 19.2012 79.5996 19.3619C79.805 19.5225 80.0671 19.5973 80.3286 19.5699C80.877 19.5699 81.3256 19.336 81.3256 18.9461C81.3256 18.5562 80.9169 18.3467 80.4533 18.2541L79.8152 18.1274C79.2319 18.0104 78.5939 17.7423 78.5939 16.9626C78.5939 16.1828 79.3615 15.7929 80.3137 15.7929C80.7145 15.7588 81.1135 15.8755 81.4294 16.1191C81.7452 16.3627 81.9542 16.7149 82.0136 17.1039H81.2559C81.2066 16.8833 81.074 16.689 80.8845 16.5598C80.6951 16.4306 80.4627 16.376 80.2339 16.407Z" fill="#0E0E2C"/>
<path d="M84.2068 20.1735C83.2098 20.1735 82.8359 19.5204 82.8359 18.5603V15.875H83.5588V18.3508C83.5588 18.9989 83.6734 19.5594 84.4611 19.5594C85.149 19.5594 85.5528 19.072 85.5528 18.1851V15.875H86.2806V20.0857H85.5528V19.4863C85.4166 19.7124 85.2182 19.8966 84.9803 20.0181C84.7424 20.1395 84.4744 20.1934 84.2068 20.1735Z" fill="#0E0E2C"/>
<path d="M88.0603 16.5376C88.2004 16.2987 88.4067 16.1033 88.6554 15.974C88.9041 15.8447 89.1851 15.7866 89.4661 15.8066C90.4631 15.8066 91.3006 16.6107 91.3006 17.9899C91.3006 19.3691 90.4432 20.1733 89.4661 20.1733C89.1851 20.1932 88.9041 20.1352 88.6554 20.0059C88.4067 19.8765 88.2004 19.6812 88.0603 19.4422V21.4404H87.3325V15.8748H88.0603V16.5376ZM90.508 17.9997C90.508 17.025 90.0095 16.4255 89.2816 16.4255C88.6336 16.4255 88.0254 16.9129 88.0254 17.9997C88.0254 19.0865 88.6336 19.5738 89.2816 19.5738C90.0244 19.5641 90.488 18.989 90.488 17.9899L90.508 17.9997Z" fill="#0E0E2C"/>
<path d="M92.8309 16.5376C92.971 16.2987 93.1772 16.1033 93.4259 15.974C93.6746 15.8447 93.9557 15.7866 94.2366 15.8066C95.2336 15.8066 96.0711 16.6107 96.0711 17.9899C96.0711 19.3691 95.2187 20.1733 94.2366 20.1733C93.9557 20.1932 93.6746 20.1352 93.4259 20.0059C93.1772 19.8765 92.971 19.6812 92.8309 19.4422V21.4404H92.103V15.8748H92.8309V16.5376ZM95.2785 17.9997C95.2785 17.025 94.78 16.4255 94.0522 16.4255C93.4041 16.4255 92.8009 16.9129 92.8009 17.9997C92.8009 19.0865 93.4041 19.5738 94.0522 19.5738C94.7949 19.5641 95.2785 18.989 95.2785 17.9899V17.9997Z" fill="#0E0E2C"/>
<path d="M98.6885 20.1733C97.6915 20.1733 96.6296 19.5105 96.6296 17.99C96.6296 16.4694 97.6865 15.8066 98.6885 15.8066C99.2834 15.8066 99.854 16.0377 100.275 16.449C100.695 16.8603 100.932 17.4181 100.932 17.9997C100.932 18.5814 100.695 19.1392 100.275 19.5505C99.854 19.9618 99.2834 20.1928 98.6885 20.1928V20.1733ZM99.9596 17.99C99.9596 16.8739 99.3315 16.4305 98.6785 16.4305C98.0254 16.4305 97.3923 16.8447 97.3923 17.99C97.3923 19.1353 98.0205 19.5495 98.6785 19.5495C99.3365 19.5495 99.9596 19.067 99.9596 17.99Z" fill="#0E0E2C"/>
<path d="M103.284 16.5869C102.616 16.5869 102.287 16.9524 102.287 17.8735V20.0861H101.555V15.8754H102.268V16.6113C102.37 16.3818 102.539 16.1873 102.755 16.0528C102.971 15.9182 103.223 15.8496 103.479 15.8559H103.693V16.6113C103.544 16.6015 103.404 16.5869 103.284 16.5869Z" fill="#0E0E2C"/>
<path d="M105.473 14.8223V15.875H106.291V16.4452H105.473V18.9355C105.473 19.3693 105.508 19.4814 105.922 19.4814H106.291V20.0857H105.762C104.94 20.0857 104.765 19.9102 104.765 19.033V16.4452H104.087V15.875H104.765V14.8223H105.473Z" fill="#0E0E2C"/>
<path d="M108.733 19.5496C108.979 19.5723 109.226 19.5173 109.438 19.3927C109.65 19.2682 109.815 19.0807 109.91 18.8576H110.658C110.538 19.2584 110.282 19.6073 109.932 19.8466C109.582 20.0859 109.159 20.2012 108.733 20.1734C107.377 20.1734 106.63 19.1987 106.63 17.9852C106.608 17.7056 106.645 17.4245 106.74 17.1598C106.835 16.8951 106.985 16.6526 107.181 16.4477C107.377 16.2429 107.615 16.0801 107.878 15.9697C108.142 15.8594 108.427 15.8039 108.713 15.8067C110.02 15.8067 110.812 16.8838 110.707 18.2094H107.437C107.429 18.3814 107.457 18.5531 107.518 18.7145C107.579 18.8758 107.673 19.0234 107.794 19.1485C107.915 19.2736 108.061 19.3736 108.222 19.4425C108.383 19.5114 108.557 19.5478 108.733 19.5496ZM109.95 17.6002C109.95 17.2719 109.816 16.957 109.579 16.7249C109.341 16.4927 109.019 16.3623 108.684 16.3623C108.348 16.3623 108.026 16.4927 107.788 16.7249C107.551 16.957 107.417 17.2719 107.417 17.6002H109.95Z" fill="#0E0E2C"/>
<path d="M115.229 14.418V20.0859H114.501V19.4572C114.361 19.6961 114.154 19.8915 113.906 20.0208C113.657 20.1502 113.376 20.2082 113.095 20.1882C112.098 20.1882 111.26 19.3939 111.26 18.0049C111.26 16.6159 112.113 15.8215 113.095 15.8215C113.376 15.8016 113.657 15.8596 113.906 15.989C114.154 16.1183 114.361 16.3137 114.501 16.5526V14.418H115.229ZM112.053 17.9903C112.053 18.965 112.552 19.5644 113.279 19.5644C113.927 19.5644 114.531 19.0771 114.531 17.9903C114.531 16.9035 113.927 16.4161 113.279 16.4161C112.537 16.4161 112.053 16.9912 112.053 17.9903Z" fill="#0E0E2C"/>
<path d="M118.958 16.538C119.098 16.299 119.304 16.1037 119.553 15.9743C119.802 15.845 120.083 15.787 120.364 15.8069C121.361 15.8069 122.198 16.6111 122.198 17.9903C122.198 19.3695 121.346 20.1736 120.364 20.1736C120.083 20.1936 119.802 20.1355 119.553 20.0062C119.304 19.8769 119.098 19.6815 118.958 19.4426V20.0859H118.23V14.418H118.958V16.538ZM121.41 18C121.41 17.0253 120.912 16.4259 120.179 16.4259C119.531 16.4259 118.928 16.9132 118.928 18C118.928 19.0868 119.531 19.5742 120.179 19.5742C120.922 19.5644 121.395 18.9893 121.395 17.9903L121.41 18Z" fill="#0E0E2C"/>
<path d="M124.516 20.2515C124.207 21.1677 123.982 21.4406 123.02 21.4406H122.641V20.846H122.941C123.439 20.846 123.648 20.8168 123.838 20.1589L123.888 20.0858L122.337 15.8896H123.145L124.237 19.1306L125.298 15.8896H126.056L124.516 20.2515Z" fill="#0E0E2C"/>
<path d="M57.5123 30.1836L59.2721 36.5826L60.967 30.1836H62.5721L60.0248 38.839H58.6589L56.6998 31.8698L54.8105 38.839H53.4496L50.8972 30.1836H52.5074L54.2023 36.5826L55.967 30.1836H57.5123Z" fill="#0E0E2C"/>
<path d="M67.2731 37.7578C67.7793 37.8037 68.2872 37.6898 68.7224 37.4328C69.1575 37.1758 69.4969 36.7892 69.6908 36.3298H71.2362C70.8274 37.826 69.4266 39.0444 67.2731 39.0444C64.4765 39.0444 62.9312 37.095 62.9312 34.5266C62.9312 31.7926 64.8055 30.0381 67.2232 30.0381C69.9201 30.0381 71.5502 32.2604 71.3508 34.9945H64.5662C64.5515 35.3514 64.6105 35.7075 64.7398 36.0416C64.8691 36.3757 65.066 36.6808 65.3187 36.9388C65.5714 37.1968 65.8747 37.4023 66.2105 37.543C66.5464 37.6837 66.9077 37.7568 67.2731 37.7578ZM69.7656 33.7371C69.7029 33.1059 69.4023 32.5201 68.9222 32.0937C68.4421 31.6672 67.8169 31.4307 67.1682 31.4301C66.5195 31.4295 65.8938 31.6648 65.4129 32.0904C64.9319 32.5159 64.6301 33.1012 64.5662 33.7322L69.7656 33.7371Z" fill="#0E0E2C"/>
<path d="M74.3964 31.5483C74.6879 31.0583 75.1133 30.6574 75.6249 30.3905C76.1365 30.1237 76.714 30.0014 77.2927 30.0375C79.3166 30.0375 81.0763 31.6945 81.0763 34.5407C81.0763 37.3868 79.3166 39.0438 77.2927 39.0438C76.714 39.0799 76.1365 38.9577 75.6249 38.6908C75.1133 38.424 74.6879 38.0231 74.3964 37.533V38.8391H72.9009V27.1768H74.3964V31.5483ZM79.4462 34.5407C79.4462 32.484 78.4492 31.2949 76.9138 31.2949C75.5828 31.2949 74.3316 32.2696 74.3316 34.5407C74.3316 36.8117 75.5828 37.7913 76.9138 37.7913C78.4442 37.7913 79.4462 36.6022 79.4462 34.5407Z" fill="#0E0E2C"/>
<path d="M85.6225 33.3511H85.3733V32.0157H85.5727C87.6465 32.0157 88.7482 31.4553 88.7482 30.0663C88.7482 28.8138 87.6963 28.1705 86.4251 28.1705C86.1008 28.1453 85.7746 28.1846 85.4663 28.2861C85.1579 28.3876 84.8738 28.5491 84.631 28.7609C84.3883 28.9727 84.192 29.2304 84.054 29.5184C83.9159 29.8064 83.839 30.1188 83.8279 30.4367H82.2826C82.462 28.3801 83.9576 26.9473 86.46 26.9473C88.5338 26.9473 90.3284 27.7514 90.3284 29.9055C90.3291 30.4973 90.1426 31.0748 89.7946 31.559C89.4466 32.0432 88.954 32.4104 88.3842 32.6103C90.1639 33.1562 90.6574 34.3112 90.6574 35.5344C90.6574 37.8835 88.6136 39.0239 86.3454 39.0239C83.5488 39.0239 82.2627 37.323 82.0981 35.3736H83.6485C83.813 36.8064 84.6804 37.8104 86.3603 37.8104C87.9406 37.8104 89.0572 37.0062 89.0572 35.5588C89.0572 33.8969 87.5268 33.3511 85.6225 33.3511Z" fill="#0E0E2C"/>
<path d="M99.1619 27.1768H99.9595V28.4H99.2168C98.4291 28.4 98.2945 28.5755 98.2945 29.4771V30.1837H99.9595V31.3583H98.2945V38.8391H96.799V31.3583H95.5627V30.1837H96.799V29.555C96.7741 27.7567 97.153 27.1768 99.1619 27.1768Z" fill="#0E0E2C"/>
<path d="M104.71 39.0444C102.656 39.0444 100.468 37.6798 100.468 34.5412C100.468 31.4027 102.656 30.0381 104.71 30.0381C106.764 30.0381 108.958 31.4076 108.958 34.5412C108.958 37.6749 106.769 39.0444 104.71 39.0444ZM107.362 34.5412C107.362 32.2409 106.061 31.3247 104.71 31.3247C103.359 31.3247 102.063 32.1776 102.063 34.5412C102.063 36.9049 103.364 37.7578 104.71 37.7578C106.056 37.7578 107.362 36.7636 107.362 34.5412Z" fill="#0E0E2C"/>
<path d="M113.285 39.0437C111.231 39.0437 110.458 37.6937 110.458 35.7151V30.1836H111.954V35.2813C111.954 36.6167 112.183 37.7766 113.813 37.7766C115.229 37.7766 116.067 36.8019 116.067 34.945V30.1836H117.562V38.839H116.067V37.5962C115.787 38.0667 115.378 38.4514 114.887 38.7071C114.395 38.9628 113.841 39.0794 113.285 39.0437Z" fill="#0E0E2C"/>
<path d="M124.007 30.0369C126.151 30.0369 126.923 31.3869 126.923 33.3656V38.8385H125.428V33.7993C125.428 32.4688 125.199 31.3089 123.489 31.3089C122.038 31.3089 121.151 32.2836 121.151 34.1404V38.8385H119.655V30.1831H121.151V31.4844C121.444 31.0092 121.866 30.6226 122.37 30.3672C122.874 30.1117 123.441 29.9974 124.007 30.0369Z" fill="#0E0E2C"/>
<path d="M136.58 27.1767V38.8391H135.084V37.533C134.793 38.023 134.367 38.424 133.856 38.6908C133.344 38.9577 132.767 39.0799 132.188 39.0438C130.164 39.0438 128.404 37.4063 128.404 34.5407C128.404 31.675 130.164 30.0375 132.188 30.0375C132.767 30.0014 133.344 30.1236 133.856 30.3905C134.367 30.6573 134.793 31.0583 135.084 31.5483V27.1621L136.58 27.1767ZM130.034 34.5407C130.034 36.6022 131.031 37.7913 132.567 37.7913C133.898 37.7913 135.149 36.8166 135.149 34.5407C135.149 32.2647 133.898 31.2949 132.567 31.2949C131.036 31.2949 130.034 32.484 130.034 34.5407Z" fill="#0E0E2C"/>
<path d="M144.127 33.5128V33.3033C144.127 31.7291 143.22 31.1979 142.133 31.1979C140.902 31.1979 140.179 31.8558 140.109 32.9183H138.564C138.713 31.0517 140.388 29.9941 142.118 29.9941C144.556 29.9941 145.657 31.1345 145.637 33.5616V35.5597C145.6 36.6529 145.677 37.747 145.867 38.825H144.371C144.306 38.4299 144.268 38.031 144.256 37.631C143.713 38.518 142.791 39.0297 141.226 39.0297C139.566 39.0297 138.185 38.1329 138.185 36.5393C138.14 34.5119 140.493 33.9173 144.127 33.5128ZM139.8 36.5198C139.8 37.3434 140.443 37.8893 141.51 37.8893C142.911 37.8893 144.242 37.2606 144.242 35.2186V34.6727C141.53 34.9457 139.8 35.3307 139.8 36.5198Z" fill="#0E0E2C"/>
<path d="M149.451 28.0098V30.1834H151.131V31.3579H149.451V36.4897C149.451 37.3913 149.521 37.6155 150.373 37.6155H151.131V38.8388H150.044C148.349 38.8388 147.955 38.4684 147.955 36.6652V31.3579H146.56V30.1834H147.955V28.0098H149.451Z" fill="#0E0E2C"/>
<path d="M154.057 28.9459H152.562V27.1768H154.057V28.9459ZM154.057 38.8391H152.562V30.1837H154.057V38.8391Z" fill="#0E0E2C"/>
<path d="M159.895 39.0444C157.836 39.0444 155.647 37.6798 155.647 34.5412C155.647 31.4027 157.836 30.0381 159.895 30.0381C161.953 30.0381 164.137 31.4076 164.137 34.5412C164.137 37.6749 161.949 39.0444 159.895 39.0444ZM162.542 34.5412C162.542 32.2409 161.241 31.3247 159.895 31.3247C158.549 31.3247 157.243 32.1776 157.243 34.5412C157.243 36.9049 158.544 37.7578 159.895 37.7578C161.246 37.7578 162.542 36.7636 162.542 34.5412Z" fill="#0E0E2C"/>
<path d="M170.089 30.0373C172.227 30.0373 173 31.3872 173 33.3659V38.8389H171.505V33.7996C171.505 32.4692 171.275 31.3093 169.56 31.3093C168.115 31.3093 167.227 32.284 167.227 34.1408V38.8389H165.732V30.1835H167.227V31.4847C167.521 31.0088 167.944 30.6216 168.449 30.3662C168.954 30.1107 169.522 29.9969 170.089 30.0373Z" fill="#0E0E2C"/>
<path d="M59.4511 48.0982V55.5937C59.4511 57.3628 59.1221 58.089 58.6137 58.6348C58.2151 59.0259 57.7362 59.3298 57.2086 59.5264C56.6809 59.723 56.1166 59.8078 55.5529 59.7752C53.5589 59.7752 52.198 58.8736 51.9188 57.124H53.514C53.7084 57.894 54.187 58.4886 55.5678 58.4886C55.8988 58.5122 56.2311 58.4671 56.543 58.3562C56.8549 58.2453 57.1392 58.0712 57.3774 57.8453C57.7064 57.509 57.9556 57.1045 57.9556 55.93V55.1113C57.6801 55.5954 57.2696 55.9931 56.7718 56.258C56.2741 56.5229 55.7096 56.6441 55.1441 56.6074C53.185 56.6074 51.3904 55.0625 51.3904 52.2797C51.3904 49.4969 53.185 47.952 55.1441 47.952C55.7116 47.9172 56.2776 48.0413 56.7755 48.3098C57.2735 48.5782 57.6829 48.9799 57.9556 49.4677V48.0982H59.4511ZM53.0205 52.2797C53.0205 54.2584 54.0574 55.3695 55.513 55.3695C56.849 55.3695 58.0055 54.4826 58.0055 52.2797C58.0055 50.0769 56.839 49.2094 55.513 49.2094C54.0574 49.2094 53.0205 50.3011 53.0205 52.2797Z" fill="#0E0E2C"/>
<path d="M65.1093 49.5657C63.7285 49.5657 63.0355 50.3211 63.0355 52.2169V56.7542H61.54V48.0988H63.0006V49.6096C63.2138 49.1392 63.5638 48.7406 64.007 48.4633C64.4502 48.186 64.967 48.0423 65.4932 48.05C65.6409 48.0406 65.7891 48.0406 65.9368 48.05V49.6096C65.662 49.5807 65.3857 49.5661 65.1093 49.5657Z" fill="#0E0E2C"/>
<path d="M72.5418 51.4279V51.2183C72.5418 49.6442 71.6345 49.1129 70.5478 49.1129C69.3165 49.1129 68.5936 49.7709 68.5238 50.8333H66.9785C67.128 48.9667 68.803 47.9092 70.5328 47.9092C72.9655 47.9092 74.0722 49.0496 74.0522 51.4815V53.4748C74.0151 54.568 74.092 55.662 74.2815 56.74H72.786C72.7216 56.3464 72.6816 55.9493 72.6664 55.5509C72.128 56.433 71.2058 56.9496 69.6405 56.9496C67.9805 56.9496 66.5996 56.048 66.5996 54.4543C66.5597 52.427 68.8927 51.8324 72.5418 51.4279ZM68.2148 54.4397C68.2148 55.2585 68.8578 55.8043 69.9246 55.8043C71.3254 55.8043 72.6564 55.1756 72.6564 53.1336V52.5878C69.9246 52.8607 68.1998 53.2262 68.1998 54.4397H68.2148Z" fill="#0E0E2C"/>
<path d="M80.3737 47.9523C82.5123 47.9523 83.285 49.3072 83.285 51.2858V56.7539H81.7895V51.7196C81.7895 50.3842 81.5602 49.2243 79.8453 49.2243C78.3997 49.2243 77.5124 50.199 77.5124 52.0558V56.7539H76.0168V48.0985H77.5124V49.3997C77.8062 48.9238 78.2291 48.5367 78.7341 48.2812C79.2391 48.0257 79.8066 47.9119 80.3737 47.9523Z" fill="#0E0E2C"/>
<path d="M87.1482 45.915V48.0838H88.8282V49.2583H87.1482V54.3901C87.1482 55.2917 87.2131 55.5159 88.0705 55.5159H88.8282V56.7392H87.7415C86.0466 56.7392 85.6527 56.3688 85.6527 54.5656V49.2729H84.252V48.0984H85.6527V45.915H87.1482Z" fill="#0E0E2C"/>
<path d="M93.2596 49.1959C92.3872 49.1959 91.4002 49.498 91.4002 50.2875C91.4002 50.9796 91.8987 51.3012 92.7511 51.4621L94.0023 51.7008C95.6125 52.0079 97.0282 52.6025 97.0282 54.279C97.0282 55.9555 95.448 56.9643 93.4241 56.9643C91.1061 56.9643 89.79 55.4681 89.6255 53.9573H91.2057C91.2721 54.4808 91.5446 54.9584 91.9653 55.2887C92.386 55.6191 92.9218 55.7761 93.459 55.7264C94.5906 55.7264 95.5128 55.239 95.5128 54.4398C95.5128 53.6405 94.6753 53.197 93.7182 53.007L92.4021 52.7487C91.2057 52.505 89.9096 51.9592 89.9096 50.3509C89.9096 48.8255 91.4899 47.9385 93.449 47.9385C95.4081 47.9385 96.6594 48.9863 96.9385 50.6238H95.3732C95.119 49.5955 94.2965 49.1959 93.2596 49.1959Z" fill="#0E0E2C"/>
<path d="M104.246 49.4678C104.538 48.9773 104.963 48.5757 105.475 48.308C105.986 48.0403 106.564 47.9171 107.143 47.9521C109.167 47.9521 110.926 49.6091 110.926 52.4602C110.926 55.3112 109.167 56.9633 107.143 56.9633C106.564 56.9995 105.985 56.8768 105.474 56.609C104.962 56.3412 104.537 55.939 104.246 55.4476V59.5609H102.751V48.0983H104.246V49.4678ZM109.301 52.4602C109.301 50.3986 108.304 49.2095 106.764 49.2095C105.433 49.2095 104.182 50.1842 104.182 52.4602C104.182 54.7361 105.433 55.7059 106.764 55.7059C108.294 55.7059 109.301 54.5168 109.301 52.4602Z" fill="#0E0E2C"/>
<path d="M116.081 49.5657C114.701 49.5657 114.008 50.3211 114.008 52.2169V56.7542H112.512V48.0988H113.978V49.6096C114.19 49.1384 114.54 48.7391 114.983 48.4616C115.426 48.1842 115.944 48.041 116.47 48.05C116.618 48.0406 116.766 48.0406 116.914 48.05V49.6096C116.637 49.5804 116.36 49.5657 116.081 49.5657Z" fill="#0E0E2C"/>
<path d="M121.724 56.9633C119.665 56.9633 117.477 55.5939 117.477 52.4602C117.477 49.3265 119.665 47.9521 121.724 47.9521C123.783 47.9521 125.966 49.3216 125.966 52.4602C125.966 55.5987 123.778 56.9633 121.724 56.9633ZM124.371 52.4602C124.371 50.1599 123.07 49.2388 121.724 49.2388C120.378 49.2388 119.072 50.0916 119.072 52.4602C119.072 54.8287 120.373 55.6767 121.724 55.6767C123.075 55.6767 124.386 54.6874 124.386 52.4602H124.371Z" fill="#0E0E2C"/>
<path d="M135.094 48.0985V55.594C135.094 57.3631 134.765 58.0893 134.256 58.6351C133.858 59.0262 133.379 59.3301 132.851 59.5267C132.324 59.7233 131.759 59.8081 131.196 59.7755C129.202 59.7755 127.841 58.8739 127.557 57.1243H129.157C129.351 57.8943 129.83 58.4889 131.211 58.4889C131.542 58.5125 131.874 58.4674 132.186 58.3565C132.498 58.2456 132.782 58.0715 133.02 57.8456C133.349 57.5093 133.598 57.1048 133.598 55.9303V55.1115C133.323 55.5965 132.911 55.9947 132.413 56.2597C131.914 56.5246 131.348 56.6453 130.782 56.6077C128.828 56.6077 127.033 55.0628 127.033 52.28C127.033 49.4972 128.828 47.9523 130.782 47.9523C131.35 47.9166 131.917 48.0402 132.416 48.3087C132.915 48.5772 133.325 48.9794 133.598 49.468V48.0985H135.094ZM128.663 52.28C128.663 54.2587 129.695 55.3698 131.156 55.3698C132.492 55.3698 133.648 54.4829 133.648 52.28C133.648 50.0772 132.482 49.2097 131.156 49.2097C129.695 49.2097 128.663 50.3014 128.663 52.28Z" fill="#0E0E2C"/>
<path d="M140.752 49.5657C139.371 49.5657 138.678 50.3211 138.678 52.2169V56.7542H137.183V48.0988H138.643V49.6096C138.856 49.1388 139.206 48.7398 139.649 48.4625C140.092 48.1851 140.609 48.0416 141.136 48.05C141.283 48.0406 141.432 48.0406 141.579 48.05V49.6096C141.305 49.5809 141.028 49.5663 140.752 49.5657Z" fill="#0E0E2C"/>
<path d="M148.17 51.4279V51.2183C148.17 49.6442 147.263 49.1129 146.176 49.1129C144.945 49.1129 144.217 49.7709 144.152 50.8333H142.607C142.756 48.9667 144.431 47.9092 146.161 47.9092C148.594 47.9092 149.695 49.0496 149.68 51.4815V53.4748C149.643 54.568 149.72 55.662 149.91 56.74H148.414C148.352 56.3462 148.314 55.9492 148.3 55.5509C147.756 56.433 146.839 56.9496 145.274 56.9496C143.614 56.9496 142.228 56.048 142.228 54.4543C142.178 52.427 144.531 51.8324 148.17 51.4279ZM143.828 54.4397C143.828 55.2585 144.466 55.8043 145.538 55.8043C146.939 55.8043 148.27 55.1756 148.27 53.1336V52.5878C145.568 52.8607 143.828 53.2262 143.828 54.4397Z" fill="#0E0E2C"/>
<path d="M151.654 56.7543V48.0989H153.149V49.4001C153.413 48.9408 153.801 48.5614 154.27 48.3034C154.74 48.0455 155.273 47.9191 155.811 47.938C157.162 47.938 157.97 48.518 158.364 49.4683C158.679 48.9772 159.122 48.5768 159.648 48.3079C160.173 48.039 160.762 47.9114 161.355 47.938C163.413 47.938 164.216 49.2929 164.216 51.2715V56.7396H162.721V51.7199C162.721 50.3845 162.456 49.2246 160.831 49.2246C159.545 49.2246 158.688 50.1994 158.688 52.0562V56.7543H157.192V51.7199C157.192 50.3845 156.928 49.2246 155.303 49.2246C154.017 49.2246 153.164 50.1994 153.164 52.0562V56.7543H151.654Z" fill="#0E0E2C"/>
</svg>
