<svg width="240" height="84" viewBox="0 0 240 84" fill="none" xmlns="http://www.w3.org/2000/svg">
<path d="M34.0541 30.0616V25.0341C34.0541 24.1436 33.7895 23.2701 33.2915 22.5304C32.7936 21.7906 32.088 21.2131 31.2601 20.8745L0 8V10.7883L27.8459 22.2146C28.1275 22.3369 28.3495 22.5645 28.4661 22.849C28.5828 23.1336 28.5799 23.4522 28.4661 23.7339C28.4121 23.8733 28.3267 24.0013 28.2214 24.1066C28.1162 24.2119 27.9881 24.2972 27.8487 24.3513L0 35.8487V47.0644L16.7809 40.1506L27.8117 44.6944C27.954 44.7513 28.082 44.8367 28.1901 44.9448C28.2982 45.0529 28.3836 45.1809 28.4405 45.3232C28.4974 45.4654 28.5259 45.6162 28.5259 45.767C28.5259 45.9207 28.4917 46.0686 28.432 46.2109C28.3779 46.3503 28.2926 46.4783 28.1873 46.5836C28.082 46.6889 27.954 46.7742 27.8146 46.8283L0 58.2859V76L31.2203 63.1625C32.0454 62.8239 32.7538 62.2492 33.2517 61.5066C33.7496 60.7669 34.0142 59.8934 34.0142 59.0028V47.477C34.0142 46.5836 33.7496 45.713 33.2546 44.9704C32.7567 44.2278 32.051 43.6502 31.2231 43.3116L20.1639 38.7394L31.2231 34.1956C32.0596 33.8741 32.7794 33.308 33.2859 32.5682C33.7923 31.8285 34.0597 30.955 34.0569 30.0587L34.0541 30.0616Z" fill="black"/>
<path d="M64.6569 25.0664L66.9928 33.7442L69.2433 25.0664H71.3744L67.9914 36.8057H66.1791L63.5785 27.3539L61.0691 36.8057H59.2624L55.8738 25.0664H58.0105L60.2611 33.7442L62.6055 25.0664H64.6569V25.0664Z" fill="black"/>
<path d="M77.6166 35.3374C78.288 35.4 78.9623 35.2463 79.5399 34.8964C80.1175 34.5493 80.5699 34.0229 80.8259 33.3998H82.8773C82.3339 35.4284 80.4731 37.0815 77.6137 37.0815C73.9007 37.0815 71.8494 34.4383 71.8494 30.953C71.8494 27.2457 74.3389 24.8643 77.5483 24.8643C81.1304 24.8643 83.2927 27.8773 83.0281 31.5874H74.0174C73.9975 32.0711 74.0771 32.5548 74.2479 33.0072C74.4186 33.4596 74.6803 33.875 75.0161 34.2249C75.3518 34.5749 75.7558 34.8537 76.1997 35.0443C76.6464 35.235 77.1243 35.3346 77.6109 35.3346L77.6166 35.3374ZM80.9255 29.8832C80.843 29.0268 80.4418 28.233 79.8045 27.6525C79.1672 27.075 78.3364 26.7535 77.4743 26.7535C76.6122 26.7535 75.7814 27.0721 75.1441 27.6497C74.5068 28.2273 74.1056 29.0211 74.0202 29.8775L80.9255 29.8832Z" fill="black"/>
<path d="M87.0741 26.9186C87.461 26.2529 88.0272 25.7094 88.7044 25.3481C89.3844 24.9867 90.1497 24.8189 90.9179 24.8701C93.6038 24.8701 95.9425 27.1178 95.9425 30.9787C95.9425 34.8396 93.6066 37.0873 90.9179 37.0873C90.1497 37.1357 89.3815 36.9707 88.7044 36.6093C88.0244 36.248 87.461 35.7046 87.0741 35.0388V36.8114H85.0881V20.9893H87.0741V26.9186ZM93.7802 30.9759C93.7802 28.1876 92.4572 26.5744 90.4172 26.5744C88.6503 26.5744 86.9887 27.8974 86.9887 30.9759C86.9887 34.0544 88.6503 35.3859 90.4172 35.3859C92.4486 35.3859 93.7802 33.7727 93.7802 30.9759Z" fill="black"/>
<path d="M101.977 29.3621H101.647V27.5498H101.912C104.666 27.5498 106.129 26.7901 106.129 24.9066C106.129 23.208 104.732 22.3345 103.044 22.3345C102.615 22.3004 102.179 22.3544 101.773 22.491C101.363 22.6276 100.987 22.8467 100.663 23.134C100.341 23.4214 100.08 23.7713 99.8975 24.1611C99.7155 24.5509 99.613 24.9749 99.5988 25.4073H97.5474C97.7864 22.619 99.7724 20.6758 103.093 20.6758C105.847 20.6758 108.228 21.7655 108.228 24.6875C108.228 25.4898 107.981 26.2723 107.52 26.9295C107.059 27.5867 106.404 28.0847 105.648 28.3549C108.009 29.0947 108.666 30.6624 108.666 32.3211C108.666 35.5077 105.952 37.0527 102.942 37.0527C99.2289 37.0527 97.5218 34.7452 97.3027 32.1021H99.3598C99.5789 34.0453 100.731 35.4082 102.959 35.4082C105.056 35.4082 106.541 34.3185 106.541 32.3553C106.541 30.1019 104.51 29.3621 101.98 29.3621H101.977Z" fill="black"/>
<path d="M61.3452 43.4911H62.395V45.1328H61.4191C60.3835 45.1328 60.2071 45.3689 60.2071 46.5782V47.5284H62.395V49.1047H60.2071V59.1539H58.2411V49.1047H56.6165V47.5284H58.2411V46.6834C58.2098 44.2679 58.7077 43.4883 61.348 43.4883L61.3452 43.4911Z" fill="black"/>
<path d="M68.6404 59.4327C65.9404 59.4327 63.061 57.6004 63.061 53.3838C63.061 49.1673 65.9375 47.335 68.6404 47.335C71.3434 47.335 74.2256 49.1758 74.2256 53.3838C74.2256 57.5919 71.3491 59.4327 68.6404 59.4327ZM72.1286 53.3838C72.1286 50.294 70.4187 49.062 68.6404 49.062C66.8622 49.062 65.1579 50.2086 65.1579 53.3838C65.1579 56.5591 66.8679 57.7057 68.6404 57.7057C70.413 57.7057 72.1286 56.3713 72.1286 53.3838Z" fill="black"/>
<path d="M79.9128 59.4326C77.2128 59.4326 76.197 57.6202 76.197 54.96V47.5283H78.163V54.3767C78.163 56.1692 78.4646 57.7283 80.6071 57.7283C82.4678 57.7283 83.5689 56.4195 83.5689 53.9243V47.5283H85.5349V59.1566H83.5689V57.4865C83.2019 58.1181 82.6641 58.6359 82.0183 58.9774C81.3724 59.3216 80.6441 59.4781 79.9128 59.4297V59.4326Z" fill="black"/>
<path d="M94.0137 47.3347C96.8332 47.3347 97.849 49.1471 97.849 51.8074V59.1593H95.883V52.3906C95.883 50.6038 95.5814 49.0447 93.3337 49.0447C91.4245 49.0447 90.258 50.3535 90.258 52.8487V59.1593H88.292V47.531H90.258V49.278C90.645 48.6407 91.1998 48.12 91.8627 47.7757C92.5256 47.4315 93.2711 47.2778 94.0165 47.3319L94.0137 47.3347Z" fill="black"/>
<path d="M110.544 43.4907V59.1563H108.578V57.4008C108.194 58.0581 107.636 58.5987 106.962 58.9571C106.291 59.3156 105.531 59.4807 104.768 59.4323C102.108 59.4323 99.7922 57.233 99.7922 53.3834C99.7922 49.5339 102.105 47.3346 104.768 47.3346C105.528 47.2862 106.288 47.4512 106.962 47.8097C107.634 48.1682 108.194 48.7059 108.578 49.366V43.4736L110.544 43.4935V43.4907ZM101.938 53.3806C101.938 56.1489 103.249 57.7479 105.266 57.7479C107.016 57.7479 108.661 56.4392 108.661 53.3806C108.661 50.322 107.016 49.0217 105.266 49.0217C103.255 49.0217 101.938 50.6179 101.938 53.3806Z" fill="black"/>
<path d="M120.468 52.0041V51.7224C120.468 49.6084 119.276 48.8943 117.845 48.8943C116.226 48.8943 115.276 49.7792 115.185 51.2046H113.153C113.349 48.698 115.552 47.2754 117.828 47.2754C121.034 47.2754 122.483 48.8061 122.457 52.0667V54.7497C122.409 56.2178 122.508 57.6888 122.758 59.137H120.792C120.707 58.6049 120.656 58.07 120.642 57.5323C119.928 58.7244 118.715 59.4101 116.656 59.4101C114.473 59.4101 112.658 58.2066 112.658 56.0642C112.598 53.3413 115.694 52.5418 120.471 51.9984L120.468 52.0041ZM114.778 56.0443C114.778 57.151 115.623 57.8851 117.025 57.8851C118.866 57.8851 120.619 57.0401 120.619 54.2973V53.5633C117.054 53.9303 114.778 54.4481 114.778 56.0443V56.0443Z" fill="black"/>
<path d="M127.464 44.6123V47.5315H129.672V49.1077H127.464V56.0016C127.464 57.2136 127.556 57.5124 128.677 57.5124H129.672V59.1569H128.244C126.016 59.1569 125.498 58.659 125.498 56.2377V49.1106H123.663V47.5343H125.498V44.6152H127.464V44.6123Z" fill="black"/>
<path d="M133.519 45.8689H131.553V43.4932H133.519V45.8689ZM133.519 59.1559H131.553V47.5305H133.519V59.1559Z" fill="black"/>
<path d="M141.193 59.4327C138.484 59.4327 135.607 57.6004 135.607 53.3838C135.607 49.1673 138.484 47.335 141.193 47.335C143.901 47.335 146.772 49.1758 146.772 53.3838C146.772 57.5919 143.893 59.4327 141.193 59.4327ZM144.672 53.3838C144.672 50.294 142.962 49.062 141.193 49.062C139.423 49.062 137.704 50.2086 137.704 53.3838C137.704 56.5591 139.414 57.7057 141.193 57.7057C142.971 57.7057 144.672 56.3713 144.672 53.3838Z" fill="black"/>
<path d="M154.599 47.334C157.413 47.334 158.429 49.1464 158.429 51.8066V59.1586H156.463V52.3899C156.463 50.6031 156.161 49.0439 153.905 49.0439C152.004 49.0439 150.838 50.3527 150.838 52.8479V59.1586H148.869V47.5303H150.838V49.2772C151.225 48.6371 151.78 48.1164 152.442 47.775C153.108 47.4307 153.854 47.2799 154.599 47.334V47.334Z" fill="black"/>
</svg>
