<svg width="56" height="49" viewBox="0 0 56 49" fill="none" xmlns="http://www.w3.org/2000/svg">
<path d="M55.42 1.00664L54.0214 10.9718C51.2242 10.7387 48.9514 11.2049 47.2032 12.3704C45.4549 13.4776 44.2311 15.1093 43.5318 17.2655C42.8908 19.3634 42.7742 21.811 43.1822 24.6082H55.42V48.3846H31.6436V24.6082C31.6436 16.2166 33.5958 9.86453 37.5003 5.55214C41.4048 1.18147 47.378 -0.333694 55.42 1.00664ZM23.7764 1.00664L22.3778 10.9718C19.5806 10.7387 17.3078 11.2049 15.5596 12.3704C13.8113 13.4776 12.5875 15.1093 11.8882 17.2655C11.2472 19.3634 11.1306 21.811 11.5386 24.6082H23.7764V48.3846H0V24.6082C0 16.2166 1.95223 9.86453 5.85669 5.55214C9.76115 1.18147 15.7344 -0.333694 23.7764 1.00664Z" fill="url(#paint0_linear_3471_845)"/>
<defs>
<linearGradient id="paint0_linear_3471_845" x1="26.948" y1="1.84412" x2="-3.93382" y2="32.3143" gradientUnits="userSpaceOnUse">
<stop stop-color="#7D17FF"/>
<stop offset="1" stop-color="#0085FF"/>
</linearGradient>
</defs>
</svg>
