<svg width="107" height="110" viewBox="0 0 107 110" fill="none" xmlns="http://www.w3.org/2000/svg">
<path d="M94.2276 74.6465L106.271 74.6465L106.271 110L94.2276 110L94.2276 74.6465Z" fill="#84630D"/>
<path d="M0.00136566 -2.98632e-06L34.1609 0L34.1609 12.4646L0.00136457 12.4646L0.00136566 -2.98632e-06Z" fill="#CC5C0A"/>
<path d="M106.271 110L7.62811e-06 0.0146917L0.0142136 -9.28928e-06L37.7355 -5.99158e-06C39.7867 0.000147354 41.7538 0.843596 43.2041 2.3448L104.006 65.2668C104.724 66.0107 105.295 66.894 105.683 67.8661C106.072 68.8382 106.272 69.8801 106.271 70.9322L106.271 110Z" fill="url(#paint0_linear_2239_5860)"/>
<path d="M44.6385 33.7751C43.8918 33.0284 43.4095 32.2212 43.1917 31.3535C42.9774 30.4892 43.0154 29.6181 43.3058 28.74C43.5996 27.8654 44.1337 27.0409 44.9081 26.2665C45.6825 25.4922 46.507 24.9581 47.3816 24.6642C48.2596 24.3738 49.1308 24.3358 49.995 24.5501C50.8627 24.7679 51.6699 25.2502 52.4166 25.9969C53.274 26.8542 53.7804 27.7859 53.936 28.7918C54.095 29.8013 53.9308 30.7882 53.4434 31.7527L51.6285 30.726C51.943 30.1349 52.0606 29.5506 51.9811 28.9733C51.905 28.3926 51.6077 27.8429 51.0892 27.3244C50.6156 26.8508 50.1143 26.5604 49.5854 26.4532C49.0599 26.3495 48.5258 26.41 47.9831 26.6347C47.4403 26.8594 46.9097 27.231 46.3911 27.7496C45.8726 28.2681 45.501 28.7988 45.2763 29.3415C45.0516 29.8842 44.9911 30.4183 45.0948 30.9438C45.202 31.4727 45.4923 31.974 45.9659 32.4476C46.4845 32.9661 47.0341 33.2634 47.6149 33.3395C48.1957 33.4155 48.7799 33.298 49.3676 32.9869L50.3943 34.8018C49.4298 35.2892 48.4429 35.4534 47.4334 35.2944C46.4274 35.1388 45.4958 34.6324 44.6385 33.7751Z" fill="white"/>
<path d="M50.1049 38.9304L57.5719 31.4633L58.9824 32.8738L52.8324 39.0237L56.0474 42.2387L54.7303 43.5558L50.1049 38.9304Z" fill="white"/>
<path d="M59.1326 48.2692C58.3859 47.5225 57.9037 46.7153 57.6859 45.8476C57.4715 44.9834 57.5096 44.1122 57.7999 43.2341C58.0938 42.3595 58.6279 41.535 59.4022 40.7607C60.1766 39.9863 61.0011 39.4522 61.8757 39.1584C62.7538 38.868 63.6249 38.83 64.4892 39.0443C65.3569 39.2621 66.1641 39.7443 66.9108 40.491C67.6575 41.2377 68.138 42.0432 68.3523 42.9074C68.5701 43.7751 68.5321 44.6463 68.2383 45.5209C67.9479 46.399 67.4155 47.2252 66.6411 47.9996C65.8668 48.7739 65.0406 49.3063 64.1625 49.5967C63.2879 49.8905 62.4167 49.9285 61.549 49.7108C60.6848 49.4964 59.8793 49.0159 59.1326 48.2692ZM60.4601 46.9417C60.9268 47.4222 61.4228 47.7144 61.9483 47.8181C62.4738 47.9218 63.0079 47.8578 63.5506 47.6262C64.0968 47.398 64.6292 47.0247 65.1477 46.5061C65.6663 45.9876 66.0362 45.4587 66.2574 44.9194C66.4821 44.3836 66.5426 43.8529 66.4389 43.3275C66.3352 42.802 66.05 42.299 65.5833 41.8185C65.1166 41.338 64.6205 41.0459 64.0951 40.9422C63.5696 40.8385 63.0338 40.9007 62.4876 41.1288C61.9448 41.3605 61.4142 41.7355 60.8957 42.2541C60.3771 42.7726 60.0055 43.2998 59.7808 43.8356C59.5595 44.3749 59.5008 44.9073 59.6045 45.4328C59.7082 45.9582 59.9934 46.4612 60.4601 46.9417Z" fill="white"/>
<path d="M67.2822 56.4188C66.7291 55.8657 66.3263 55.2693 66.074 54.6298C65.8285 53.9903 65.7438 53.3455 65.8199 52.6956C65.9029 52.0457 66.1587 51.4304 66.5873 50.8496L68.2778 52.1045C67.9528 52.6369 67.837 53.1813 67.9304 53.7379C68.0237 54.2945 68.2778 54.7802 68.6926 55.195C68.9242 55.4266 69.1852 55.615 69.4756 55.7602C69.766 55.9054 70.0512 55.9763 70.3312 55.9728C70.6147 55.9728 70.8601 55.8691 71.0676 55.6617C71.1436 55.5857 71.2041 55.501 71.2491 55.4076C71.3009 55.3143 71.332 55.2106 71.3424 55.0965C71.3528 54.9824 71.3372 54.8493 71.2957 54.6972C71.2577 54.5486 71.1886 54.3792 71.0883 54.189L69.7193 51.6793C69.6156 51.4926 69.505 51.2644 69.3875 50.9948C69.2734 50.7286 69.1973 50.4348 69.1593 50.1133C69.1213 49.7918 69.1576 49.4547 69.2682 49.1021C69.3858 48.7495 69.6226 48.3952 69.9786 48.0391C70.4799 47.5378 71.0226 47.2475 71.6069 47.1679C72.1911 47.0884 72.7753 47.1783 73.3595 47.4376C73.9438 47.6969 74.49 48.084 74.9981 48.5991C75.5063 49.1211 75.8779 49.6691 76.113 50.2429C76.3481 50.8168 76.4397 51.4027 76.3878 52.0008C76.3394 52.5954 76.1424 53.1865 75.7967 53.7742L74.0129 52.509C74.1996 52.2117 74.3016 51.9057 74.3188 51.5911C74.3361 51.2765 74.2843 50.9723 74.1633 50.6785C74.0457 50.3881 73.8781 50.1271 73.6603 49.8955C73.446 49.6673 73.2057 49.4893 72.9395 49.3614C72.6802 49.2335 72.4244 49.1713 72.1721 49.1747C71.9232 49.1816 71.7106 49.2732 71.5343 49.4495C71.3718 49.612 71.2888 49.7952 71.2854 49.9992C71.2854 50.1997 71.3303 50.4071 71.4202 50.6215C71.5101 50.8358 71.6138 51.0432 71.7313 51.2437L72.6751 52.8927C72.8168 53.1381 72.962 53.4216 73.1106 53.7431C73.2627 54.0611 73.3699 54.4034 73.4321 54.7698C73.5013 55.1362 73.4823 55.5113 73.3751 55.8951C73.2714 56.2822 73.0311 56.6642 72.6543 57.041C72.2533 57.442 71.8177 57.7082 71.3476 57.8396C70.8843 57.971 70.4125 57.9934 69.932 57.907C69.4549 57.8171 68.9882 57.6408 68.5319 57.3781C68.079 57.1188 67.6625 56.799 67.2822 56.4188Z" fill="white"/>
<path d="M72.2488 61.0743L79.7158 53.6072L84.5902 58.4815L83.2731 59.7986L79.8092 56.3348L78.2121 57.9319L81.0537 60.7735L79.7366 62.0906L76.895 59.249L74.9763 61.1676L78.4402 64.6315L77.1231 65.9486L72.2488 61.0743Z" fill="white"/>
<defs>
<linearGradient id="paint0_linear_2239_5860" x1="54.5968" y1="3.00995" x2="124.27" y2="60.3523" gradientUnits="userSpaceOnUse">
<stop stop-color="#FF4F17"/>
<stop offset="1" stop-color="#FFE600"/>
</linearGradient>
</defs>
</svg>
