<svg width="107" height="110" viewBox="0 0 107 110" fill="none" xmlns="http://www.w3.org/2000/svg">
<path d="M94.2276 74.6465L106.271 74.6465L106.271 110L94.2276 110L94.2276 74.6465Z" fill="#84630D"/>
<path d="M0.00136566 -2.98632e-06L34.1609 0L34.1609 12.4646L0.00136457 12.4646L0.00136566 -2.98632e-06Z" fill="#CC5C0A"/>
<path d="M106.271 110L7.62811e-06 0.0146917L0.0142136 -9.28928e-06L37.7355 -5.99158e-06C39.7867 0.000147354 41.7538 0.843596 43.2041 2.3448L104.006 65.2668C104.724 66.0107 105.295 66.894 105.683 67.8661C106.072 68.8382 106.272 69.8801 106.271 70.9322L106.271 110Z" fill="url(#paint0_linear_2239_5860)"/>
<path d="M40.7494 29.8859C40.0027 29.1392 39.5204 28.332 39.3026 27.4643C39.0883 26.6001 39.1263 25.7289 39.4167 24.8508C39.7105 23.9762 40.2446 23.1517 41.019 22.3774C41.7934 21.603 42.6179 21.0689 43.4925 20.7751C44.3705 20.4847 45.2417 20.4467 46.1059 20.661C46.9736 20.8788 47.7808 21.361 48.5275 22.1077C49.3849 22.9651 49.8913 23.8967 50.0469 24.9027C50.2059 25.9121 50.0417 26.8991 49.5543 27.8636L47.7394 26.8369C48.0539 26.2457 48.1715 25.6615 48.092 25.0842C48.0159 24.5034 47.7186 23.9537 47.2001 23.4352C46.7265 22.9616 46.2252 22.6712 45.6963 22.564C45.1708 22.4603 44.6367 22.5208 44.094 22.7455C43.5512 22.9702 43.0206 23.3419 42.502 23.8604C41.9835 24.379 41.6119 24.9096 41.3872 25.4523C41.1625 25.9951 41.102 26.5292 41.2057 27.0546C41.3129 27.5836 41.6032 28.0848 42.0768 28.5584C42.5954 29.077 43.145 29.3743 43.7258 29.4503C44.3066 29.5264 44.8908 29.4088 45.4785 29.0977L46.5052 30.9126C45.5407 31.4001 44.5538 31.5643 43.5443 31.4052C42.5383 31.2497 41.6067 30.7432 40.7494 29.8859Z" fill="white"/>
<path d="M46.2158 35.0412L53.6828 27.5742L55.0933 28.9846L48.9433 35.1345L52.1583 38.3495L50.8412 39.6666L46.2158 35.0412Z" fill="white"/>
<path d="M55.2435 44.38C54.4968 43.6333 54.0146 42.8261 53.7968 41.9584C53.5824 41.0942 53.6205 40.223 53.9108 39.345C54.2047 38.4704 54.7388 37.6459 55.5132 36.8715C56.2875 36.0971 57.112 35.563 57.9866 35.2692C58.8647 34.9788 59.7358 34.9408 60.6001 35.1551C61.4678 35.3729 62.275 35.8552 63.0217 36.6019C63.7684 37.3486 64.2489 38.154 64.4632 39.0183C64.681 39.886 64.643 40.7571 64.3492 41.6318C64.0588 42.5098 63.5264 43.336 62.752 44.1104C61.9777 44.8848 61.1515 45.4171 60.2734 45.7075C59.3988 46.0014 58.5276 46.0394 57.6599 45.8216C56.7957 45.6073 55.9902 45.1267 55.2435 44.38ZM56.571 43.0526C57.0377 43.5331 57.5337 43.8252 58.0592 43.9289C58.5847 44.0326 59.1188 43.9687 59.6615 43.737C60.2077 43.5089 60.7401 43.1355 61.2586 42.617C61.7772 42.0984 62.1471 41.5695 62.3683 41.0302C62.593 40.4944 62.6535 39.9638 62.5498 39.4383C62.4461 38.9128 62.1609 38.4099 61.6942 37.9293C61.2275 37.4488 60.7314 37.1567 60.206 37.053C59.6805 36.9493 59.1447 37.0115 58.5985 37.2397C58.0557 37.4713 57.5251 37.8464 57.0066 38.3649C56.488 38.8835 56.1164 39.4107 55.8917 39.9465C55.6704 40.4858 55.6117 41.0181 55.7154 41.5436C55.8191 42.0691 56.1043 42.572 56.571 43.0526Z" fill="white"/>
<path d="M63.3931 52.5296C62.84 51.9765 62.4372 51.3802 62.1849 50.7406C61.9394 50.1011 61.8547 49.4564 61.9308 48.8065C62.0138 48.1566 62.2696 47.5412 62.6982 46.9604L64.3887 48.2153C64.0637 48.7477 63.9479 49.2922 64.0413 49.8487C64.1346 50.4053 64.3887 50.891 64.8035 51.3059C65.0351 51.5375 65.2962 51.7259 65.5865 51.8711C65.8769 52.0163 66.1621 52.0871 66.4421 52.0837C66.7256 52.0837 66.971 51.98 67.1785 51.7725C67.2545 51.6965 67.315 51.6118 67.36 51.5185C67.4118 51.4251 67.4429 51.3214 67.4533 51.2073C67.4637 51.0933 67.4481 50.9602 67.4066 50.8081C67.3686 50.6594 67.2995 50.49 67.1992 50.2999L65.8303 47.7901C65.7265 47.6034 65.6159 47.3753 65.4984 47.1056C65.3843 46.8395 65.3082 46.5456 65.2702 46.2241C65.2322 45.9026 65.2685 45.5656 65.3791 45.213C65.4967 44.8603 65.7335 44.506 66.0895 44.1499C66.5908 43.6487 67.1335 43.3583 67.7178 43.2788C68.302 43.1993 68.8862 43.2892 69.4704 43.5484C70.0547 43.8077 70.6009 44.1949 71.109 44.71C71.6172 45.232 71.9888 45.7799 72.2239 46.3538C72.459 46.9276 72.5506 47.5136 72.4987 48.1116C72.4503 48.7062 72.2533 49.2974 71.9076 49.885L70.1238 48.6198C70.3105 48.3225 70.4125 48.0166 70.4297 47.702C70.447 47.3874 70.3952 47.0832 70.2742 46.7893C70.1566 46.4989 69.989 46.2379 69.7712 46.0063C69.5569 45.7782 69.3166 45.6001 69.0504 45.4722C68.7911 45.3443 68.5353 45.2821 68.283 45.2856C68.0341 45.2925 67.8215 45.3841 67.6452 45.5604C67.4827 45.7229 67.3997 45.9061 67.3963 46.11C67.3963 46.3105 67.4412 46.518 67.5311 46.7323C67.621 46.9466 67.7247 47.154 67.8422 47.3545L68.786 49.0035C68.9277 49.249 69.0729 49.5324 69.2215 49.8539C69.3736 50.172 69.4808 50.5142 69.543 50.8806C69.6122 51.2471 69.5932 51.6222 69.486 52.0059C69.3823 52.3931 69.142 52.7751 68.7652 53.1519C68.3642 53.5529 67.9286 53.8191 67.4585 53.9504C66.9952 54.0818 66.5234 54.1043 66.0429 54.0178C65.5658 53.928 65.0991 53.7517 64.6428 53.4889C64.1899 53.2297 63.7734 52.9099 63.3931 52.5296Z" fill="white"/>
<path d="M68.3597 57.1851L75.8267 49.7181L80.7011 54.5924L79.384 55.9095L75.9201 52.4456L74.323 54.0427L77.1646 56.8843L75.8475 58.2014L73.0059 55.3598L71.0872 57.2784L74.5511 60.7423L73.234 62.0594L68.3597 57.1851Z" fill="white"/>
<path d="M75.3137 64.45L83.0919 56.6719L85.6051 59.1851C85.6662 59.2462 85.7902 59.3739 85.9772 59.568C86.1642 59.7622 86.3349 59.9582 86.4895 60.1559C87.0395 60.8572 87.352 61.6054 87.4269 62.4005C87.5019 63.1957 87.3753 63.9838 87.0473 64.7648C86.7192 65.5459 86.2257 66.2659 85.5667 66.9249C84.9077 67.5839 84.1877 68.0774 83.4067 68.4055C82.6256 68.7335 81.8375 68.86 81.0423 68.7851C80.2472 68.7101 79.499 68.3977 78.7977 67.8477C78.6 67.6931 78.404 67.5224 78.2098 67.3354C78.0157 67.1484 77.888 67.0244 77.8269 66.9633L75.3137 64.45ZM78.185 64.5558L79.2097 65.5805C79.3068 65.6776 79.4398 65.807 79.6088 65.9688C79.7814 66.127 79.9468 66.26 80.105 66.3678C80.5114 66.6374 80.9449 66.754 81.4055 66.7176C81.8697 66.6849 82.3268 66.5442 82.7768 66.2956C83.2304 66.0506 83.6426 65.7426 84.0135 65.3717C84.4024 64.9828 84.7176 64.5597 84.959 64.1026C85.204 63.649 85.3393 63.1937 85.3649 62.7367C85.3904 62.2797 85.272 61.8552 85.0096 61.4632C84.9054 61.3014 84.7724 61.136 84.6106 60.967C84.4488 60.798 84.3194 60.665 84.2223 60.5679L83.1976 59.5432L78.185 64.5558Z" fill="white"/>
<defs>
<linearGradient id="paint0_linear_2239_5860" x1="54.5968" y1="3.00995" x2="124.27" y2="60.3523" gradientUnits="userSpaceOnUse">
<stop stop-color="#FF4F17"/>
<stop offset="1" stop-color="#FFE600"/>
</linearGradient>
</defs>
</svg>
