<svg width="278" height="107" viewBox="0 0 278 107" fill="none" xmlns="http://www.w3.org/2000/svg">
<g clip-path="url(#clip0_2164_5895)">
<path d="M125.217 47.5379L139.324 33.4302L153.445 47.5511L161.66 39.336L139.324 17L117.001 39.3228L125.217 47.5379ZM103 53.3376L111.215 45.1225L119.43 53.3376L111.215 61.5527L103 53.3376ZM125.217 59.1372L139.324 73.2449L153.445 59.1239L161.66 67.3258L139.324 89.6618L117.001 67.3391L116.988 67.3258L125.217 59.1372ZM159.245 53.3376L167.46 45.1225L175.675 53.3376L167.46 61.5527L159.245 53.3376Z" fill="#F3BA2F"/>
<path d="M147.659 53.3365L139.325 45.002L133.167 51.1599L132.463 51.8633L131.004 53.3232L130.99 53.3365L131.004 53.3497L139.325 61.671L147.659 53.3365Z" fill="#F3BA2F"/>
</g>
<defs>
<clipPath id="clip0_2164_5895">
<rect width="278" height="107" fill="white"/>
</clipPath>
</defs>
</svg>
