<svg width="278" height="107" viewBox="0 0 278 107" fill="none" xmlns="http://www.w3.org/2000/svg">
<path d="M63.197 31.249C57.9568 31.249 53.7426 35.4274 53.7059 40.623V51.0144C52.7165 51.087 51.7271 51.1234 50.701 51.1234C49.6749 51.1234 48.6855 51.1597 47.6961 51.2324V40.623C47.6228 35.5 43.4086 31.358 38.205 31.358C33.0014 31.358 28.7872 35.4637 28.7139 40.623V65.475C28.7872 70.5981 33.0014 74.7401 38.205 74.7401C43.4086 74.7401 47.6228 70.6344 47.6961 65.475V55.0837C48.6855 55.011 49.6749 54.9747 50.701 54.9747C51.7271 54.9747 52.7165 54.9384 53.7059 54.8657V65.475C53.7792 70.5981 57.9934 74.7401 63.197 74.7401C68.4007 74.7401 72.6148 70.6344 72.6881 65.475V40.623C72.6515 35.4637 68.4007 31.249 63.197 31.249ZM38.205 35.1004C41.2832 35.1004 43.8117 37.571 43.8117 40.623V51.632C41.0267 52.0317 38.3149 52.7947 35.7498 53.8847C34.6504 54.357 33.5877 54.9747 32.6349 55.7377V40.623C32.5983 37.571 35.1268 35.1004 38.205 35.1004ZM43.7751 65.475C43.7751 68.5271 41.2832 71.0341 38.1683 71.0341C35.0535 71.0341 32.5616 68.5634 32.5616 65.475V62.968C32.5616 60.7517 34.3206 58.6807 37.2522 57.3727C39.341 56.5007 41.5031 55.8467 43.7384 55.4834L43.7751 65.475ZM63.197 70.9977C60.1188 70.9977 57.5903 68.5271 57.5903 65.475V54.466C60.3753 54.0664 63.0871 53.3034 65.6523 52.2134C66.7516 51.741 67.8143 51.1234 68.7671 50.3604V65.475C68.7671 68.5271 66.2752 70.9977 63.197 70.9977ZM64.0765 48.689C61.9877 49.561 59.8257 50.215 57.5903 50.5784V40.623C57.5903 37.571 60.0822 35.064 63.197 35.064C66.3119 35.064 68.8037 37.5347 68.8037 40.623V43.13C68.7671 45.31 67.0081 47.4174 64.0765 48.689Z" fill="url(#paint0_linear_2032_11951)"/>
<path d="M196.805 47.0909C192.627 47.0909 188.816 49.5979 187.24 53.4492C185.628 57.3006 186.507 61.6969 189.476 64.6399C192.444 67.5829 196.915 68.4549 200.762 66.8562C204.61 65.2576 207.175 61.5152 207.175 57.3732C207.175 51.7052 202.521 47.0909 196.805 47.0909ZM196.805 64.3129C193.983 64.3129 191.418 62.6416 190.319 60.0256C189.219 57.4459 189.842 54.4302 191.821 52.4682C193.836 50.4699 196.841 49.8885 199.443 50.9422C202.045 52.0322 203.767 54.5392 203.767 57.3732C203.804 61.2246 200.652 64.3129 196.805 64.3129ZM133.738 47.1635C133.299 47.1635 132.859 47.3452 132.566 47.6359C132.236 47.9629 132.089 48.3625 132.089 48.7985V49.7795C127.948 46.0009 121.535 46.1825 117.651 50.1792C113.73 54.1759 113.73 60.5342 117.651 64.5309C121.572 68.5276 127.985 68.7092 132.089 64.9306V65.9116C132.089 66.8199 132.859 67.5829 133.775 67.5829C134.691 67.5829 135.461 66.8199 135.461 65.9116V48.8349C135.461 48.3989 135.277 47.9629 134.984 47.6722C134.618 47.3452 134.215 47.1635 133.738 47.1635ZM125.053 64.3129C122.232 64.3129 119.667 62.6052 118.567 60.0256C117.468 57.4459 118.091 54.4302 120.07 52.4682C122.085 50.4699 125.09 49.8885 127.692 50.9785C130.294 52.0685 132.016 54.5755 132.016 57.4096C132.016 59.2626 131.283 61.0066 129.964 62.3146C128.645 63.6226 126.922 64.3129 125.053 64.3129ZM151.548 48.7622C151.548 49.6705 150.778 50.4335 149.862 50.4335C149.826 50.4335 149.789 50.4335 149.752 50.4335C149.716 50.4335 149.679 50.4335 149.642 50.4335C147.773 50.4335 146.014 51.1602 144.695 52.4682C143.376 53.7762 142.643 55.5202 142.643 57.3732C142.57 57.7002 142.606 63.0049 142.606 66.1296C142.533 66.5656 142.313 66.9652 141.947 67.2196C141.58 67.4739 141.141 67.5829 140.701 67.5466C139.858 67.4012 139.272 66.6746 139.272 65.8026V48.7985C139.272 48.3262 139.455 47.8902 139.785 47.5995C140.115 47.2725 140.554 47.1272 141.031 47.1272C141.947 47.1999 142.643 47.9629 142.606 48.8712V49.7432C144.512 47.9992 147.004 47.0182 149.606 47.0182H149.826C150.265 47.0182 150.705 47.1999 150.998 47.4905C151.401 47.8902 151.548 48.3262 151.548 48.7622ZM227.403 55.7019V65.9116C227.403 66.8199 226.634 67.5829 225.718 67.5829C224.802 67.5829 224.032 66.8199 224.032 65.9116V64.2402V55.7019C224.032 54.2485 223.409 52.8679 222.346 51.8869C221.284 50.9059 219.855 50.3972 218.389 50.5062C215.604 50.6879 213.515 53.1222 213.515 55.8836V57.9182V64.2402V65.9116C213.515 66.8199 212.745 67.5829 211.829 67.5829C210.913 67.5829 210.144 66.8199 210.144 65.9116V48.8349C210.144 47.9265 210.913 47.1635 211.829 47.1635C212.745 47.1635 213.515 47.9265 213.515 48.8349V48.9802C214.907 47.8902 216.593 47.2362 218.352 47.1635C220.697 47.0545 223.006 47.8902 224.728 49.4889C226.451 51.0875 227.403 53.3765 227.403 55.7019ZM111.238 40.1875V65.9479C111.201 66.8199 110.469 67.5466 109.589 67.5466C108.71 67.5466 107.977 66.8562 107.94 65.9479V54.2849H90.6435V65.9842C90.6069 66.8562 89.874 67.5829 88.9945 67.5829C88.115 67.5829 87.3821 66.8926 87.3455 65.9842V40.1875C87.3821 39.3155 88.115 38.5889 88.9945 38.5889C89.874 38.5889 90.6069 39.2792 90.6435 40.1875V51.4145H107.94V40.1875C107.977 39.3155 108.71 38.5889 109.589 38.5889C110.469 38.5889 111.201 39.2792 111.238 40.1875ZM183.393 56.5012V65.9116C183.393 66.8199 182.623 67.5829 181.707 67.5829C180.791 67.5829 180.021 66.8199 180.021 65.9116V57.3369V55.0842C180.058 53.4129 179.178 51.8142 177.713 50.9785C176.247 50.1065 174.414 50.1065 172.949 50.9785C171.483 51.8505 170.603 53.4129 170.64 55.0842V65.9116C170.64 66.8199 169.87 67.5829 168.954 67.5829C168.038 67.5829 167.269 66.8199 167.269 65.9116V57.3369V55.0842C167.305 53.4129 166.426 51.8142 164.96 50.9785C163.494 50.1065 161.662 50.1065 160.196 50.9785C158.73 51.8505 157.851 53.4129 157.887 55.0842V65.9116C157.887 66.8199 157.118 67.5829 156.202 67.5829C155.286 67.5829 154.516 66.8199 154.516 65.9116V48.8712C154.516 47.9992 155.176 47.2362 156.055 47.1999C156.935 47.1272 157.741 47.7812 157.851 48.6532C161.369 46.1099 166.279 46.8365 168.918 50.2519C171.006 47.5269 174.634 46.4732 177.896 47.5632C181.157 48.6532 183.356 51.7052 183.356 55.1205L183.393 56.5012ZM248.328 49.5979L237.005 73.9049C236.565 74.6679 235.612 74.9586 234.806 74.5952C234 74.2319 233.633 73.3236 233.926 72.4879L236.968 65.9479L229.346 49.5979C229.016 49.0529 229.016 48.3625 229.382 47.8175C229.749 47.2725 230.372 46.9819 231.031 47.0545C231.691 47.1272 232.241 47.5632 232.424 48.1809L238.837 61.9149L245.25 48.1809C245.47 47.5632 246.019 47.1272 246.642 47.0545C247.302 46.9819 247.925 47.2725 248.291 47.8175C248.658 48.3262 248.658 49.0165 248.328 49.5979Z" fill="#555B68"/>
<defs>
<linearGradient id="paint0_linear_2032_11951" x1="31.4926" y1="72.095" x2="69.4605" y2="33.5904" gradientUnits="userSpaceOnUse">
<stop stop-color="#00AEE9"/>
<stop offset="1" stop-color="#69FABD"/>
</linearGradient>
</defs>
</svg>
