<svg width="278" height="107" viewBox="0 0 278 107" fill="none" xmlns="http://www.w3.org/2000/svg">
<path d="M92.5775 50.8H76.3399V45.4H96.7812V40H76.3024C74.8802 40 73.5162 40.565 72.5106 41.5706C71.5049 42.5763 70.9399 43.9403 70.9399 45.3625V50.8375C70.9399 52.2597 71.5049 53.6237 72.5106 54.6294C73.5162 55.635 74.8802 56.2 76.3024 56.2H92.54V61.6H71.3262V67H92.5775C93.9997 67 95.3637 66.435 96.3693 65.4294C97.375 64.4237 97.94 63.0597 97.94 61.6375V56.1625C97.94 54.7403 97.375 53.3763 96.3693 52.3706C95.3637 51.365 93.9997 50.8 92.5775 50.8V50.8Z" fill="black"/>
<path d="M124.022 40H107.724C107.02 40 106.323 40.1387 105.672 40.4083C105.022 40.6778 104.431 41.0729 103.933 41.5709C103.436 42.0689 103.041 42.6601 102.772 43.3106C102.503 43.9612 102.365 44.6585 102.365 45.3625V61.6375C102.365 62.3416 102.503 63.0388 102.772 63.6894C103.041 64.34 103.436 64.9311 103.933 65.4292C104.431 65.9272 105.022 66.3222 105.672 66.5918C106.323 66.8613 107.02 67 107.724 67H124.022C125.444 67 126.808 66.435 127.813 65.4294C128.819 64.4237 129.384 63.0597 129.384 61.6375V45.3625C129.384 43.9403 128.819 42.5763 127.813 41.5706C126.808 40.565 125.444 40 124.022 40V40ZM123.984 61.6H107.784V45.4H123.984V61.6Z" fill="black"/>
<path d="M181.059 40H165.166C163.744 40 162.38 40.565 161.374 41.5706C160.369 42.5763 159.804 43.9403 159.804 45.3625V67H165.204V58.1275H181.021V67H186.421V45.3625C186.422 44.6582 186.283 43.9606 186.014 43.3098C185.745 42.6589 185.35 42.0676 184.852 41.5695C184.354 41.0715 183.762 40.6765 183.111 40.4072C182.461 40.1379 181.763 39.9995 181.059 40V40ZM181.021 52.7275H165.204V45.4H181.021V52.7275Z" fill="black"/>
<path d="M244.284 40H228.395C227.69 39.9985 226.992 40.1361 226.34 40.405C225.688 40.6738 225.095 41.0686 224.596 41.5667C224.097 42.0648 223.701 42.6564 223.431 43.3078C223.161 43.9591 223.021 44.6574 223.021 45.3625V67H228.421V58.1275H244.246V67H249.647V45.3625C249.647 43.9403 249.082 42.5763 248.076 41.5707C247.07 40.565 245.706 40 244.284 40V40ZM244.246 52.7275H228.433V45.4H244.246V52.7275Z" fill="black"/>
<path d="M212.825 61.6H210.665L202.925 42.25C202.66 41.5861 202.203 41.0168 201.611 40.6157C201.019 40.2146 200.321 40.0002 199.606 40H194.799C193.851 40 192.942 40.3765 192.272 41.0467C191.602 41.7169 191.225 42.6259 191.225 43.5738V67H196.625V45.4H198.785L206.521 64.75C206.785 65.4139 207.242 65.9834 207.833 66.3845C208.424 66.7857 209.122 67.0001 209.836 67H214.644C215.592 67 216.501 66.6235 217.171 65.9533C217.841 65.2831 218.218 64.3741 218.218 63.4263V40H212.818L212.825 61.6Z" fill="black"/>
<path d="M139.568 40H134.168V61.6375C134.168 63.0597 134.733 64.4237 135.739 65.4294C136.745 66.435 138.109 67 139.531 67H155.768V61.6H139.568V40Z" fill="black"/>
<path fill-rule="evenodd" clip-rule="evenodd" d="M32.6112 60.5875C32.7071 60.4837 32.8229 60.4003 32.9518 60.3423C33.0807 60.2843 33.2199 60.2529 33.3612 60.25H56.9262C57.0259 60.2514 57.1231 60.2816 57.2061 60.3369C57.289 60.3923 57.3542 60.4704 57.3939 60.5619C57.4335 60.6534 57.4458 60.7544 57.4294 60.8527C57.4129 60.9511 57.3684 61.0426 57.3012 61.1163L52.3062 66.6625C52.2104 66.7664 52.0945 66.8498 51.9656 66.9078C51.8368 66.9658 51.6975 66.9971 51.5562 67H27.9762C27.8765 66.9986 27.7793 66.9684 27.6964 66.9131C27.6134 66.8578 27.5482 66.7797 27.5086 66.6882C27.469 66.5967 27.4566 66.4956 27.4731 66.3973C27.4895 66.2989 27.534 66.2074 27.6012 66.1338L32.6112 60.5875ZM57.3237 55.99C57.3909 56.0637 57.4354 56.1552 57.4519 56.2535C57.4683 56.3519 57.456 56.4529 57.4164 56.5444C57.3767 56.6359 57.3115 56.714 57.2286 56.7694C57.1456 56.8247 57.0484 56.8549 56.9487 56.8563L33.3762 56.875C33.2349 56.8721 33.0957 56.8407 32.9668 56.7827C32.8379 56.7248 32.7221 56.6413 32.6262 56.5375L27.5937 51.01C27.5265 50.9363 27.482 50.8448 27.4656 50.7465C27.4491 50.6481 27.4615 50.5471 27.5011 50.4556C27.5407 50.3641 27.6059 50.286 27.6889 50.2307C27.7718 50.1753 27.869 50.1452 27.9687 50.1438L51.5412 50.125C51.6825 50.1279 51.8218 50.1593 51.9506 50.2173C52.0795 50.2753 52.1954 50.3587 52.2912 50.4625L57.3237 55.99ZM32.6112 40.3375C32.7071 40.2337 32.8229 40.1503 32.9518 40.0923C33.0807 40.0343 33.2199 40.0029 33.3612 40L56.9412 40.0188C57.0409 40.0202 57.1381 40.0503 57.2211 40.1057C57.304 40.161 57.3692 40.2391 57.4089 40.3306C57.4485 40.4221 57.4608 40.5231 57.4444 40.6215C57.4279 40.7198 57.3834 40.8113 57.3162 40.885L52.3062 46.4125C52.2104 46.5163 52.0945 46.5997 51.9656 46.6577C51.8368 46.7157 51.6975 46.7471 51.5562 46.75H27.9762C27.8765 46.7486 27.7793 46.7184 27.6964 46.6631C27.6134 46.6078 27.5482 46.5297 27.5086 46.4381C27.469 46.3466 27.4566 46.2456 27.4731 46.1473C27.4895 46.0489 27.534 45.9574 27.6012 45.8838L32.6112 40.3375Z" fill="url(#paint0_linear_2164_5893)"/>
<defs>
<linearGradient id="paint0_linear_2164_5893" x1="28.37" y1="67.5888" x2="56.5475" y2="39.4113" gradientUnits="userSpaceOnUse">
<stop stop-color="#9945FF"/>
<stop offset="0.14" stop-color="#8A53F4"/>
<stop offset="0.42" stop-color="#6377D6"/>
<stop offset="0.79" stop-color="#24B0A7"/>
<stop offset="0.99" stop-color="#00D18C"/>
<stop offset="1" stop-color="#00D18C"/>
</linearGradient>
</defs>
</svg>
