<svg width="278" height="107" viewBox="0 0 278 107" fill="none" xmlns="http://www.w3.org/2000/svg">
<g clip-path="url(#clip0_2164_5894)">
<path d="M127.402 53.1733C126.26 52.8826 125.183 52.3818 124.227 51.6968L125.613 48.6383C126.436 49.2221 127.347 49.6707 128.312 49.9672C129.336 50.3047 130.408 50.4757 131.487 50.4734C132.375 50.531 133.263 50.3527 134.059 49.9566C134.31 49.8249 134.52 49.6278 134.667 49.3863C134.815 49.1449 134.893 48.8681 134.895 48.5856C134.902 48.3842 134.861 48.184 134.777 48.001C134.692 47.8179 134.566 47.657 134.408 47.531C134.031 47.2307 133.6 47.0052 133.138 46.8665C132.63 46.6978 131.932 46.5185 131.021 46.3181C129.904 46.0595 128.801 45.7391 127.719 45.3584C126.865 45.0418 126.104 44.5159 125.507 43.8292C124.864 43.0351 124.536 42.0328 124.586 41.0133C124.579 40.026 124.87 39.0592 125.423 38.2396C126.044 37.3469 126.917 36.6572 127.931 36.2569C129.232 35.7386 130.626 35.491 132.027 35.5292C133.14 35.5286 134.249 35.6632 135.329 35.93C136.326 36.1666 137.28 36.558 138.155 37.0901L136.864 40.1907C135.382 39.3166 133.696 38.844 131.974 38.8197C131.092 38.7615 130.212 38.9515 129.434 39.3681C129.184 39.5229 128.978 39.7388 128.835 39.9954C128.692 40.252 128.618 40.5407 128.619 40.834C128.618 41.1199 128.703 41.3996 128.863 41.6366C129.024 41.8736 129.252 42.057 129.519 42.1629C130.45 42.5477 131.418 42.8374 132.408 43.0277C133.526 43.2864 134.628 43.6068 135.71 43.9874C136.584 44.2906 137.367 44.8095 137.986 45.4955C138.633 46.2867 138.954 47.2931 138.885 48.3114C138.893 49.2937 138.598 50.2547 138.039 51.064C137.403 51.9542 136.52 52.6397 135.498 53.0361C134.194 53.5556 132.796 53.8032 131.392 53.7638C130.041 53.7559 128.697 53.557 127.402 53.1733V53.1733Z" fill="#DD1438"/>
<path d="M144.728 51.6537C143.988 50.8553 143.419 49.9154 143.055 48.891C142.691 47.8667 142.54 46.7793 142.611 45.695V35.8447H146.696V45.5474C146.696 48.7113 148.009 50.2721 150.633 50.2721C151.175 50.3062 151.718 50.2208 152.223 50.0221C152.728 49.8234 153.182 49.5163 153.555 49.1226C154.332 48.099 154.709 46.8277 154.613 45.5474V35.8447H158.656V45.695C158.725 46.7791 158.572 47.8658 158.209 48.8898C157.845 49.9138 157.277 50.8539 156.539 51.6537C155.75 52.3828 154.821 52.9454 153.808 53.3079C152.795 53.6703 151.719 53.8251 150.644 53.7629C149.566 53.8286 148.486 53.6756 147.469 53.313C146.452 52.9504 145.519 52.3859 144.728 51.6537V51.6537Z" fill="#DD1438"/>
<path d="M174.056 36.6259C175.138 37.0817 176.062 37.8445 176.712 38.8195C177.351 39.8356 177.675 41.0168 177.644 42.2154C177.671 43.4102 177.347 44.587 176.712 45.6008C176.07 46.5853 175.144 47.3535 174.056 47.805C172.768 48.3468 171.379 48.6092 169.981 48.5749H166.425V53.4262H162.329V35.8454H169.97C171.372 35.8129 172.765 36.079 174.056 36.6259V36.6259ZM172.553 44.4723C172.877 44.1981 173.133 43.8523 173.3 43.4624C173.468 43.0725 173.541 42.6492 173.516 42.226C173.543 41.7995 173.47 41.3725 173.303 40.9789C173.136 40.5854 172.879 40.236 172.553 39.9585C171.746 39.371 170.756 39.0871 169.759 39.157H166.425V45.2633H169.737C170.74 45.3413 171.738 45.0609 172.553 44.4723V44.4723Z" fill="#DD1438"/>
<path d="M192.832 53.4365L189.424 48.5324H185.666V53.4365H181.581V35.8452H189.223C190.621 35.8142 192.01 36.0802 193.298 36.6256C194.38 37.0814 195.304 37.8443 195.954 38.8193C196.593 39.8353 196.917 41.0166 196.885 42.2152C196.935 43.4027 196.613 44.5762 195.962 45.5723C195.311 46.5685 194.365 47.3378 193.255 47.7731L197.256 53.4365H192.832ZM191.773 39.9583C190.966 39.3708 189.976 39.0868 188.979 39.1568H185.645V45.2947H188.979C189.976 45.3646 190.966 45.0807 191.773 44.4932C192.097 44.2136 192.352 43.8639 192.519 43.4708C192.686 43.0778 192.76 42.6519 192.737 42.2257C192.766 41.8009 192.697 41.3751 192.533 40.9816C192.37 40.5882 192.117 40.2379 191.795 39.9583H191.773Z" fill="#DD1438"/>
<path d="M213.608 49.6604H205.416L203.85 53.436H199.669L207.533 35.8447H211.565L219.482 53.436H215.249L213.608 49.6604ZM212.327 46.5703L209.523 39.8734L206.781 46.5703H212.327Z" fill="#DD1438"/>
<path d="M127.624 70.5958C126.585 70.0542 125.717 69.2365 125.116 68.2334C124.519 67.2021 124.206 66.0329 124.206 64.8427C124.206 63.6526 124.519 62.4833 125.116 61.4521C125.717 60.449 126.585 59.6313 127.624 59.0897C128.74 58.528 129.973 58.2354 131.223 58.2354C132.473 58.2354 133.705 58.528 134.821 59.0897C135.868 59.6452 136.744 60.4741 137.355 61.4875C137.965 62.5009 138.288 63.6607 138.288 64.8427C138.288 66.0248 137.965 67.1846 137.355 68.198C136.744 69.2114 135.868 70.0402 134.821 70.5958C133.705 71.1575 132.473 71.4501 131.223 71.4501C129.973 71.4501 128.74 71.1575 127.624 70.5958V70.5958ZM133.276 68.4127C133.879 68.0715 134.377 67.5717 134.715 66.9678C135.052 66.3154 135.228 65.5923 135.228 64.8585C135.228 64.1248 135.052 63.4017 134.715 62.7493C134.381 62.1402 133.882 61.6362 133.276 61.2939C132.645 60.9551 131.939 60.7778 131.223 60.7778C130.506 60.7778 129.8 60.9551 129.169 61.2939C128.563 61.6362 128.065 62.1402 127.73 62.7493C127.393 63.4017 127.217 64.1248 127.217 64.8585C127.217 65.5923 127.393 66.3154 127.73 66.9678C128.068 67.5717 128.566 68.0715 129.169 68.4127C129.798 68.7599 130.504 68.942 131.223 68.942C131.941 68.942 132.648 68.7599 133.276 68.4127Z" fill="#DD1438"/>
<path d="M149.501 71.2397L147.024 67.675H144.336V71.2397H141.373V58.4575H146.929C147.942 58.4308 148.949 58.6214 149.882 59.0165C150.643 59.3684 151.289 59.9278 151.745 60.6301C152.108 61.1685 152.347 61.7805 152.444 62.422C152.542 63.0634 152.495 63.7184 152.308 64.3398C152.12 64.9611 151.797 65.5334 151.361 66.0153C150.925 66.4972 150.388 66.8767 149.787 67.1266L152.666 71.2397H149.501ZM148.75 61.4422C148.162 61.016 147.442 60.8105 146.717 60.8621H144.336V65.3232H146.76C147.486 65.3718 148.206 65.1625 148.792 64.7326C149.02 64.5242 149.198 64.2668 149.311 63.98C149.425 63.6932 149.472 63.3843 149.448 63.0768C149.466 62.7692 149.412 62.4617 149.291 62.1781C149.169 61.8946 148.984 61.6428 148.75 61.4422V61.4422Z" fill="#DD1438"/>
<path d="M164.636 68.4971H158.677L157.545 71.2392H154.497L160.212 58.457H163.144L168.88 71.2392H165.705L164.636 68.4971ZM163.694 66.2402L161.662 61.3467L159.63 66.2402H163.694Z" fill="#DD1438"/>
<path d="M173.135 70.6059C172.101 70.0656 171.237 69.2519 170.637 68.2541C170.041 67.217 169.728 66.0427 169.728 64.8476C169.728 63.6526 170.041 62.4782 170.637 61.4412C171.235 60.4395 172.1 59.622 173.135 59.0788C174.149 58.5726 175.259 58.2873 176.393 58.2418C177.526 58.1963 178.656 58.3918 179.708 58.8151C180.587 59.1898 181.363 59.7683 181.972 60.5025L180.067 62.2532C179.678 61.777 179.185 61.3949 178.626 61.1356C178.067 60.8762 177.456 60.7463 176.839 60.7556C176.101 60.7409 175.371 60.919 174.722 61.2724C174.113 61.6141 173.611 62.118 173.272 62.7278C172.929 63.3781 172.749 64.102 172.749 64.8371C172.749 65.5721 172.929 66.2961 173.272 66.9463C173.615 67.5506 174.116 68.0502 174.722 68.3912C175.37 68.7482 176.1 68.9301 176.839 68.9185C177.458 68.9269 178.07 68.7944 178.63 68.5312C179.189 68.2681 179.681 67.8811 180.067 67.3998L181.972 69.1505C181.362 69.8906 180.581 70.473 179.697 70.8485C178.743 71.2476 177.715 71.4451 176.681 71.4285C175.448 71.4565 174.228 71.1735 173.135 70.6059V70.6059Z" fill="#DD1438"/>
<path d="M184.714 58.457H187.73V68.8241H194.081V71.2392H184.682L184.714 58.457Z" fill="#DD1438"/>
<path d="M206.474 68.8663V71.2392H196.536V58.457H206.231V60.83H199.489V63.6036H205.448V65.9027H199.489V68.8663H206.474Z" fill="#DD1438"/>
<path d="M211.079 71.0385C210.255 70.8373 209.479 70.4792 208.792 69.9838L209.798 67.7585C210.397 68.1856 211.062 68.5132 211.767 68.7288C212.498 68.9659 213.262 69.0869 214.032 69.0874C214.678 69.1342 215.325 69.0067 215.905 68.7183C216.095 68.617 216.253 68.4643 216.359 68.2777C216.466 68.0911 216.518 67.8782 216.508 67.6636C216.511 67.5195 216.479 67.3769 216.417 67.2469C216.355 67.1169 216.263 67.0032 216.148 66.9148C215.881 66.6932 215.571 66.5282 215.238 66.4297C214.868 66.3031 214.36 66.1766 213.725 66.0289C212.911 65.8443 212.108 65.6119 211.322 65.3329C210.701 65.104 210.151 64.7189 209.724 64.215C209.252 63.6398 209.011 62.911 209.047 62.169C209.043 61.4513 209.257 60.7492 209.66 60.1546C210.115 59.5112 210.748 59.013 211.481 58.7203C212.426 58.3458 213.438 58.1664 214.455 58.193C215.265 58.1892 216.072 58.2885 216.857 58.4883C217.582 58.6567 218.275 58.9379 218.911 59.3215L217.99 61.5678C216.921 60.913 215.698 60.5494 214.444 60.5132C213.805 60.4681 213.165 60.6072 212.603 60.914C212.418 61.0215 212.265 61.1755 212.159 61.3607C212.053 61.5458 211.998 61.7555 211.999 61.9686C212.001 62.1823 212.067 62.3905 212.19 62.5656C212.313 62.7408 212.487 62.8746 212.687 62.9494C213.371 63.2287 214.08 63.4406 214.804 63.5822C215.618 63.7654 216.421 63.9979 217.207 64.2783C217.823 64.4909 218.376 64.8534 218.816 65.3329C219.285 65.9006 219.523 66.6234 219.482 67.3578C219.489 68.0694 219.275 68.7656 218.868 69.351C218.406 69.9955 217.766 70.4935 217.027 70.7853C216.079 71.1642 215.063 71.3437 214.042 71.3127C213.046 71.3625 212.048 71.2702 211.079 71.0385Z" fill="#DD1438"/>
<path d="M88.1562 84C105.061 84 118.765 70.3447 118.765 53.5C118.765 36.6553 105.061 23 88.1562 23C71.2514 23 57.5474 36.6553 57.5474 53.5C57.5474 70.3447 71.2514 84 88.1562 84Z" fill="#DD1438"/>
<path d="M105.514 38.6293C104.743 36.7955 103.605 35.1376 102.169 33.7569C100.716 32.4118 99.0311 31.3399 97.195 30.593C95.9468 30.0991 94.6361 29.7797 93.3001 29.6438C90.7649 29.294 88.1821 29.5937 85.7955 30.5147C83.4088 31.4356 81.2971 32.9474 79.6596 34.9074C78.022 36.8673 76.9128 39.2107 76.4364 41.7164C75.9601 44.2221 76.1325 46.8074 76.9373 49.2283V49.3022C75.8198 49.9878 74.7954 50.8137 73.8891 51.7595C72.4955 53.2017 71.3893 54.8945 70.6292 56.7479C69.9138 58.6163 69.5549 60.6014 69.5708 62.6011C69.5759 64.5879 69.9939 66.5521 70.7986 68.3699C71.5697 70.2005 72.7078 71.8549 74.1431 73.2318C75.5934 74.5804 77.2794 75.6527 79.1176 76.3957C80.8027 77.0643 82.5959 77.4217 84.4095 77.4503H84.6741C87.0639 77.4708 89.4243 76.9259 91.5616 75.8604C93.6988 74.7949 95.5518 73.2393 96.9683 71.3214C98.3848 69.4034 99.3243 67.1779 99.7096 64.8278C100.095 62.4776 99.915 60.0699 99.1848 57.8025C100.354 57.0908 101.422 56.2252 102.36 55.2292C103.77 53.7816 104.881 52.0725 105.63 50.1986C106.351 48.3318 106.711 46.3456 106.689 44.3454C106.695 42.3799 106.295 40.4342 105.514 38.6293V38.6293ZM92.157 38.2707C92.7058 38.3586 93.2422 38.5109 93.7552 38.7242C94.4821 39.0286 95.13 39.4938 95.6497 40.0847C96.1447 40.6657 96.5318 41.3299 96.7928 42.0463C97.0257 42.7574 97.1366 43.5026 97.1209 44.2505C97.0321 45.6363 96.4372 46.9418 95.4486 47.9206L92.3264 39.705C92.2176 39.2345 92.1608 38.7535 92.157 38.2707V38.2707ZM95.872 49.1018C95.9689 49.0157 96.0608 48.9242 96.1472 48.8276C96.7508 48.1973 97.219 47.4508 97.5231 46.6339C97.8186 45.8237 97.9552 44.9644 97.9253 44.1028C97.9152 43.2589 97.7202 42.4275 97.3537 41.6666C96.986 40.9356 96.4916 40.2751 95.8932 39.7155C95.2967 39.1792 94.6036 38.7605 93.8505 38.4816C93.3037 38.299 92.7333 38.196 92.157 38.1758C92.1814 37.222 92.4277 36.2869 92.8767 35.4443C93.5426 35.5646 94.19 35.7702 94.803 36.056C95.8683 36.5464 96.8308 37.2335 97.6395 38.0809C98.3958 38.9558 99.0068 39.9456 99.4494 41.0127C99.8373 42.077 100.027 43.2027 100.01 44.3348C100.029 45.4634 99.7785 46.5802 99.28 47.5937C98.8713 48.6186 98.2301 49.5354 97.4067 50.2724C97.1357 50.5045 96.8531 50.7227 96.56 50.9263L95.872 49.1018ZM96.9304 52.0231C97.3573 51.7007 97.7605 51.3483 98.137 50.9685C99.8538 49.1112 100.793 46.6699 100.762 44.145C100.741 42.9145 100.467 41.7012 99.9574 40.5803C99.4624 39.468 98.7417 38.4697 97.8406 37.6485C96.9712 36.8359 95.9498 36.2016 94.8348 35.7818C94.1923 35.5636 93.5291 35.4116 92.8556 35.3283C93.1365 34.8015 93.4931 34.3183 93.914 33.894C94.235 33.5722 94.5898 33.2858 94.9724 33.0397C95.2755 33.1419 95.5723 33.2616 95.8614 33.3983C97.2782 33.9934 98.5544 34.8771 99.6081 35.9927C100.702 37.108 101.565 38.4267 102.148 39.8737C102.691 41.2984 102.964 42.811 102.953 44.3348C102.892 45.8377 102.57 47.3187 102 48.7116C101.381 50.0429 100.524 51.2509 99.4705 52.2762C98.9181 52.8222 98.3077 53.3066 97.6501 53.7211L96.9304 52.0231ZM81.0544 73.8962C80.811 73.8013 80.5676 73.7169 80.3347 73.6009C78.917 73.0133 77.6427 72.1284 76.5986 71.0065C75.5447 69.8985 74.7146 68.5988 74.1537 67.1782C73.61 65.7538 73.3372 64.241 73.3493 62.7171C73.4142 61.2092 73.7438 59.7243 74.323 58.3298C74.9355 56.9947 75.7935 55.7856 76.8526 54.7652C77.3627 54.2568 77.9229 53.801 78.5249 53.4047L79.1811 55.1132C78.8066 55.3971 78.4529 55.7073 78.1227 56.0413C76.4276 57.909 75.505 60.3468 75.5402 62.8647C75.5656 64.0958 75.8429 65.3088 76.3551 66.4294C76.8468 67.5406 77.5681 68.5361 78.4719 69.3507C79.3386 70.1669 80.3607 70.8016 81.4778 71.2174C82.0584 71.4219 82.6574 71.5702 83.2665 71.6604C82.9774 72.1629 82.6214 72.6241 82.2081 73.0314C81.8597 73.3601 81.4764 73.6501 81.065 73.8962H81.0544ZM81.499 70.9854C80.4544 70.4816 79.5111 69.7918 78.7154 68.95C77.9648 68.0768 77.3576 67.0908 76.9161 66.0286C76.5274 64.961 76.3373 63.8316 76.3551 62.696C76.3379 61.5676 76.5881 60.4511 77.0854 59.4372C77.4737 58.4117 78.0971 57.4907 78.9059 56.7479C79.1306 56.5441 79.3674 56.3539 79.615 56.1784L80.3241 58.024C80.2659 58.075 80.2127 58.1315 80.1654 58.1927C79.5573 58.8196 79.0885 59.567 78.7895 60.3864C78.4929 61.1927 78.3563 62.0487 78.3873 62.9069C78.3977 63.7496 78.5889 64.5802 78.9482 65.3431C79.3233 66.0724 79.8209 66.7322 80.4194 67.2942C81.0127 67.8322 81.7069 68.2479 82.4621 68.5176C82.96 68.6905 83.4806 68.79 84.0074 68.8129C83.9617 69.764 83.7051 70.6933 83.2559 71.5338C82.6556 71.4145 82.0701 71.2306 81.5095 70.9854H81.499ZM84.0074 68.7496C83.5123 68.6625 83.0267 68.5283 82.5574 68.3488C81.8353 68.0416 81.1943 67.5724 80.684 66.9778C80.1875 66.3979 79.8003 65.7333 79.5409 65.0162C79.308 64.3087 79.1971 63.567 79.2128 62.8226C79.3076 61.4704 79.8815 60.1958 80.8322 59.2263L83.8909 67.2942C83.9834 67.7736 84.0224 68.2617 84.0074 68.7496V68.7496ZM71.3913 68.2223C70.7468 66.4506 70.4173 64.5805 70.4175 62.696C70.5018 60.8264 70.9212 58.987 71.6559 57.2646C72.4125 55.5578 73.4903 54.0113 74.8311 52.7086C75.6289 51.9265 76.5213 51.2463 77.4876 50.6837L77.9851 51.9809C77.2102 52.4718 76.4992 53.0563 75.8683 53.7211C74.7317 54.9118 73.8463 56.3175 73.2646 57.8552C72.7128 59.3909 72.4404 61.0123 72.4602 62.6433C72.5225 64.2623 72.8812 65.8564 73.5186 67.3469C74.1771 68.8163 75.1194 70.1422 76.2916 71.2491C77.4474 72.331 78.7975 73.1861 80.2712 73.7697C80.4756 73.8475 80.6841 73.9144 80.8957 73.97C79.9343 74.5461 78.8416 74.8691 77.7205 74.9087C77.3142 74.9112 76.9092 74.8652 76.5139 74.7716C75.7841 74.2474 75.1039 73.6579 74.4818 73.0103C73.1356 71.6403 72.084 70.0111 71.3913 68.2223V68.2223ZM104.657 49.7662C103.9 51.4761 102.822 53.0262 101.481 54.3328C100.638 55.1585 99.6879 55.8679 98.6556 56.442L98.1687 55.1554C99.0029 54.6391 99.7676 54.0189 100.444 53.3098C101.582 52.1221 102.471 50.7202 103.059 49.1862C103.609 47.6466 103.882 46.0219 103.863 44.3876C103.799 42.7687 103.441 41.1748 102.804 39.6839C101.478 36.7492 99.0556 34.4452 96.0519 33.2612C95.778 33.159 95.4989 33.071 95.2158 32.9975C96.5995 32.1849 98.2408 31.9248 99.8092 32.2698C100.538 32.7877 101.215 33.3739 101.831 34.0205C103.179 35.3931 104.231 37.0262 104.921 38.8191C105.565 40.5874 105.894 42.4539 105.895 44.3348C105.811 46.2044 105.391 48.0439 104.657 49.7662V49.7662Z" fill="white"/>
</g>
<defs>
<clipPath id="clip0_2164_5894">
<rect width="278" height="107" fill="white"/>
</clipPath>
</defs>
</svg>
