<svg width="278" height="107" viewBox="0 0 278 107" fill="none" xmlns="http://www.w3.org/2000/svg">
<path d="M62.1963 38.8633V32.9098C62.1972 31.8538 61.8837 30.8215 61.2957 29.9443C60.7077 29.0672 59.8719 28.385 58.8948 27.9846L21.9287 12.7422V16.0437L54.8558 29.5745C55.189 29.719 55.4522 29.9885 55.5888 30.325C55.7254 30.6615 55.7246 31.0382 55.5865 31.3741C55.5215 31.5396 55.4231 31.6899 55.2974 31.8156C55.1717 31.9413 55.0213 32.0397 54.8558 32.1047L21.9287 45.7167V58.9971L41.7716 50.811L54.8152 56.1895C54.9823 56.2575 55.1341 56.3582 55.2617 56.4857C55.3892 56.6133 55.49 56.765 55.5581 56.932C55.6262 57.0991 55.6602 57.278 55.6581 57.4584C55.656 57.6388 55.6178 57.8169 55.5459 57.9823C55.4809 58.1478 55.3825 58.2981 55.2568 58.4239C55.1311 58.5496 54.9807 58.648 54.8152 58.713L21.9287 72.2843V93.257L58.8474 78.0552C59.8245 77.6548 60.6604 76.9726 61.2483 76.0955C61.8363 75.2183 62.1498 74.186 62.1489 73.13V59.4842C62.1503 58.4273 61.837 57.3939 61.2491 56.5156C60.6611 55.6373 59.8251 54.9538 58.8474 54.5523L45.7699 49.1399L58.8474 43.7615C59.8372 43.382 60.6879 42.71 61.2861 41.835C61.8844 40.9599 62.2019 39.9233 62.1963 38.8633Z" fill="#0E0E2C"/>
<path d="M92.6409 17.6534C92.831 17.3218 93.111 17.0506 93.4485 16.871C93.7861 16.6915 94.1674 16.6109 94.5487 16.6386C95.9018 16.6386 97.0384 17.7549 97.0384 19.6695C97.0384 21.5841 95.8815 22.7004 94.5487 22.7004C94.1674 22.7281 93.7861 22.6476 93.4485 22.468C93.111 22.2885 92.831 22.0173 92.6409 21.6856V24.4594H91.6599V16.7334H92.6409V17.6534ZM95.9695 19.6831C95.9695 18.33 95.2929 17.4978 94.2984 17.4978C93.4257 17.4978 92.6003 18.1744 92.6003 19.6831C92.6003 21.1917 93.4257 21.8683 94.2984 21.8683C95.3471 21.8547 95.983 21.0564 95.983 19.6695L95.9695 19.6831Z" fill="#0E0E2C"/>
<path d="M100.495 17.7211C99.5883 17.7211 99.1418 18.2285 99.1418 19.5072V22.5787H98.1541V16.7334H99.1147V17.755C99.2555 17.438 99.4865 17.1696 99.7789 16.9831C100.071 16.7966 100.412 16.7004 100.759 16.7063H101.05V17.755C100.847 17.7414 100.657 17.7211 100.495 17.7211Z" fill="#0E0E2C"/>
<path d="M104.264 22.7005C102.911 22.7005 101.477 21.7804 101.477 19.6696C101.477 17.5588 102.911 16.6387 104.264 16.6387C105.617 16.6387 107.058 17.5588 107.058 19.6696C107.058 21.7804 105.624 22.7005 104.264 22.7005ZM106.009 19.6696C106.009 18.1203 105.157 17.5046 104.264 17.5046C103.371 17.5046 102.525 18.0797 102.525 19.6696C102.525 21.2594 103.378 21.8345 104.264 21.8345C105.15 21.8345 106.009 21.1647 106.009 19.6696Z" fill="#0E0E2C"/>
<path d="M109.107 16.7333V22.8221C109.107 24.0331 108.857 24.4255 107.754 24.4255H107.254V23.6002H107.524C108.032 23.6002 108.127 23.4513 108.127 22.8424V16.7333H109.107ZM109.107 15.9012H108.12V14.7104H109.107V15.9012Z" fill="#0E0E2C"/>
<path d="M113.044 21.8346C113.377 21.8667 113.712 21.7906 113.998 21.6176C114.285 21.4445 114.508 21.1837 114.634 20.874H115.642C115.48 21.4304 115.133 21.9147 114.658 22.2469C114.183 22.5791 113.609 22.7392 113.031 22.7006C111.191 22.7006 110.176 21.3475 110.176 19.663C110.145 19.2751 110.195 18.885 110.323 18.5176C110.451 18.1502 110.654 17.8135 110.92 17.5289C111.185 17.2444 111.507 17.0183 111.865 16.8651C112.222 16.7118 112.608 16.6348 112.997 16.6388C114.776 16.6388 115.845 18.134 115.703 19.9742H111.245C111.236 20.2158 111.275 20.4568 111.362 20.6826C111.448 20.9085 111.58 21.1145 111.748 21.2883C111.916 21.4621 112.117 21.6001 112.34 21.694C112.563 21.7879 112.803 21.8357 113.044 21.8346ZM114.688 19.1285C114.661 18.6923 114.468 18.2829 114.15 17.9836C113.831 17.6844 113.41 17.5178 112.973 17.5178C112.536 17.5178 112.116 17.6844 111.797 17.9836C111.478 18.2829 111.286 18.6923 111.258 19.1285H114.688Z" fill="#0E0E2C"/>
<path d="M120.731 18.6812C120.656 18.3396 120.465 18.0347 120.189 17.8196C119.914 17.6046 119.571 17.4929 119.222 17.504C118.349 17.504 117.544 18.1806 117.544 19.6486C117.544 21.1167 118.356 21.8339 119.222 21.8339C119.575 21.8458 119.922 21.7361 120.204 21.523C120.486 21.31 120.686 21.0065 120.771 20.6635H121.793C121.661 21.2501 121.331 21.773 120.857 22.1431C120.383 22.5132 119.796 22.7076 119.195 22.6931C117.524 22.6931 116.489 21.4279 116.489 19.6554C116.489 17.8829 117.585 16.6313 119.303 16.6313C119.885 16.6204 120.452 16.8195 120.899 17.1922C121.346 17.565 121.644 18.0863 121.739 18.6609L120.731 18.6812Z" fill="#0E0E2C"/>
<path d="M124.079 15.2725V16.7338H125.182V17.5253H124.079V20.9824C124.079 21.5846 124.126 21.7402 124.688 21.7402H125.182V22.5791H124.471C123.355 22.5791 123.118 22.3355 123.118 21.1178V17.5253H122.198V16.7338H123.085V15.2725H124.079Z" fill="#0E0E2C"/>
<path d="M130.817 17.4713C130.242 17.4713 129.592 17.6811 129.592 18.2088C129.592 18.7365 129.917 18.8853 130.479 19.0003L131.304 19.1627C132.359 19.3657 133.293 19.7648 133.293 20.8946C133.293 22.0245 132.251 22.701 130.925 22.701C130.328 22.746 129.736 22.5609 129.27 22.1835C128.805 21.8062 128.501 21.2652 128.422 20.6714H129.457C129.498 21.0261 129.677 21.3503 129.956 21.5733C130.235 21.7963 130.59 21.9001 130.945 21.8621C131.69 21.8621 132.299 21.5373 132.299 20.9961C132.299 20.4549 131.744 20.164 131.115 20.0354L130.249 19.8595C129.457 19.6972 128.591 19.3251 128.591 18.2426C128.591 17.1601 129.633 16.6189 130.925 16.6189C131.469 16.5716 132.011 16.7335 132.439 17.0717C132.868 17.4098 133.152 17.8988 133.232 18.4388H132.204C132.137 18.1325 131.957 17.8628 131.7 17.6834C131.443 17.5041 131.127 17.4284 130.817 17.4713Z" fill="#0E0E2C"/>
<path d="M136.209 22.7C134.856 22.7 134.349 21.7934 134.349 20.4606V16.7329H135.33V20.1697C135.33 21.0695 135.485 21.8475 136.554 21.8475C137.488 21.8475 138.036 21.171 138.036 19.9397V16.7329H139.024V22.5782H138.036V21.7461C137.851 22.0599 137.582 22.3157 137.259 22.4843C136.936 22.6529 136.573 22.7276 136.209 22.7Z" fill="#0E0E2C"/>
<path d="M141.439 17.6534C141.629 17.3218 141.909 17.0506 142.246 16.871C142.584 16.6915 142.965 16.6109 143.346 16.6386C144.699 16.6386 145.836 17.7549 145.836 19.6695C145.836 21.5841 144.672 22.7004 143.346 22.7004C142.965 22.7281 142.584 22.6476 142.246 22.468C141.909 22.2885 141.629 22.0173 141.439 21.6856V24.4594H140.451V16.7334H141.439V17.6534ZM144.76 19.6831C144.76 18.33 144.084 17.4978 143.096 17.4978C142.217 17.4978 141.391 18.1744 141.391 19.6831C141.391 21.1917 142.217 21.8683 143.096 21.8683C144.104 21.8547 144.733 21.0564 144.733 19.6695L144.76 19.6831Z" fill="#0E0E2C"/>
<path d="M147.914 17.6534C148.104 17.3218 148.384 17.0506 148.722 16.871C149.059 16.6915 149.441 16.6109 149.822 16.6386C151.175 16.6386 152.312 17.7549 152.312 19.6695C152.312 21.5841 151.155 22.7004 149.822 22.7004C149.441 22.7281 149.059 22.6476 148.722 22.468C148.384 22.2885 148.104 22.0173 147.914 21.6856V24.4594H146.926V16.7334H147.914V17.6534ZM151.236 19.6831C151.236 18.33 150.559 17.4978 149.572 17.4978C148.692 17.4978 147.874 18.1744 147.874 19.6831C147.874 21.1917 148.692 21.8683 149.572 21.8683C150.58 21.8547 151.236 21.0564 151.236 19.6695V19.6831Z" fill="#0E0E2C"/>
<path d="M155.863 22.7005C154.51 22.7005 153.069 21.7804 153.069 19.6696C153.069 17.5588 154.504 16.6387 155.863 16.6387C156.671 16.6387 157.445 16.9594 158.016 17.5304C158.587 18.1013 158.908 18.8757 158.908 19.6831C158.908 20.4905 158.587 21.2649 158.016 21.8358C157.445 22.4068 156.671 22.7275 155.863 22.7275V22.7005ZM157.589 19.6696C157.589 18.1203 156.736 17.5046 155.85 17.5046C154.964 17.5046 154.104 18.0797 154.104 19.6696C154.104 21.2594 154.957 21.8345 155.85 21.8345C156.743 21.8345 157.589 21.1647 157.589 19.6696Z" fill="#0E0E2C"/>
<path d="M162.101 17.7214C161.194 17.7214 160.747 18.2288 160.747 19.5075V22.5789H159.753V16.7337H160.72V17.7552C160.859 17.4367 161.089 17.1667 161.382 16.9799C161.675 16.7931 162.017 16.698 162.364 16.7066H162.655V17.7552C162.452 17.7417 162.263 17.7214 162.101 17.7214Z" fill="#0E0E2C"/>
<path d="M165.07 15.2725V16.7338H166.18V17.5253H165.07V20.9824C165.07 21.5846 165.118 21.7402 165.679 21.7402H166.18V22.5791H165.463C164.346 22.5791 164.11 22.3355 164.11 21.1178V17.5253H163.19V16.7338H164.11V15.2725H165.07Z" fill="#0E0E2C"/>
<path d="M169.495 21.8346C169.829 21.8661 170.164 21.7897 170.451 21.6169C170.738 21.444 170.963 21.1836 171.091 20.8739H172.106C171.944 21.4304 171.597 21.9147 171.122 22.2469C170.647 22.5791 170.073 22.7391 169.495 22.7006C167.655 22.7006 166.64 21.3475 166.64 19.6629C166.61 19.2747 166.661 18.8845 166.79 18.5171C166.919 18.1497 167.122 17.813 167.388 17.5286C167.654 17.2442 167.977 17.0183 168.335 16.8651C168.692 16.7119 169.078 16.6348 169.468 16.6388C171.24 16.6388 172.316 18.134 172.174 19.9742H167.736C167.725 20.2129 167.762 20.4513 167.845 20.6753C167.929 20.8993 168.056 21.1042 168.22 21.2778C168.385 21.4515 168.582 21.5902 168.801 21.6859C169.02 21.7816 169.256 21.8322 169.495 21.8346ZM171.146 19.1285C171.146 18.6727 170.965 18.2356 170.642 17.9134C170.32 17.5911 169.883 17.4101 169.427 17.4101C168.971 17.4101 168.534 17.5911 168.212 17.9134C167.89 18.2356 167.709 18.6727 167.709 19.1285H171.146Z" fill="#0E0E2C"/>
<path d="M178.311 14.7104V22.5786H177.323V21.7059C177.133 22.0375 176.853 22.3087 176.515 22.4883C176.178 22.6678 175.796 22.7484 175.415 22.7207C174.062 22.7207 172.925 21.6179 172.925 19.6898C172.925 17.7616 174.082 16.6589 175.415 16.6589C175.796 16.6312 176.178 16.7117 176.515 16.8913C176.853 17.0708 177.133 17.342 177.323 17.6737V14.7104H178.311ZM174.001 19.6695C174.001 21.0225 174.678 21.8547 175.665 21.8547C176.545 21.8547 177.364 21.1782 177.364 19.6695C177.364 18.1608 176.545 17.4843 175.665 17.4843C174.657 17.4843 174.001 18.2826 174.001 19.6695Z" fill="#0E0E2C"/>
<path d="M183.372 17.6534C183.562 17.3217 183.842 17.0505 184.18 16.871C184.517 16.6914 184.899 16.6109 185.28 16.6386C186.633 16.6386 187.77 17.7549 187.77 19.6695C187.77 21.5841 186.613 22.7004 185.28 22.7004C184.899 22.7281 184.517 22.6475 184.18 22.468C183.842 22.2884 183.562 22.0172 183.372 21.6856V22.5786H182.384V14.7104H183.372V17.6534ZM186.701 19.683C186.701 18.3299 186.024 17.4978 185.03 17.4978C184.15 17.4978 183.332 18.1743 183.332 19.683C183.332 21.1917 184.15 21.8682 185.03 21.8682C186.038 21.8547 186.68 21.0564 186.68 19.6695L186.701 19.683Z" fill="#0E0E2C"/>
<path d="M190.914 22.8089C190.494 24.0808 190.19 24.4597 188.884 24.4597H188.37V23.6343H188.776C189.453 23.6343 189.737 23.5937 189.994 22.6804L190.061 22.5789L187.957 16.7539H189.053L190.535 21.2529L191.976 16.7539H193.004L190.914 22.8089Z" fill="#0E0E2C"/>
<path d="M99.9815 36.5957L102.37 45.4787L104.67 36.5957H106.848L103.391 48.611H101.537L98.8787 38.9365L96.3146 48.611H94.4677L91.0038 36.5957H93.189L95.4892 45.4787L97.8842 36.5957H99.9815Z" fill="#0E0E2C"/>
<path d="M113.227 47.1104C113.914 47.1741 114.604 47.0161 115.194 46.6593C115.785 46.3025 116.245 45.7659 116.508 45.1282H118.606C118.051 47.2051 116.15 48.8965 113.227 48.8965C109.432 48.8965 107.335 46.1903 107.335 42.625C107.335 38.8296 109.878 36.394 113.16 36.394C116.82 36.394 119.032 39.4791 118.761 43.2744H109.554C109.534 43.7699 109.614 44.2643 109.789 44.728C109.965 45.1918 110.232 45.6154 110.575 45.9735C110.918 46.3316 111.329 46.6169 111.785 46.8122C112.241 47.0076 112.731 47.109 113.227 47.1104ZM116.61 41.529C116.525 40.6528 116.117 39.8395 115.465 39.2476C114.814 38.6556 113.965 38.3272 113.085 38.3264C112.205 38.3255 111.355 38.6523 110.703 39.243C110.05 39.8337 109.64 40.6462 109.554 41.5222L116.61 41.529Z" fill="#0E0E2C"/>
<path d="M122.896 38.4904C123.292 37.8102 123.869 37.2536 124.563 36.8832C125.258 36.5127 126.041 36.343 126.827 36.3932C129.573 36.3932 131.962 38.6934 131.962 42.6444C131.962 46.5954 129.573 48.8956 126.827 48.8956C126.041 48.9457 125.258 48.776 124.563 48.4056C123.869 48.0351 123.292 47.4786 122.896 46.7983V48.6114H120.866V32.4219H122.896V38.4904ZM129.749 42.6444C129.749 39.7894 128.396 38.1386 126.312 38.1386C124.506 38.1386 122.808 39.4917 122.808 42.6444C122.808 45.797 124.506 47.1569 126.312 47.1569C128.389 47.1569 129.749 45.5061 129.749 42.6444Z" fill="#0E0E2C"/>
<path d="M138.131 40.9937H137.793V39.14H138.064C140.878 39.14 142.373 38.362 142.373 36.4338C142.373 34.6951 140.946 33.8021 139.221 33.8021C138.78 33.7671 138.338 33.8217 137.919 33.9625C137.501 34.1034 137.115 34.3276 136.786 34.6216C136.456 34.9156 136.19 35.2734 136.003 35.6732C135.815 36.0731 135.711 36.5067 135.696 36.948H133.599C133.842 34.093 135.872 32.104 139.268 32.104C142.082 32.104 144.518 33.2203 144.518 36.2106C144.519 37.0321 144.266 37.8338 143.793 38.5059C143.321 39.1781 142.653 39.6878 141.879 39.9654C144.295 40.7231 144.964 42.3265 144.964 44.0246C144.964 47.2855 142.191 48.8686 139.112 48.8686C135.317 48.8686 133.572 46.5075 133.348 43.8013H135.452C135.676 45.7904 136.853 47.184 139.133 47.184C141.277 47.184 142.793 46.0678 142.793 44.0584C142.793 41.7514 140.716 40.9937 138.131 40.9937Z" fill="#0E0E2C"/>
<path d="M156.505 32.4219H157.588V34.12H156.58C155.511 34.12 155.328 34.3635 155.328 35.6151V36.5961H157.588V38.2266H155.328V48.6114H153.299V38.2266H151.621V36.5961H153.299V35.7234C153.265 33.227 153.779 32.4219 156.505 32.4219Z" fill="#0E0E2C"/>
<path d="M164.035 48.8965C161.248 48.8965 158.278 47.0022 158.278 42.6453C158.278 38.2884 161.248 36.394 164.035 36.394C166.823 36.394 169.799 38.2951 169.799 42.6453C169.799 46.9954 166.829 48.8965 164.035 48.8965ZM167.634 42.6453C167.634 39.452 165.869 38.1801 164.035 38.1801C162.202 38.1801 160.443 39.364 160.443 42.6453C160.443 45.9265 162.209 47.1104 164.035 47.1104C165.862 47.1104 167.634 45.7303 167.634 42.6453Z" fill="#0E0E2C"/>
<path d="M175.672 48.8952C172.885 48.8952 171.836 47.0212 171.836 44.2744V36.5957H173.866V43.6723C173.866 45.526 174.177 47.1362 176.389 47.1362C178.311 47.1362 179.447 45.7831 179.447 43.2055V36.5957H181.477V48.611H179.447V46.8858C179.067 47.5389 178.513 48.073 177.846 48.428C177.179 48.7829 176.426 48.9447 175.672 48.8952Z" fill="#0E0E2C"/>
<path d="M190.224 36.3929C193.133 36.3929 194.182 38.2669 194.182 41.0137V48.6112H192.152V41.6158C192.152 39.7688 191.841 38.1587 189.521 38.1587C187.552 38.1587 186.348 39.5118 186.348 42.0894V48.6112H184.318V36.5959H186.348V38.4022C186.746 37.7426 187.319 37.2059 188.003 36.8513C188.687 36.4968 189.456 36.3381 190.224 36.3929Z" fill="#0E0E2C"/>
<path d="M207.287 32.4226V48.6122H205.257V46.7991C204.862 47.4793 204.284 48.0359 203.59 48.4063C202.896 48.7768 202.112 48.9465 201.327 48.8963C198.58 48.8963 196.192 46.6232 196.192 42.6451C196.192 38.6671 198.58 36.3939 201.327 36.3939C202.112 36.3438 202.896 36.5135 203.59 36.8839C204.284 37.2544 204.862 37.8109 205.257 38.4912V32.4023L207.287 32.4226ZM198.404 42.6451C198.404 45.5069 199.757 47.1576 201.841 47.1576C203.647 47.1576 205.345 45.8046 205.345 42.6451C205.345 39.4857 203.647 38.1394 201.841 38.1394C199.764 38.1394 198.404 39.7901 198.404 42.6451Z" fill="#0E0E2C"/>
<path d="M217.529 41.2176V40.9267C217.529 38.7415 216.298 38.0041 214.823 38.0041C213.152 38.0041 212.171 38.9174 212.076 40.3922H209.979C210.182 37.8011 212.455 36.333 214.802 36.333C218.111 36.333 219.606 37.9161 219.579 41.2853V44.0591C219.528 45.5767 219.633 47.0954 219.89 48.5919H217.86C217.772 48.0434 217.72 47.4897 217.705 46.9344C216.967 48.1657 215.716 48.876 213.591 48.876C211.338 48.876 209.464 47.6312 209.464 45.4189C209.404 42.6045 212.597 41.7791 217.529 41.2176ZM211.656 45.3919C211.656 46.5352 212.529 47.2929 213.977 47.2929C215.878 47.2929 217.684 46.4202 217.684 43.5855V42.8278C214.004 43.2066 211.656 43.7411 211.656 45.3919Z" fill="#0E0E2C"/>
<path d="M224.755 33.5791V36.5965H227.035V38.2269H224.755V45.3509C224.755 46.6025 224.85 46.9137 226.007 46.9137H227.035V48.6118H225.56C223.26 48.6118 222.725 48.0976 222.725 45.5944V38.2269H220.831V36.5965H222.725V33.5791H224.755Z" fill="#0E0E2C"/>
<path d="M231.006 34.8777H228.977V32.4219H231.006V34.8777ZM231.006 48.6114H228.977V36.5961H231.006V48.6114Z" fill="#0E0E2C"/>
<path d="M238.929 48.8965C236.135 48.8965 233.165 47.0022 233.165 42.6453C233.165 38.2884 236.135 36.394 238.929 36.394C241.723 36.394 244.686 38.2951 244.686 42.6453C244.686 46.9954 241.716 48.8965 238.929 48.8965ZM242.521 42.6453C242.521 39.452 240.755 38.1801 238.929 38.1801C237.102 38.1801 235.329 39.364 235.329 42.6453C235.329 45.9265 237.095 47.1104 238.929 47.1104C240.762 47.1104 242.521 45.7303 242.521 42.6453Z" fill="#0E0E2C"/>
<path d="M252.763 36.3934C255.665 36.3934 256.714 38.2674 256.714 41.0141V48.6117H254.684V41.6163C254.684 39.7693 254.373 38.1591 252.046 38.1591C250.084 38.1591 248.88 39.5122 248.88 42.0898V48.6117H246.85V36.5963H248.88V38.4027C249.278 37.742 249.852 37.2046 250.538 36.85C251.223 36.4953 251.993 36.3373 252.763 36.3934Z" fill="#0E0E2C"/>
<path d="M102.613 61.4658V71.871C102.613 74.3268 102.166 75.3348 101.476 76.0926C100.935 76.6355 100.285 77.0574 99.5692 77.3303C98.8531 77.6032 98.0872 77.7209 97.3222 77.6757C94.616 77.6757 92.7691 76.4241 92.3902 73.9953H94.5551C94.819 75.0642 95.4685 75.8896 97.3425 75.8896C97.7917 75.9223 98.2427 75.8597 98.6659 75.7058C99.0892 75.5519 99.4751 75.3102 99.7983 74.9966C100.245 74.5298 100.583 73.9682 100.583 72.3378V71.2012C100.209 71.8733 99.652 72.4254 98.9765 72.7931C98.301 73.1608 97.5349 73.329 96.7674 73.2782C94.1086 73.2782 91.6731 71.1335 91.6731 67.2705C91.6731 63.4075 94.1086 61.2628 96.7674 61.2628C97.5377 61.2145 98.3057 61.3868 98.9815 61.7595C99.6573 62.1321 100.213 62.6897 100.583 63.3669V61.4658H102.613ZM93.8854 67.2705C93.8854 70.0172 95.2926 71.5598 97.2681 71.5598C99.0812 71.5598 100.651 70.3285 100.651 67.2705C100.651 64.2125 99.0677 63.0083 97.2681 63.0083C95.2926 63.0083 93.8854 64.5238 93.8854 67.2705Z" fill="#0E0E2C"/>
<path d="M110.291 63.5025C108.417 63.5025 107.477 64.5511 107.477 67.1829V73.4814H105.447V61.4661H107.43V63.5634C107.719 62.9105 108.194 62.3571 108.795 61.9721C109.397 61.5872 110.098 61.3877 110.812 61.3985C111.013 61.3854 111.214 61.3854 111.414 61.3985V63.5634C111.041 63.5234 110.667 63.5031 110.291 63.5025Z" fill="#0E0E2C"/>
<path d="M120.379 66.0877V65.7968C120.379 63.6116 119.148 62.8742 117.673 62.8742C116.002 62.8742 115.021 63.7875 114.926 65.2624H112.829C113.032 62.6712 115.305 61.2031 117.652 61.2031C120.954 61.2031 122.456 62.7862 122.429 66.1622V68.9292C122.378 70.4468 122.483 71.9655 122.74 73.462H120.71C120.623 72.9155 120.569 72.3643 120.548 71.8113C119.817 73.0358 118.566 73.7529 116.441 73.7529C114.189 73.7529 112.315 72.5013 112.315 70.289C112.26 67.4746 115.427 66.6493 120.379 66.0877ZM114.507 70.2687C114.507 71.4053 115.379 72.163 116.827 72.163C118.728 72.163 120.534 71.2903 120.534 68.4556V67.6979C116.827 68.0768 114.486 68.5842 114.486 70.2687H114.507Z" fill="#0E0E2C"/>
<path d="M131.007 61.263C133.909 61.263 134.958 63.1438 134.958 65.8905V73.4813H132.928V66.4927C132.928 64.6389 132.617 63.0288 130.29 63.0288C128.328 63.0288 127.124 64.3819 127.124 66.9595V73.4813H125.094V61.466H127.124V63.2723C127.523 62.6116 128.096 62.0742 128.782 61.7196C129.467 61.365 130.237 61.2069 131.007 61.263Z" fill="#0E0E2C"/>
<path d="M140.201 58.4346V61.4452H142.481V63.0756H140.201V70.1996C140.201 71.4512 140.289 71.7624 141.453 71.7624H142.481V73.4605H141.006C138.706 73.4605 138.172 72.9463 138.172 70.4431V63.0959H136.271V61.4655H138.172V58.4346H140.201Z" fill="#0E0E2C"/>
<path d="M148.496 62.9881C147.312 62.9881 145.972 63.4076 145.972 64.5036C145.972 65.4643 146.649 65.9108 147.806 66.1341L149.504 66.4656C151.689 66.8918 153.611 67.7172 153.611 70.0444C153.611 72.3717 151.466 73.7722 148.719 73.7722C145.573 73.7722 143.787 71.6952 143.564 69.5979H145.709C145.799 70.3247 146.168 70.9877 146.739 71.4462C147.31 71.9048 148.038 72.1227 148.767 72.0538C150.302 72.0538 151.554 71.3772 151.554 70.2677C151.554 69.1582 150.417 68.5425 149.118 68.2787L147.332 67.9201C145.709 67.5818 143.95 66.8241 143.95 64.5915C143.95 62.474 146.094 61.2427 148.753 61.2427C151.412 61.2427 153.11 62.6972 153.489 64.9704H151.364C151.019 63.5429 149.903 62.9881 148.496 62.9881Z" fill="#0E0E2C"/>
<path d="M163.406 63.367C163.801 62.6861 164.379 62.1286 165.073 61.757C165.767 61.3854 166.551 61.2143 167.337 61.263C170.084 61.263 172.472 63.5632 172.472 67.521C172.472 71.4787 170.084 73.7722 167.337 73.7722C166.551 73.8224 165.766 73.6521 165.072 73.2803C164.377 72.9086 163.8 72.3502 163.406 71.6682V77.3781H161.376V61.466H163.406V63.367ZM170.266 67.521C170.266 64.6592 168.913 63.0085 166.823 63.0085C165.016 63.0085 163.318 64.3615 163.318 67.521C163.318 70.6804 165.016 72.0267 166.823 72.0267C168.9 72.0267 170.266 70.376 170.266 67.521Z" fill="#0E0E2C"/>
<path d="M179.467 63.5025C177.593 63.5025 176.653 64.5511 176.653 67.1829V73.4814H174.623V61.4661H176.612V63.5634C176.9 62.9094 177.375 62.355 177.976 61.9699C178.578 61.5847 179.28 61.3859 179.995 61.3985C180.195 61.3854 180.397 61.3854 180.597 61.3985V63.5634C180.222 63.5229 179.845 63.5026 179.467 63.5025Z" fill="#0E0E2C"/>
<path d="M187.125 73.7719C184.331 73.7719 181.361 71.8708 181.361 67.5207C181.361 63.1705 184.331 61.2627 187.125 61.2627C189.919 61.2627 192.883 63.1638 192.883 67.5207C192.883 71.8776 189.913 73.7719 187.125 73.7719ZM190.718 67.5207C190.718 64.3274 188.952 63.0488 187.125 63.0488C185.299 63.0488 183.526 64.2327 183.526 67.5207C183.526 70.8087 185.292 71.9858 187.125 71.9858C188.959 71.9858 190.738 70.6125 190.738 67.5207H190.718Z" fill="#0E0E2C"/>
<path d="M205.271 61.4662V71.8714C205.271 74.3272 204.824 75.3353 204.134 76.093C203.593 76.6359 202.943 77.0578 202.227 77.3307C201.511 77.6036 200.745 77.7213 199.98 77.6761C197.274 77.6761 195.427 76.4245 195.041 73.9957H197.213C197.477 75.0646 198.126 75.89 200 75.89C200.45 75.9228 200.901 75.8601 201.324 75.7062C201.747 75.5523 202.133 75.3106 202.456 74.997C202.903 74.5302 203.241 73.9686 203.241 72.3382V71.2016C202.867 71.8748 202.308 72.4276 201.631 72.7954C200.955 73.1632 200.187 73.3308 199.418 73.2786C196.766 73.2786 194.331 71.1339 194.331 67.2709C194.331 63.4079 196.766 61.2633 199.418 61.2633C200.19 61.2136 200.959 61.3853 201.636 61.758C202.314 62.1307 202.87 62.689 203.241 63.3673V61.4662H205.271ZM196.543 67.2709C196.543 70.0177 197.944 71.5602 199.926 71.5602C201.739 71.5602 203.309 70.3289 203.309 67.2709C203.309 64.213 201.725 63.0087 199.926 63.0087C197.944 63.0087 196.543 64.5242 196.543 67.2709Z" fill="#0E0E2C"/>
<path d="M212.949 63.5025C211.075 63.5025 210.135 64.5511 210.135 67.1829V73.4814H208.105V61.4661H210.087V63.5634C210.376 62.9099 210.851 62.3561 211.452 61.971C212.054 61.5859 212.756 61.3868 213.47 61.3985C213.671 61.3854 213.872 61.3854 214.072 61.3985V63.5634C213.699 63.5236 213.324 63.5033 212.949 63.5025Z" fill="#0E0E2C"/>
<path d="M223.017 66.0877V65.7968C223.017 63.6116 221.786 62.8742 220.311 62.8742C218.64 62.8742 217.652 63.7875 217.564 65.2624H215.467C215.67 62.6712 217.943 61.2031 220.291 61.2031C223.592 61.2031 225.087 62.7862 225.067 66.1622V68.9292C225.017 70.4468 225.121 71.9655 225.378 73.462H223.349C223.264 72.9153 223.212 72.3641 223.193 71.8113C222.456 73.0358 221.211 73.7529 219.086 73.7529C216.834 73.7529 214.953 72.5013 214.953 70.289C214.885 67.4746 218.078 66.6493 223.017 66.0877ZM217.125 70.2687C217.125 71.4053 217.99 72.163 219.445 72.163C221.346 72.163 223.152 71.2903 223.152 68.4556V67.6979C219.486 68.0768 217.125 68.5842 217.125 70.2687Z" fill="#0E0E2C"/>
<path d="M227.744 73.4807V61.4654H229.774V63.2717C230.131 62.6341 230.657 62.1074 231.295 61.7494C231.932 61.3913 232.656 61.2158 233.386 61.2421C235.22 61.2421 236.316 62.0472 236.85 63.3664C237.278 62.6847 237.879 62.1288 238.593 61.7556C239.306 61.3823 240.105 61.2051 240.909 61.2421C243.703 61.2421 244.793 63.1229 244.793 65.8696V73.4604H242.763V66.492C242.763 64.6383 242.404 63.0282 240.199 63.0282C238.453 63.0282 237.29 64.3812 237.29 66.9589V73.4807H235.26V66.492C235.26 64.6383 234.902 63.0282 232.696 63.0282C230.951 63.0282 229.794 64.3812 229.794 66.9589V73.4807H227.744Z" fill="#0E0E2C"/>
</svg>
