<svg width="278" height="107" viewBox="0 0 278 107" fill="none" xmlns="http://www.w3.org/2000/svg">
<path d="M86.0636 38.9548V33.0402C86.0636 31.9925 85.7523 30.9649 85.1665 30.0946C84.5808 29.2243 83.7506 28.5448 82.7766 28.1464L46 13V16.2803L78.7598 29.723C79.0912 29.8669 79.3523 30.1347 79.4895 30.4695C79.6268 30.8042 79.6234 31.1791 79.4895 31.5105C79.4259 31.6745 79.3255 31.8251 79.2017 31.949C79.0778 32.0728 78.9272 32.1732 78.7632 32.2368L46 45.7632V58.9582L65.7423 50.8243L78.7197 56.1699C78.887 56.2368 79.0377 56.3372 79.1649 56.4644C79.2921 56.5916 79.3925 56.7423 79.4594 56.9096C79.5264 57.077 79.5598 57.2544 79.5598 57.4318C79.5598 57.6126 79.5197 57.7866 79.4494 57.954C79.3858 58.118 79.2854 58.2686 79.1615 58.3925C79.0377 58.5163 78.887 58.6167 78.723 58.6803L46 72.1598V93L82.7297 77.8971C83.7004 77.4987 84.5339 76.8226 85.1197 75.949C85.7054 75.0787 86.0167 74.051 86.0167 73.0033V59.4435C86.0167 58.3925 85.7054 57.3682 85.123 56.4946C84.5372 55.6209 83.7071 54.9414 82.7331 54.5431L69.7222 49.164L82.7331 43.8184C83.7172 43.4402 84.564 42.7741 85.1598 41.9038C85.7556 41.0335 86.0703 40.0059 86.0669 38.9515L86.0636 38.9548Z" fill="black"/>
<path d="M122.067 33.0767L124.815 43.2859L127.463 33.0767H129.97L125.99 46.8875H123.858L120.798 35.7679L117.846 46.8875H115.72L111.734 33.0767H114.248L116.895 43.2859L119.654 33.0767H122.067V33.0767Z" fill="black"/>
<path d="M137.314 45.1607C138.104 45.2343 138.897 45.0536 139.577 44.6419C140.256 44.2335 140.788 43.6142 141.089 42.8812H143.503C142.864 45.2678 140.674 47.2126 137.31 47.2126C132.942 47.2126 130.529 44.103 130.529 40.0025C130.529 35.641 133.458 32.8394 137.233 32.8394C141.448 32.8394 143.992 36.3841 143.68 40.749H133.079C133.056 41.318 133.15 41.8871 133.351 42.4193C133.551 42.9515 133.859 43.4402 134.254 43.8519C134.649 44.2636 135.125 44.5917 135.647 44.8159C136.172 45.0402 136.735 45.1573 137.307 45.1573L137.314 45.1607ZM141.207 38.744C141.11 37.7364 140.638 36.8025 139.888 36.1197C139.138 35.4402 138.161 35.062 137.146 35.062C136.132 35.062 135.155 35.4368 134.405 36.1163C133.655 36.7958 133.183 37.7297 133.083 38.7373L141.207 38.744Z" fill="black"/>
<path d="M148.44 35.256C148.895 34.4727 149.561 33.8334 150.358 33.4083C151.158 32.9832 152.059 32.7857 152.962 32.846C156.122 32.846 158.874 35.4903 158.874 40.0326C158.874 44.5748 156.126 47.2192 152.962 47.2192C152.059 47.2761 151.155 47.0819 150.358 46.6568C149.558 46.2317 148.895 45.5924 148.44 44.8091V46.8945H146.104V28.2803H148.44V35.256ZM156.33 40.0292C156.33 36.7489 154.773 34.851 152.373 34.851C150.295 34.851 148.34 36.4075 148.34 40.0292C148.34 43.651 150.295 45.2175 152.373 45.2175C154.763 45.2175 156.33 43.3196 156.33 40.0292Z" fill="black"/>
<path d="M165.973 38.1314H165.585V35.9991H165.896C169.136 35.9991 170.857 35.1054 170.857 32.8895C170.857 30.8912 169.213 29.8636 167.228 29.8636C166.723 29.8234 166.211 29.887 165.732 30.0477C165.25 30.2083 164.808 30.4661 164.427 30.8042C164.048 31.1422 163.74 31.554 163.526 32.0125C163.312 32.4711 163.192 32.9698 163.175 33.4786H160.761C161.043 30.1983 163.379 27.9121 167.285 27.9121C170.525 27.9121 173.327 29.1941 173.327 32.6318C173.327 33.5757 173.036 34.4962 172.494 35.2694C171.951 36.0427 171.181 36.6284 170.291 36.9464C173.069 37.8167 173.843 39.6611 173.843 41.6125C173.843 45.3615 170.649 47.1791 167.108 47.1791C162.74 47.1791 160.731 44.4644 160.474 41.3548H162.894C163.151 43.641 164.507 45.2443 167.128 45.2443C169.595 45.2443 171.342 43.9623 171.342 41.6527C171.342 39.0016 168.952 38.1314 165.976 38.1314H165.973Z" fill="black"/>
<path d="M118.171 54.7538H119.406V56.6852H118.258C117.039 56.6852 116.832 56.963 116.832 58.3856V59.5036H119.406V61.358H116.832V73.1806H114.519V61.358H112.608V59.5036H114.519V58.5095C114.482 55.6676 115.068 54.7505 118.174 54.7505L118.171 54.7538Z" fill="black"/>
<path d="M126.753 73.509C123.577 73.509 120.189 71.3534 120.189 66.3927C120.189 61.432 123.573 59.2764 126.753 59.2764C129.933 59.2764 133.324 61.4421 133.324 66.3927C133.324 71.3433 129.94 73.509 126.753 73.509ZM130.857 66.3927C130.857 62.7575 128.845 61.3082 126.753 61.3082C124.661 61.3082 122.656 62.6571 122.656 66.3927C122.656 70.1282 124.668 71.4772 126.753 71.4772C128.838 71.4772 130.857 69.9073 130.857 66.3927Z" fill="black"/>
<path d="M140.015 73.5089C136.839 73.5089 135.644 71.3767 135.644 68.247V59.5039H137.957V67.5608C137.957 69.6696 138.311 71.5039 140.832 71.5039C143.021 71.5039 144.316 69.9642 144.316 67.0286V59.5039H146.629V73.1842H144.316V71.2194C143.885 71.9625 143.252 72.5717 142.492 72.9734C141.732 73.3784 140.875 73.5625 140.015 73.5056V73.5089Z" fill="black"/>
<path d="M156.604 59.2761C159.921 59.2761 161.116 61.4083 161.116 64.538V73.1874H158.803V65.2242C158.803 63.1221 158.449 61.2878 155.804 61.2878C153.558 61.2878 152.186 62.8275 152.186 65.7631V73.1874H149.873V59.507H152.186V61.5623C152.641 60.8125 153.294 60.1999 154.074 59.7949C154.854 59.3899 155.731 59.2091 156.608 59.2727L156.604 59.2761Z" fill="black"/>
<path d="M176.052 54.754V73.1841H173.739V71.1188C173.287 71.892 172.631 72.528 171.838 72.9498C171.048 73.3715 170.154 73.5657 169.257 73.5088C166.127 73.5088 163.403 70.9213 163.403 66.3925C163.403 61.8636 166.124 59.2761 169.257 59.2761C170.151 59.2192 171.045 59.4134 171.838 59.8351C172.628 60.2569 173.287 60.8895 173.739 61.6661V54.7339L176.052 54.7573V54.754ZM165.927 66.3891C165.927 69.646 167.47 71.5272 169.843 71.5272C171.901 71.5272 173.836 69.9874 173.836 66.3891C173.836 62.7908 171.901 61.2611 169.843 61.2611C167.476 61.2611 165.927 63.1389 165.927 66.3891Z" fill="black"/>
<path d="M187.727 64.7687V64.4374C187.727 61.9503 186.325 61.1102 184.641 61.1102C182.736 61.1102 181.618 62.1512 181.511 63.8282H179.121C179.352 60.8792 181.943 59.2056 184.621 59.2056C188.393 59.2056 190.097 61.0064 190.067 64.8424V67.9989C190.01 69.7261 190.127 71.4566 190.422 73.1604H188.109C188.008 72.5344 187.948 71.9051 187.931 71.2725C187.091 72.675 185.665 73.4817 183.242 73.4817C180.675 73.4817 178.539 72.0658 178.539 69.5453C178.469 66.342 182.111 65.4014 187.731 64.7621L187.727 64.7687ZM181.033 69.5219C181.033 70.824 182.027 71.6876 183.677 71.6876C185.843 71.6876 187.905 70.6934 187.905 67.4667V66.6031C183.711 67.0349 181.033 67.6441 181.033 69.5219V69.5219Z" fill="black"/>
<path d="M195.958 56.0728V59.5071H198.556V61.3615H195.958V69.4719C195.958 70.8979 196.065 71.2493 197.384 71.2493H198.556V73.1841H196.875C194.255 73.1841 193.645 72.5983 193.645 69.7497V61.3648H191.486V59.5104H193.645V56.0761H195.958V56.0728Z" fill="black"/>
<path d="M203.081 57.5523H200.768V54.7573H203.081V57.5523ZM203.081 73.1841H200.768V59.5071H203.081V73.1841Z" fill="black"/>
<path d="M212.109 73.509C208.922 73.509 205.538 71.3534 205.538 66.3927C205.538 61.432 208.922 59.2764 212.109 59.2764C215.296 59.2764 218.673 61.4421 218.673 66.3927C218.673 71.3433 215.285 73.509 212.109 73.509ZM216.203 66.3927C216.203 62.7575 214.191 61.3082 212.109 61.3082C210.027 61.3082 208.005 62.6571 208.005 66.3927C208.005 70.1282 210.017 71.4772 212.109 71.4772C214.201 71.4772 216.203 69.9073 216.203 66.3927Z" fill="black"/>
<path d="M227.881 59.2763C231.192 59.2763 232.387 61.4085 232.387 64.5382V73.1876H230.074V65.2244C230.074 63.1223 229.719 61.288 227.065 61.288C224.829 61.288 223.456 62.8278 223.456 65.7633V73.1876H221.14V59.5073H223.456V61.5625C223.911 60.8093 224.564 60.1968 225.344 59.7951C226.127 59.3901 227.004 59.2127 227.881 59.2763V59.2763Z" fill="black"/>
</svg>
