<svg width="512" height="512" viewBox="0 0 512 512" fill="none" xmlns="http://www.w3.org/2000/svg">
<path d="M338.003 259.329C331.211 259.329 325.654 253.772 325.654 246.98C325.654 240.189 331.211 234.632 338.003 234.632H357.144C369.122 234.632 378.754 230.68 385.546 222.9C391.597 216.108 395.178 206.353 395.178 196.35C395.178 179.185 385.052 159.18 356.526 159.18H333.063C326.271 159.18 320.714 153.623 320.714 146.831C320.714 140.039 326.271 134.482 333.063 134.482H356.526C398.142 134.482 419.876 165.601 419.876 196.35C419.876 212.527 414.196 227.84 403.946 239.324C392.338 252.29 376.161 259.206 357.144 259.206H338.003V259.329Z" fill="black"/>
<path d="M260.822 378.126V284.274H161.043C154.498 284.274 149.188 279.458 148.571 273.16C148.2 269.702 149.435 266.245 151.781 263.652C154.128 261.058 157.462 259.576 160.919 259.576H273.295C280.086 259.576 285.643 265.133 285.643 271.925V353.428H357.885C404.317 353.428 407.898 322.679 407.898 313.294C407.898 287.608 387.769 260.194 357.885 260.194H338.373C331.828 260.194 326.518 255.378 325.901 249.08C325.53 245.622 326.765 242.164 329.112 239.571C331.458 236.978 334.792 235.496 338.25 235.496H358.008C379.125 235.496 398.513 244.387 412.714 260.688C425.433 275.259 432.843 294.524 432.843 313.294C432.843 331.077 426.298 347.13 414.443 358.615C401.229 371.334 381.718 378.126 358.132 378.126H260.822Z" fill="black"/>
<path d="M202.535 376.891C135.234 376.891 80.528 322.185 80.528 255.007C80.528 187.829 135.234 133 202.535 133C231.802 133 260.205 143.497 282.309 162.761C284.779 164.86 286.261 167.947 286.508 171.158C286.755 174.492 285.643 177.58 283.544 180.173C281.198 182.89 277.74 184.495 274.159 184.495C271.195 184.495 268.355 183.384 266.132 181.531C248.473 166.095 225.875 157.698 202.535 157.698C148.817 157.698 105.226 201.29 105.226 255.007C105.226 308.725 148.817 352.317 202.535 352.317C212.044 352.317 221.306 350.958 230.32 348.242C231.432 347.871 232.667 347.748 233.901 347.748C239.335 347.748 244.151 351.329 245.756 356.515C247.732 363.06 244.028 369.976 237.483 371.828C226.122 375.162 214.39 376.891 202.535 376.891Z" fill="black"/>
<path d="M160.179 284.274H273.171C279.963 284.274 285.52 278.717 285.52 271.925C285.52 265.133 279.963 259.576 273.171 259.576H160.179C153.387 259.576 147.83 265.133 147.83 271.925C147.83 278.717 153.387 284.274 160.179 284.274Z" fill="black"/>
</svg>
