<svg width="51" height="70" viewBox="0 0 51 70" fill="none" xmlns="http://www.w3.org/2000/svg">
<g clip-path="url(#clip0_2043_5406)">
<path d="M17.6115 51.5304C8.45356 51.5304 1 44.0769 1 34.9142C1 25.7515 8.45356 18.3027 17.6115 18.3027C21.6041 18.3027 25.4638 19.7412 28.4832 22.3523C28.825 22.6467 29.0292 23.055 29.0577 23.5012C29.0909 23.9475 28.9437 24.3843 28.6494 24.7213C28.3313 25.0916 27.866 25.3005 27.3771 25.3005C26.9735 25.3005 26.5795 25.1534 26.2756 24.8875C23.8734 22.8034 20.7923 21.6592 17.6067 21.6592C10.3098 21.6687 4.36597 27.6126 4.36597 34.9142C4.36597 42.2158 10.3098 48.1644 17.6162 48.1644C18.9075 48.1644 20.1799 47.9793 21.4047 47.6137C21.5614 47.5663 21.7228 47.5425 21.8842 47.5425C22.6201 47.5425 23.2847 48.0363 23.4984 48.7436C23.7642 49.6314 23.2562 50.5714 22.3685 50.8373C20.8255 51.2978 19.2304 51.5304 17.6115 51.5304Z" fill="#0E0E2C"/>
<path d="M48.9498 42.8665C48.9498 45.2877 48.0573 47.4763 46.4336 49.0382C44.6296 50.7758 41.9805 51.6968 38.7664 51.6968H25.5589V38.9118H11.9668C11.0791 38.9118 10.3432 38.2567 10.2625 37.3926C10.215 36.9226 10.3717 36.4479 10.6945 36.0966C11.0126 35.7453 11.4636 35.5459 11.9384 35.5459H27.249C27.7143 35.5459 28.132 35.7358 28.4406 36.0396C28.7445 36.3434 28.9344 36.766 28.9344 37.2312V48.3356H38.7759C43.9982 48.3356 45.5648 44.699 45.5648 41.9835C45.5648 39.0922 42.854 35.6313 38.7759 35.6313H36.0888C36.0699 35.6313 36.0509 35.6313 36.0319 35.6313C36.0034 35.6313 35.9749 35.6266 35.9512 35.6266C35.9179 35.6218 35.8847 35.6218 35.8515 35.6171C35.6188 35.5838 35.4005 35.4984 35.2106 35.3845C35.1678 35.356 35.1251 35.3322 35.0871 35.3037L35.0824 35.299C35.0444 35.2705 35.0064 35.2373 34.9684 35.2088C34.902 35.1518 34.845 35.0901 34.788 35.0236C34.7643 34.9952 34.7406 34.9619 34.7168 34.9287C34.7026 34.9097 34.6883 34.8907 34.6741 34.8717C34.6409 34.8242 34.6124 34.772 34.5886 34.7198C34.5791 34.7008 34.5649 34.6771 34.5507 34.6438C34.5174 34.5774 34.4605 34.435 34.4272 34.2403C34.413 34.1501 34.4035 34.0552 34.4035 33.9602C34.4035 33.4617 34.6219 33.0155 34.9637 32.7069C34.9922 32.6831 35.0207 32.6546 35.0539 32.6309C35.1916 32.5265 35.3435 32.441 35.5049 32.3793C35.5334 32.3698 35.5571 32.3603 35.5856 32.3508C35.6093 32.3413 35.6378 32.3366 35.6616 32.3271C35.6901 32.3176 35.7233 32.3128 35.7565 32.3033C35.7992 32.2938 35.8372 32.2891 35.8847 32.2843C35.9512 32.2748 36.0176 32.2748 36.0841 32.2748H38.6952C40.3284 32.2748 41.6292 31.7384 42.5692 30.6844C43.4 29.7492 43.8747 28.4341 43.8747 27.0763C43.8747 24.7453 42.4932 22.0155 38.6098 22.0155H35.4147C34.4889 22.0155 33.7341 21.2607 33.7341 20.3349C33.7341 19.4091 34.4889 18.6543 35.4147 18.6543H38.6098C44.2783 18.6543 47.2407 22.8938 47.2407 27.0811C47.2407 29.2887 46.4716 31.3728 45.0711 32.9395C44.772 33.2766 44.4444 33.5852 44.0979 33.8605C44.867 34.3637 45.5791 34.9809 46.2152 35.7073C47.9528 37.6822 48.9498 40.2934 48.9498 42.8665Z" fill="#0E0E2C"/>
<mask id="path-3-inside-1_2043_5406" fill="white">
<path d="M35.8415 35.6174C35.6088 35.5842 35.3905 35.5035 35.2006 35.3848C35.3905 35.4987 35.6088 35.5794 35.8415 35.6174Z"/>
</mask>
<path d="M35.8415 35.6174C35.6088 35.5842 35.3905 35.5035 35.2006 35.3848C35.3905 35.4987 35.6088 35.5794 35.8415 35.6174Z" fill="#0E0E2C"/>
<path d="M35.8415 35.6174L35.2758 39.5772L36.486 31.6697L35.8415 35.6174ZM35.2006 35.3848L37.2585 31.9548L33.0806 38.7768L35.2006 35.3848ZM36.4072 31.6576C36.7234 31.7028 37.0349 31.8142 37.3206 31.9928L33.0806 38.7768C33.7461 39.1927 34.4943 39.4656 35.2758 39.5772L36.4072 31.6576ZM33.1426 38.8147C33.7734 39.1933 34.4726 39.4469 35.1969 39.5651L36.486 31.6697C36.7451 31.712 37.0075 31.8042 37.2585 31.9548L33.1426 38.8147Z" fill="#F1B664" fill-opacity="0.5" mask="url(#path-3-inside-1_2043_5406)"/>
</g>
<defs>
<clipPath id="clip0_2043_5406">
<rect width="50" height="70" fill="white" transform="translate(0.638672)"/>
</clipPath>
</defs>
</svg>
