<svg width="166" height="37" viewBox="0 0 166 37" fill="none" xmlns="http://www.w3.org/2000/svg">
<path d="M61.5382 18.0111C61.5382 15.2161 60.3391 13.8186 57.941 13.8186C56.7285 13.8171 55.5548 14.246 54.6289 15.0288C54.1684 15.3802 53.782 15.8191 53.4918 16.3204C53.2016 16.8216 53.0134 17.3753 52.9379 17.9496V28.0815H49.5112V3.4071H52.9379L52.9156 12.3232L52.5662 14.6487L52.9491 14.7828L54.1034 12.7229C54.6657 12.0898 55.349 11.5756 56.1131 11.2108C56.8745 10.8237 57.7158 10.6199 58.5699 10.6155C60.545 10.6155 62.1065 11.2797 63.2543 12.6083C64.4022 13.9369 64.977 15.7378 64.9789 18.0111V28.0732H61.5382V18.0111Z" fill="#333333"/>
<path d="M75.1553 28.3472C72.4776 28.3472 70.3814 27.5721 68.8665 26.0217C67.3516 24.4714 66.5932 22.2801 66.5913 19.4479C66.5913 16.7292 67.3711 14.5631 68.9307 12.9494C70.4904 11.3358 72.54 10.5299 75.0798 10.5317C77.5897 10.5317 79.5919 11.3572 81.0863 13.0081C82.5807 14.6591 83.326 16.8019 83.3223 19.4367C83.3223 20.0963 83.3223 20.5547 83.2888 20.809H70.1522C70.3199 22.2494 70.85 23.373 71.7425 24.1798C72.6828 25.0062 73.9043 25.4404 75.1553 25.3929C77.2403 25.3929 78.69 24.5059 79.5043 22.732L82.9673 23.3357C82.3754 24.844 81.3218 26.1265 79.9571 27C78.5231 27.91 76.8533 28.3784 75.1553 28.3472ZM70.1857 18.2432H79.8733C79.7167 16.7954 79.209 15.6364 78.35 14.7662C77.9258 14.3353 77.4171 13.9968 76.8557 13.7722C76.2943 13.5475 75.6925 13.4416 75.0882 13.4609C74.4827 13.4411 73.8796 13.5451 73.3159 13.7667C72.7521 13.9883 72.2395 14.3227 71.8096 14.7494C70.9525 15.5954 70.4112 16.76 70.1857 18.2432Z" fill="#333333"/>
<path d="M85.1587 34.0351V30.8237H86.6652C86.9896 30.84 87.3135 30.7832 87.613 30.6574C87.9125 30.5316 88.1799 30.3401 88.3953 30.097C88.8852 29.4785 89.2515 28.7716 89.4742 28.0147L89.5077 27.8805L82.7158 10.9511H86.4807L90.4944 22.0166L90.9472 24.342H91.3496L91.7661 22.0166L95.7993 10.9427H99.5922L92.6857 28.0818C92.2207 29.3278 91.6735 30.5417 91.0478 31.7153C90.5005 32.6952 89.6013 33.4306 88.5323 33.7724C87.8359 33.969 87.1147 34.0631 86.3913 34.0519L85.1587 34.0351Z" fill="#333333"/>
<path d="M107.276 28.3469C104.956 28.3469 103.099 27.5689 101.705 26.0131C100.311 24.4572 99.6202 22.3246 99.6314 19.6152C99.609 16.8631 100.32 14.6606 101.764 13.0078C103.208 11.355 105.157 10.5296 107.611 10.5314C109.127 10.4947 110.599 11.0398 111.725 12.0547L113.008 14.028L113.374 13.8938L112.891 11.5684V3.40692H116.32V28.0814H113.805L113.419 25.0683H113.064C111.816 27.254 109.886 28.3469 107.276 28.3469ZM103.128 19.6152C103.128 21.391 103.565 22.7764 104.439 23.7714C105.313 24.7665 106.509 25.2658 108.028 25.2696C109.557 25.2696 110.748 24.7572 111.6 23.7323C112.451 22.7075 112.878 21.2792 112.88 19.4475C112.88 17.6308 112.45 16.2118 111.591 15.1907C110.732 14.1696 109.544 13.66 108.028 13.6619C107.346 13.6361 106.669 13.7701 106.048 14.053C105.428 14.336 104.883 14.76 104.456 15.2914C103.57 16.3795 103.128 17.8208 103.128 19.6152Z" fill="#333333"/>
<path d="M126.866 28.3472C124.188 28.3472 122.091 27.5721 120.574 26.0217C119.058 24.4714 118.299 22.2801 118.299 19.4479C118.299 16.7292 119.08 14.5631 120.642 12.9494C122.203 11.3358 124.253 10.5299 126.791 10.5317C129.297 10.5317 131.298 11.3572 132.794 13.0081C134.291 14.6591 135.036 16.8019 135.03 19.4367C135.03 20.0963 135.03 20.5547 134.997 20.809H121.86C122.028 22.2494 122.558 23.373 123.451 24.1798C124.391 25.0062 125.612 25.4404 126.863 25.3929C128.948 25.3929 130.398 24.5059 131.212 22.732L134.675 23.3357C134.083 24.8448 133.029 26.1275 131.662 27C130.23 27.9089 128.562 28.3773 126.866 28.3472ZM121.897 18.2432H131.581C131.425 16.7954 130.918 15.6364 130.061 14.7662C129.636 14.3357 129.128 13.9975 128.566 13.7729C128.005 13.5483 127.403 13.4421 126.799 13.4609C126.194 13.4411 125.59 13.5451 125.027 13.7667C124.463 13.9883 123.95 14.3227 123.52 14.7494C122.661 15.5954 122.12 16.76 121.897 18.2432Z" fill="#333333"/>
<path d="M140.12 28.0815L134.427 10.9508H138.192L141.518 21.706L141.968 24.0315H142.37L142.789 21.706L146.143 10.9508H149.906L144.229 28.0815H140.12Z" fill="#333333"/>
<path d="M157.798 28.3142C155.288 28.3142 153.39 27.7934 152.102 26.7518C150.815 25.7102 150.109 24.2018 149.986 22.2267L153.416 22.0255C153.593 24.2335 155.209 25.3376 158.265 25.3376C159.426 25.3376 160.352 25.1177 161.043 24.6779C161.358 24.503 161.621 24.2469 161.803 23.9363C161.985 23.6256 162.081 23.2717 162.08 22.9115C162.08 22.2546 161.689 21.7404 160.909 21.3742C160.129 21.0081 158.819 20.7146 156.979 20.5022C154.637 20.2487 152.925 19.7251 151.842 18.9314C150.76 18.1376 150.219 17.0196 150.221 15.5773C150.221 14.2152 150.851 13.0357 152.111 12.0388C153.37 11.042 155.093 10.5426 157.279 10.5407C159.677 10.5407 161.489 11.0373 162.715 12.0305C163.941 13.0236 164.677 14.5739 164.923 16.6814L161.569 16.9162C161.491 15.6789 161.083 14.8059 160.347 14.2972C159.611 13.7885 158.45 13.5323 156.862 13.5286C155.825 13.5286 155.012 13.7019 154.428 14.0457C154.163 14.1777 153.941 14.3808 153.786 14.6321C153.631 14.8835 153.549 15.173 153.55 15.4683C153.54 15.7805 153.625 16.0884 153.791 16.3523C153.958 16.6163 154.2 16.8244 154.486 16.9497C155.111 17.2646 156.359 17.5441 158.232 17.7882C160.84 18.1236 162.678 18.6612 163.743 19.4009C164.809 20.1407 165.348 21.3146 165.359 22.9227C165.371 23.6744 165.205 24.4183 164.873 25.0933C164.542 25.7682 164.055 26.3548 163.453 26.8049C162.182 27.813 160.297 28.3161 157.798 28.3142Z" fill="#333333"/>
<path d="M14.2617 18.2057H31.7666V23.6988C31.7808 24.4806 31.5973 25.2543 31.2312 25.9565C30.8936 26.5992 30.3692 27.139 29.7186 27.5138C29.0084 27.8986 28.1976 28.0889 27.3781 28.0631H27.106C26.283 28.0828 25.4711 27.8817 24.7655 27.4836C24.115 27.1039 23.591 26.5606 23.2529 25.9153C22.8931 25.2221 22.7127 24.4589 22.7263 23.6879V20.3371H14.2617V18.2057ZM24.7742 20.3371V23.4709C24.7392 24.1213 24.9634 24.7607 25.4033 25.2644C25.6198 25.4888 25.8867 25.6654 26.1846 25.7812C26.4826 25.8971 26.8043 25.9495 27.1265 25.9345H27.3371C27.662 25.9508 27.9867 25.8991 28.2878 25.7832C28.5888 25.6673 28.8587 25.4901 29.0779 25.2644C29.52 24.7618 29.7455 24.1219 29.7098 23.4709V20.3371H24.7742Z" fill="#333333"/>
<path d="M32.0591 36.7291V33.8338H36.9742C37.5283 33.8338 37.7638 33.5567 37.7638 32.9361V21.8896C37.7287 21.0761 37.9984 20.2788 38.5202 19.6537C38.7905 19.3648 39.1209 19.1386 39.4881 18.9912C39.8552 18.8438 40.2502 18.7786 40.6453 18.8003H40.7118V18.6812H40.6508C40.2546 18.7021 39.8586 18.6352 39.4913 18.4853C39.1239 18.3354 38.7942 18.1062 38.5257 17.814C38.0028 17.1895 37.7329 16.3918 37.7694 15.5781V4.52325C37.7694 3.90263 37.5255 3.62557 36.9797 3.62557H32.6649V0.730255H37.919C38.3189 0.722325 38.7162 0.795856 39.0868 0.946372C39.4573 1.09689 39.7934 1.32124 40.0745 1.60577C40.3611 1.89216 40.5863 2.23396 40.7363 2.61029C40.8864 2.98662 40.9582 3.38958 40.9473 3.79458V15.531C40.9473 16.6392 41.5014 17.1546 42.7177 17.1546H46.0425V20.3048H42.7177C41.5097 20.3048 40.9473 20.8201 40.9473 21.9256V33.6648C40.9582 34.0698 40.8864 34.4727 40.7363 34.8491C40.5863 35.2254 40.3611 35.5672 40.0745 35.8536C39.7934 36.1381 39.4573 36.3625 39.0868 36.513C38.7162 36.6635 38.3189 36.737 37.919 36.7291H32.0591Z" fill="#7000FF"/>
<path d="M13.9834 36.7291V33.8338H9.06829C8.51416 33.8338 8.27866 33.5567 8.27866 32.9361V21.8896C8.31376 21.0761 8.04404 20.2788 7.52228 19.6537C7.25195 19.3648 6.92158 19.1386 6.55443 18.9912C6.18727 18.8438 5.79225 18.7786 5.3972 18.8003H5.33071V18.6812H5.39166C5.78789 18.7021 6.18385 18.6352 6.55121 18.4853C6.91858 18.3354 7.24828 18.1062 7.51674 17.814C8.03969 17.1895 8.30957 16.3918 8.27312 15.5781V4.52325C8.27312 3.90263 8.51694 3.62557 9.06275 3.62557H13.3776V0.730255H8.1235C7.7236 0.722325 7.32628 0.795856 6.95571 0.946372C6.58513 1.09689 6.24906 1.32124 5.96795 1.60577C5.68138 1.89216 5.4562 2.23396 5.30614 2.61029C5.15609 2.98662 5.08431 3.38958 5.0952 3.79458V15.531C5.0952 16.6392 4.54108 17.1546 3.32477 17.1546H9.53674e-06V20.3048H3.32477C4.53277 20.3048 5.0952 20.8201 5.0952 21.9256V33.6648C5.08431 34.0698 5.15609 34.4727 5.30614 34.8491C5.4562 35.2254 5.68138 35.5672 5.96795 35.8536C6.24906 36.1381 6.58513 36.3625 6.95571 36.513C7.32628 36.6635 7.7236 36.737 8.1235 36.7291H13.9834Z" fill="#7000FF"/>
<path fill-rule="evenodd" clip-rule="evenodd" d="M21.4173 14.7755C21.4375 14.7575 21.4573 14.7392 21.4768 14.7206C21.7055 14.4819 21.88 14.2019 21.9896 13.8978C22.0992 13.5937 22.1416 13.2718 22.1142 12.9517C22.0868 12.6317 21.9902 12.3203 21.8303 12.0365C21.6704 11.7527 21.4506 11.5025 21.1842 11.3011C20.5056 10.8174 19.6687 10.5707 18.8173 10.6035C17.4638 10.6047 16.1572 11.0696 15.1427 11.9108C14.1669 12.7262 13.5668 13.8656 13.4692 15.0886H15.3768C15.46 14.5581 15.713 14.0638 16.1023 13.6714C16.405 13.3683 16.7863 13.147 17.2064 13.0277C17.2036 13.0752 17.2022 13.1231 17.2022 13.1714C17.2022 14.5039 18.2824 15.5841 19.615 15.5841C20.3317 15.5841 20.9754 15.2717 21.4173 14.7755Z" fill="#333333"/>
<circle cx="29.2184" cy="13.1713" r="2.41278" fill="#333333"/>
</svg>
