<svg width="47" height="37" viewBox="0 0 47 37" fill="none" xmlns="http://www.w3.org/2000/svg">
<path d="M14.2617 18.2057H31.7666V23.6988C31.7808 24.4806 31.5973 25.2543 31.2312 25.9565C30.8936 26.5992 30.3692 27.139 29.7186 27.5138C29.0084 27.8986 28.1976 28.0889 27.3781 28.0631H27.106C26.283 28.0828 25.4711 27.8817 24.7655 27.4836C24.115 27.1039 23.591 26.5606 23.2529 25.9153C22.8931 25.2221 22.7127 24.4589 22.7263 23.6879V20.3371H14.2617V18.2057ZM24.7742 20.3371V23.4709C24.7392 24.1213 24.9634 24.7607 25.4033 25.2644C25.6198 25.4888 25.8867 25.6654 26.1846 25.7812C26.4826 25.8971 26.8043 25.9495 27.1265 25.9345H27.3371C27.662 25.9508 27.9867 25.8991 28.2878 25.7832C28.5888 25.6673 28.8587 25.4901 29.0779 25.2644C29.52 24.7618 29.7455 24.1219 29.7098 23.4709V20.3371H24.7742Z" fill="#333333"/>
<path d="M32.0591 36.7291V33.8338H36.9742C37.5283 33.8338 37.7638 33.5567 37.7638 32.9361V21.8896C37.7287 21.0761 37.9984 20.2788 38.5202 19.6537C38.7905 19.3648 39.1209 19.1386 39.4881 18.9912C39.8552 18.8438 40.2502 18.7786 40.6453 18.8003H40.7118V18.6812H40.6508C40.2546 18.7021 39.8586 18.6352 39.4913 18.4853C39.1239 18.3354 38.7942 18.1062 38.5257 17.814C38.0028 17.1895 37.7329 16.3918 37.7694 15.5781V4.52325C37.7694 3.90263 37.5255 3.62557 36.9797 3.62557H32.6649V0.730255H37.919C38.3189 0.722325 38.7162 0.795856 39.0868 0.946372C39.4573 1.09689 39.7934 1.32124 40.0745 1.60577C40.3611 1.89216 40.5863 2.23396 40.7363 2.61029C40.8864 2.98662 40.9582 3.38958 40.9473 3.79458V15.531C40.9473 16.6392 41.5014 17.1546 42.7177 17.1546H46.0425V20.3048H42.7177C41.5097 20.3048 40.9473 20.8201 40.9473 21.9256V33.6648C40.9582 34.0698 40.8864 34.4727 40.7363 34.8491C40.5863 35.2254 40.3611 35.5672 40.0745 35.8536C39.7934 36.1381 39.4573 36.3625 39.0868 36.513C38.7162 36.6635 38.3189 36.737 37.919 36.7291H32.0591Z" fill="#7000FF"/>
<path d="M13.9834 36.7291V33.8338H9.06829C8.51416 33.8338 8.27866 33.5567 8.27866 32.9361V21.8896C8.31376 21.0761 8.04404 20.2788 7.52228 19.6537C7.25195 19.3648 6.92158 19.1386 6.55443 18.9912C6.18727 18.8438 5.79225 18.7786 5.3972 18.8003H5.33071V18.6812H5.39166C5.78789 18.7021 6.18385 18.6352 6.55121 18.4853C6.91858 18.3354 7.24828 18.1062 7.51674 17.814C8.03969 17.1895 8.30957 16.3918 8.27312 15.5781V4.52325C8.27312 3.90263 8.51694 3.62557 9.06275 3.62557H13.3776V0.730255H8.1235C7.7236 0.722325 7.32628 0.795856 6.95571 0.946372C6.58513 1.09689 6.24906 1.32124 5.96795 1.60577C5.68138 1.89216 5.4562 2.23396 5.30614 2.61029C5.15609 2.98662 5.08431 3.38958 5.0952 3.79458V15.531C5.0952 16.6392 4.54108 17.1546 3.32477 17.1546H9.53674e-06V20.3048H3.32477C4.53277 20.3048 5.0952 20.8201 5.0952 21.9256V33.6648C5.08431 34.0698 5.15609 34.4727 5.30614 34.8491C5.4562 35.2254 5.68138 35.5672 5.96795 35.8536C6.24906 36.1381 6.58513 36.3625 6.95571 36.513C7.32628 36.6635 7.7236 36.737 8.1235 36.7291H13.9834Z" fill="#7000FF"/>
<path fill-rule="evenodd" clip-rule="evenodd" d="M21.4173 14.7755C21.4375 14.7575 21.4573 14.7392 21.4768 14.7206C21.7055 14.4819 21.88 14.2019 21.9896 13.8978C22.0992 13.5937 22.1416 13.2718 22.1142 12.9517C22.0868 12.6317 21.9902 12.3203 21.8303 12.0365C21.6704 11.7527 21.4506 11.5025 21.1842 11.3011C20.5056 10.8174 19.6687 10.5707 18.8173 10.6035C17.4638 10.6047 16.1572 11.0696 15.1427 11.9108C14.1669 12.7262 13.5668 13.8656 13.4692 15.0886H15.3768C15.46 14.5581 15.713 14.0638 16.1023 13.6714C16.405 13.3683 16.7863 13.147 17.2064 13.0277C17.2036 13.0752 17.2022 13.1231 17.2022 13.1714C17.2022 14.5039 18.2824 15.5841 19.615 15.5841C20.3317 15.5841 20.9754 15.2717 21.4173 14.7755Z" fill="#333333"/>
<circle cx="29.2184" cy="13.1713" r="2.41278" fill="#333333"/>
</svg>
