<svg width="323" height="71" viewBox="0 0 323 71" fill="none" xmlns="http://www.w3.org/2000/svg">
<path d="M119.931 33.6795C119.931 28.2323 117.594 25.5087 112.92 25.5087C110.557 25.5059 108.27 26.3417 106.465 27.8674C105.568 28.5521 104.815 29.4076 104.249 30.3845C103.684 31.3614 103.317 32.4405 103.17 33.5597V53.3056H96.4917V5.21802H103.17L103.126 22.5945L102.445 27.1265L103.192 27.388L105.441 23.3734C106.537 22.1395 107.869 21.1375 109.358 20.4265C110.842 19.6722 112.481 19.2749 114.146 19.2663C117.995 19.2663 121.038 20.5609 123.275 23.1501C125.512 25.7393 126.633 29.2491 126.636 33.6795V53.2893H119.931V33.6795Z" fill="#333333"/>
<path d="M146.469 53.8233C141.251 53.8233 137.165 52.3126 134.213 49.2913C131.261 46.2699 129.783 41.9993 129.779 36.4795C129.779 31.1812 131.299 26.9597 134.338 23.8148C137.378 20.67 141.373 19.0994 146.322 19.103C151.214 19.103 155.116 20.7118 158.028 23.9292C160.941 27.1467 162.393 31.3229 162.386 36.4577C162.386 37.7433 162.386 38.6366 162.321 39.1323H136.719C137.046 41.9394 138.079 44.1292 139.818 45.7016C141.651 47.3121 144.031 48.1583 146.469 48.0656C150.533 48.0656 153.358 46.3371 154.945 42.8799L161.694 44.0565C160.54 46.996 158.487 49.4955 155.827 51.1978C153.033 52.9712 149.779 53.8842 146.469 53.8233ZM136.784 34.1318H155.664C155.359 31.3101 154.369 29.0514 152.695 27.3555C151.869 26.5157 150.877 25.8561 149.783 25.4183C148.689 24.9805 147.516 24.7739 146.339 24.8117C145.159 24.773 143.983 24.9758 142.884 25.4076C141.786 25.8394 140.787 26.4911 139.949 27.3228C138.279 28.9715 137.224 31.2411 136.784 34.1318Z" fill="#333333"/>
<path d="M165.965 64.9083V58.6495H168.901C169.533 58.6814 170.164 58.5706 170.748 58.3255C171.332 58.0803 171.853 57.7071 172.273 57.2333C173.227 56.028 173.941 54.6502 174.375 53.1751L174.44 52.9137L161.204 19.9202H168.541L176.363 41.4855L177.246 46.0176H178.03L178.842 41.4855L186.702 19.9038H194.094L180.634 53.3059C179.728 55.7343 178.661 58.0999 177.442 60.3872C176.375 62.297 174.623 63.7301 172.539 64.3963C171.182 64.7794 169.777 64.9629 168.367 64.941L165.965 64.9083Z" fill="#333333"/>
<path d="M209.068 53.8229C204.547 53.8229 200.928 52.3068 198.212 49.2745C195.495 46.2423 194.148 42.0861 194.17 36.8059C194.126 31.4423 195.512 27.1499 198.326 23.9288C201.141 20.7077 204.939 19.099 209.722 19.1026C212.676 19.031 215.545 20.0933 217.74 22.0713L220.24 25.917L220.954 25.6556L220.011 21.1235V5.21777H226.695V53.3054H221.793L221.041 47.4334H220.349C217.916 51.6931 214.156 53.8229 209.068 53.8229ZM200.984 36.8059C200.984 40.2667 201.836 42.9667 203.539 44.9059C205.242 46.8451 207.574 47.8183 210.533 47.8256C213.515 47.8256 215.835 46.8269 217.495 44.8296C219.154 42.8323 219.986 40.0488 219.99 36.4791C219.99 32.9384 219.153 30.1731 217.478 28.1831C215.804 26.193 213.489 25.1998 210.533 25.2035C209.206 25.1533 207.885 25.4144 206.676 25.9658C205.467 26.5172 204.404 27.3437 203.572 28.3792C201.847 30.4999 200.984 33.3088 200.984 36.8059Z" fill="#333333"/>
<path d="M247.247 53.8233C242.029 53.8233 237.942 52.3126 234.986 49.2913C232.03 46.2699 230.552 41.9993 230.552 36.4795C230.552 31.1812 232.073 26.9597 235.117 23.8148C238.16 20.67 242.154 19.0994 247.1 19.103C251.985 19.103 255.885 20.7118 258.801 23.9292C261.717 27.1467 263.169 31.3229 263.159 36.4577C263.159 37.7433 263.159 38.6366 263.093 39.1323H237.492C237.818 41.9394 238.851 44.1292 240.591 45.7016C242.423 47.3121 244.804 48.1583 247.242 48.0656C251.306 48.0656 254.131 46.3371 255.718 42.8799L262.467 44.0565C261.313 46.9975 259.257 49.4975 256.595 51.1978C253.803 52.9691 250.553 53.882 247.247 53.8233ZM237.562 34.1318H256.437C256.132 31.3101 255.144 29.0514 253.474 27.3555C252.646 26.5165 251.655 25.8574 250.561 25.4196C249.467 24.9819 248.294 24.7749 247.117 24.8117C245.937 24.773 244.761 24.9758 243.663 25.4076C242.564 25.8394 241.565 26.4911 240.727 27.3228C239.053 28.9715 237.998 31.2411 237.562 34.1318Z" fill="#333333"/>
<path d="M273.078 53.3056L261.982 19.9199H269.319L275.801 40.8806L276.678 45.4127H277.463L278.28 40.8806L284.816 19.9199H292.148L281.085 53.3056H273.078Z" fill="#333333"/>
<path d="M307.531 53.7592C302.64 53.7592 298.939 52.7442 296.43 50.7142C293.921 48.6842 292.546 45.7446 292.306 41.8952L298.99 41.503C299.335 45.8063 302.485 47.9579 308.441 47.9579C310.703 47.9579 312.508 47.5294 313.855 46.6724C314.469 46.3316 314.98 45.8325 315.336 45.227C315.691 44.6215 315.878 43.9319 315.876 43.2298C315.876 41.9497 315.114 40.9474 313.594 40.2338C312.074 39.5203 309.52 38.9483 305.935 38.5343C301.371 38.0405 298.033 37.02 295.923 35.473C293.814 33.926 292.76 31.7471 292.764 28.9364C292.764 26.2818 293.991 23.9831 296.446 22.0403C298.901 20.0975 302.258 19.1242 306.518 19.1206C311.192 19.1206 314.723 20.0884 317.113 22.0239C319.502 23.9595 320.937 26.9809 321.416 31.088L314.88 31.5456C314.727 29.1343 313.934 27.433 312.499 26.4416C311.065 25.4502 308.801 24.9509 305.707 24.9436C303.686 24.9436 302.1 25.2814 300.962 25.9514C300.447 26.2087 300.014 26.6045 299.712 27.0943C299.41 27.5841 299.251 28.1485 299.252 28.724C299.233 29.3323 299.397 29.9323 299.722 30.4468C300.047 30.9613 300.519 31.3667 301.076 31.611C302.293 32.2247 304.726 32.7694 308.376 33.2451C313.46 33.8988 317.04 34.9465 319.117 36.3881C321.195 37.8298 322.244 40.1176 322.266 43.2516C322.289 44.7167 321.965 46.1665 321.319 47.4818C320.673 48.7971 319.725 49.9404 318.551 50.8177C316.074 52.7823 312.401 53.7628 307.531 53.7592Z" fill="#333333"/>
<path d="M27.7936 34.0588H61.9086V44.7643C61.9363 46.2877 61.5787 47.7956 60.8652 49.1642C60.2072 50.4166 59.1852 51.4688 57.9173 52.1992C56.5333 52.9491 54.9531 53.3199 53.3559 53.2697H52.8257C51.2217 53.308 49.6394 52.9162 48.2642 52.1403C46.9965 51.4003 45.9753 50.3414 45.3164 49.0839C44.6152 47.7329 44.2636 46.2455 44.2901 44.7428V38.2125H27.7936V34.0588ZM48.2813 38.2125V44.32C48.213 45.5876 48.6501 46.8337 49.5072 47.8153C49.9292 48.2527 50.4493 48.5968 51.0301 48.8226C51.6108 49.0485 52.2377 49.1505 52.8656 49.1214H53.2761C53.9093 49.1531 54.5421 49.0523 55.1288 48.8265C55.7155 48.6006 56.2415 48.2552 56.6686 47.8153C57.5303 46.8357 57.9697 45.5887 57.9002 44.32V38.2125H48.2813Z" fill="#333333"/>
<path d="M62.4789 70.1587V64.5161H72.0579C73.1379 64.5161 73.5968 63.9761 73.5968 62.7666V41.2382C73.5284 39.6528 74.0541 38.099 75.0709 36.8807C75.5978 36.3177 76.2416 35.877 76.9572 35.5896C77.6727 35.3023 78.4425 35.1753 79.2125 35.2176H79.342V34.9854H79.2232C78.451 35.0262 77.6794 34.8958 76.9634 34.6037C76.2475 34.3115 75.6049 33.8647 75.0817 33.2953C74.0625 32.0784 73.5366 30.5236 73.6076 28.9378V7.39324C73.6076 6.18372 73.1324 5.64376 72.0687 5.64376H63.6596V0.00112937H73.8992C74.6786 -0.0143254 75.4529 0.128979 76.1751 0.422317C76.8973 0.715656 77.5523 1.15289 78.1001 1.70742C78.6586 2.26556 79.0975 2.93168 79.3899 3.6651C79.6823 4.39852 79.8222 5.18385 79.801 5.97314V28.846C79.801 31.0059 80.8809 32.0102 83.2514 32.0102H89.7309V38.1496H83.2514C80.8971 38.1496 79.801 39.1539 79.801 41.3084V64.1867C79.8222 64.976 79.6823 65.7613 79.3899 66.4947C79.0975 67.2282 78.6586 67.8943 78.1001 68.4524C77.5523 69.0069 76.8973 69.4442 76.1751 69.7375C75.4529 70.0309 74.6786 70.1742 73.8992 70.1587H62.4789Z" fill="#7000FF"/>
<path d="M27.2515 70.1587V64.5161H17.6725C16.5926 64.5161 16.1337 63.9761 16.1337 62.7666V41.2382C16.2021 39.6528 15.6764 38.099 14.6596 36.8807C14.1327 36.3177 13.4889 35.877 12.7733 35.5896C12.0578 35.3023 11.2879 35.1753 10.518 35.2176H10.3884V34.9854H10.5072C11.2794 35.0262 12.0511 34.8958 12.7671 34.6037C13.483 34.3115 14.1256 33.8647 14.6488 33.2953C15.6679 32.0784 16.1939 30.5236 16.1229 28.9378V7.39324C16.1229 6.18372 16.598 5.64376 17.6618 5.64376H26.0709V0.00112937H15.8313C15.0519 -0.0143254 14.2776 0.128979 13.5554 0.422317C12.8332 0.715656 12.1782 1.15289 11.6303 1.70742C11.0719 2.26556 10.633 2.93168 10.3406 3.6651C10.0481 4.39852 9.90824 5.18385 9.92946 5.97314V28.846C9.92946 31.0059 8.84954 32.0102 6.4791 32.0102H-0.000478745V38.1496H6.4791C8.83334 38.1496 9.92946 39.1539 9.92946 41.3084V64.1867C9.90824 64.976 10.0481 65.7613 10.3406 66.4947C10.633 67.2282 11.0719 67.8943 11.6303 68.4524C12.1782 69.0069 12.8332 69.4442 13.5554 69.7375C14.2776 70.0309 15.0519 70.1742 15.8313 70.1587H27.2515Z" fill="#7000FF"/>
<path fill-rule="evenodd" clip-rule="evenodd" d="M40.6892 20.2207C39.4874 19.5313 38.0899 19.1881 36.6719 19.2427C34.034 19.2451 31.4876 20.1511 29.5105 21.7906C27.6087 23.3796 26.4393 25.6003 26.2491 27.9837H29.9666C30.1288 26.9497 30.622 25.9865 31.3807 25.2217C32.0752 24.5262 32.9822 24.0518 33.9748 23.8623C33.9433 24.0832 33.9271 24.3089 33.9271 24.5385C33.9271 27.1667 36.0577 29.2972 38.6858 29.2972C41.314 29.2972 43.4446 27.1667 43.4446 24.5385C43.4446 22.626 42.3164 20.977 40.6892 20.2207Z" fill="#333333"/>
<circle cx="57.6272" cy="24.5388" r="4.75875" fill="#333333"/>
</svg>
