<svg width="70" height="70" viewBox="0 0 70 70" fill="none" xmlns="http://www.w3.org/2000/svg">
<path d="M34.6464 62.5C49.9151 62.5 62.2928 50.1878 62.2928 35C62.2928 19.8122 49.9151 7.5 34.6464 7.5C19.3777 7.5 7 19.8122 7 35C7 50.1878 19.3777 62.5 34.6464 62.5Z" fill="#2C3ACF"/>
<path d="M16.6864 43.732C16.5883 43.732 16.488 43.7116 16.3934 43.6681C16.039 43.5065 15.883 43.0901 16.0453 42.7375L25.0353 23.1953C25.1977 22.8428 25.6164 22.6875 25.9708 22.8491C26.3253 23.0106 26.4813 23.4271 26.3189 23.7796L17.3289 43.3218C17.2103 43.5796 16.9547 43.732 16.6864 43.732Z" fill="white"/>
<path d="M34.6688 43.732C34.4012 43.732 34.1449 43.5796 34.0263 43.3218L25.0356 23.7796C24.8732 23.4271 25.0292 23.0099 25.3837 22.8491C25.7381 22.6875 26.1575 22.8428 26.3192 23.1953L35.3099 42.7375C35.4722 43.0901 35.3162 43.5072 34.9618 43.6681C34.8665 43.7116 34.7669 43.732 34.6688 43.732Z" fill="white"/>
<path d="M34.6669 43.732C34.5688 43.732 34.4685 43.7116 34.3739 43.6681C34.0195 43.5065 33.8634 43.0901 34.0258 42.7375L43.0165 23.1953C43.1789 22.8428 43.5976 22.6875 43.952 22.8491C44.3065 23.0106 44.4625 23.4271 44.3001 23.7796L35.3094 43.3218C35.1908 43.5803 34.9352 43.732 34.6669 43.732Z" fill="white"/>
<path d="M52.6497 43.732C52.3821 43.732 52.1258 43.5796 52.0072 43.3218L43.0165 23.7796C42.8541 23.4271 43.0102 23.0099 43.3646 22.8491C43.719 22.6875 44.1384 22.8428 44.3001 23.1953L53.2908 42.7375C53.4532 43.0901 53.2972 43.5072 52.9427 43.6681C52.8474 43.7116 52.7479 43.732 52.6497 43.732Z" fill="white"/>
<path d="M16.6426 46.5127C18.1325 46.5127 19.3404 45.3477 19.3404 43.9106C19.3404 42.4736 18.1325 41.3086 16.6426 41.3086C15.1527 41.3086 13.9448 42.4736 13.9448 43.9106C13.9448 45.3477 15.1527 46.5127 16.6426 46.5127Z" fill="white"/>
<path d="M34.6466 46.5127C36.1366 46.5127 37.3444 45.3477 37.3444 43.9106C37.3444 42.4736 36.1366 41.3086 34.6466 41.3086C33.1567 41.3086 31.9489 42.4736 31.9489 43.9106C31.9489 45.3477 33.1567 46.5127 34.6466 46.5127Z" fill="white"/>
<path d="M52.6504 46.5127C54.1404 46.5127 55.3482 45.3477 55.3482 43.9106C55.3482 42.4736 54.1404 41.3086 52.6504 41.3086C51.1605 41.3086 49.9526 42.4736 49.9526 43.9106C49.9526 45.3477 51.1605 46.5127 52.6504 46.5127Z" fill="white"/>
</svg>
