<svg width="144" height="69" viewBox="0 0 144 69" fill="none" xmlns="http://www.w3.org/2000/svg">
<path d="M34.814 44.709C29.4409 44.709 25.04 40.6376 24.7945 35.4406C24.6673 32.7462 25.6189 30.1907 27.4752 28.2455C29.3324 26.2993 31.835 25.2274 34.5245 25.2274H43.2492C43.8096 25.2274 44.2653 25.6832 44.2653 26.2436V26.8519C44.2653 27.4122 43.8096 27.868 43.2492 27.868H34.5245C32.5695 27.868 30.68 28.6885 29.3402 30.1193C27.9827 31.5697 27.3079 33.4621 27.4399 35.4494C27.6864 39.1609 30.8991 42.0684 34.7553 42.0684H43.2482C43.8086 42.0684 44.2643 42.5242 44.2643 43.0846V43.6919C44.2643 44.2523 43.8086 44.708 43.2482 44.708H34.814V44.709Z" fill="#3760F2"/>
<path d="M83.6304 44.7033C82.7042 44.7033 81.8123 44.4959 80.982 44.0861C79.783 43.5033 78.8118 42.5282 78.2456 41.3409C77.824 40.5096 77.6128 39.6206 77.6128 38.6867V26.2515C77.6128 25.6911 78.0685 25.2354 78.6289 25.2354H79.2363C79.7966 25.2354 80.2524 25.6911 80.2524 26.2515V39.0857L80.2563 39.1189C80.4568 40.6505 81.6666 41.8602 83.1981 42.0607L83.2304 42.0646H92.4861C93.0465 42.0646 93.5022 42.5204 93.5022 43.0808V43.6881C93.5022 44.2485 93.0465 44.7042 92.4861 44.7042H83.6284L83.6304 44.7033Z" fill="#3760F2"/>
<path d="M1.83667 44.7033C1.27628 44.7033 0.820535 44.2475 0.820535 43.6871V43.0798C0.820535 42.5194 1.27628 42.0637 1.83667 42.0637H15.4239C16.4322 42.0637 17.377 41.6148 18.0166 40.8304C18.6503 40.0539 18.8968 39.0397 18.6943 38.047C18.3814 36.5175 16.973 35.4074 15.3457 35.4074H5.01905C3.70952 35.4074 2.47725 34.9096 1.5511 34.006C1.28704 33.7537 1.07579 33.5043 0.903664 33.2392C0.309045 32.3884 0 31.4035 0 30.3757V30.2544C0 27.4867 2.25134 25.2354 5.01905 25.2354H19.0708C19.6312 25.2354 20.087 25.6911 20.087 26.2515V26.8715C20.087 27.4319 19.6312 27.8877 19.0708 27.8877H5.02003C3.70855 27.8877 2.64058 28.9546 2.64058 30.2671V30.3766C2.64058 31.6881 3.70757 32.7551 5.02003 32.7551H15.4249C17.1021 32.7551 18.708 33.4661 19.8327 34.7072L19.8523 34.7287L19.8738 34.7483C19.9315 34.7982 19.9843 34.8686 20.0449 34.9497C21.108 36.2554 21.5686 37.8759 21.3535 39.5297C20.9701 42.4803 18.3354 44.7052 15.2264 44.7052H1.83667V44.7033Z" fill="#3760F2"/>
<path d="M97.9932 44.7298C97.6372 44.7298 97.3125 44.5479 97.1267 44.2447C96.9429 43.9444 96.9262 43.5777 97.0827 43.2628L107.183 25.7626C107.36 25.4144 107.699 25.2071 108.089 25.2071C108.479 25.2071 108.818 25.4144 108.995 25.7626L119.096 43.2628C119.252 43.5777 119.236 43.9444 119.052 44.2447C118.867 44.5479 118.543 44.7298 118.187 44.7298L117.452 44.7268C117.089 44.7249 116.664 44.362 116.288 43.7303L108.09 29.3117L99.9394 43.651C99.3634 44.7298 99.0367 44.7298 98.7218 44.7298H97.9942H97.9932Z" fill="#3760F2"/>
<path d="M51.0727 44.7297C50.7079 44.7297 50.3754 44.5439 50.1847 44.2329C49.996 43.9248 49.9793 43.5492 50.1397 43.2265L60.4879 25.2979C60.6688 24.942 61.016 24.7297 61.416 24.7297C61.816 24.7297 62.1622 24.942 62.3441 25.2979L72.6922 43.2265C72.8516 43.5492 72.835 43.9248 72.6472 44.2319C72.4565 44.5429 72.125 44.7287 71.7602 44.7287L71.0071 44.7258C70.6345 44.7238 70.2003 44.3522 69.814 43.7047L61.415 28.9341L53.0649 43.6245C52.4742 44.7297 52.1407 44.7297 51.817 44.7297H51.0718H51.0727Z" fill="#3760F2"/>
<path d="M140.641 44.708C140.257 44.708 139.91 44.4958 139.736 44.1545L139.716 44.1173L134.617 37.2655C133.869 36.0469 132.517 35.2909 131.083 35.2909H122.908C122.346 35.2909 121.89 34.8342 121.89 34.2729V33.6694C121.89 33.1081 122.346 32.6513 122.908 32.6513H138.303C138.67 32.6513 138.994 32.578 139.295 32.4284C140.13 32.0557 140.682 31.202 140.682 30.2602C140.682 29.6421 140.434 29.0396 139.984 28.5634L139.965 28.5438C139.5 28.1027 138.925 27.8699 138.302 27.8699H122.907C122.345 27.8699 121.889 27.4132 121.889 26.8519V26.2484C121.889 25.6871 122.345 25.2303 122.907 25.2303H138.302C139.642 25.2303 140.903 25.7526 141.851 26.7013C142.799 27.6607 143.321 28.9262 143.321 30.2621C143.321 32.3022 142.149 34.1379 140.403 34.8313C139.359 35.246 137.805 35.2665 137.503 35.2665H137.406L136.386 35.245L142.25 43.2675C142.394 43.5775 142.375 43.9335 142.195 44.2269C142.008 44.53 141.684 44.712 141.328 44.712H140.639L140.641 44.708Z" fill="#3760F2"/>
<path d="M57.7988 28.0012L56.6663 28.6927C55.658 29.3078 54.7964 29.9328 54.0316 30.5988C51.747 32.5176 49.7861 35.6178 50.5509 38.2183L50.5695 38.2848L49.2326 40.4687L49.1074 40.2251C48.8854 39.7899 48.7172 39.3293 48.6106 38.855C47.5964 34.1137 51.9396 29.9376 56.5382 28.4178L57.7988 28.0002V28.0012Z" fill="#3760F2"/>
<path d="M73.6044 33.4975C73.5066 36.2809 71.8352 39.0124 68.9022 41.1933C68.4758 41.5102 68.0308 41.8085 67.577 42.0823C66.6783 42.6182 65.7316 43.0779 64.7663 43.4564C62.647 44.2847 60.4602 44.7023 58.3311 44.7023C57.4235 44.7023 56.5277 44.6261 55.6485 44.4735L55.3013 44.4158L56.647 42.1381L56.7448 42.1468C59.0323 42.3728 61.6572 41.9767 64.1335 41.0378C64.9286 40.7366 65.6807 40.3894 66.3692 40.0051C67.0117 39.6452 67.6152 39.253 68.1687 38.8324C69.6641 37.7087 71.5154 35.8476 71.8509 33.384C72.2411 30.0823 69.2562 28.0393 66.336 27.2325L64.9834 26.8579L66.3839 26.9342C68.2968 27.0349 70.0748 27.6833 71.3873 28.7523C72.867 29.9581 73.6318 31.6002 73.6044 33.4975Z" fill="#3760F2"/>
</svg>
