<svg width="144" height="35" viewBox="0 0 144 35" fill="none" xmlns="http://www.w3.org/2000/svg">
<path d="M34.814 20.709C29.4409 20.709 25.04 16.6376 24.7945 11.4406C24.6673 8.74622 25.6189 6.19073 27.4752 4.2455C29.3324 2.2993 31.835 1.22742 34.5245 1.22742H43.2492C43.8096 1.22742 44.2653 1.68316 44.2653 2.24355V2.85186C44.2653 3.41225 43.8096 3.86799 43.2492 3.86799H34.5245C32.5695 3.86799 30.68 4.68853 29.3402 6.11933C27.9827 7.56969 27.3079 9.4621 27.4399 11.4494C27.6864 15.1609 30.8991 18.0684 34.7553 18.0684H43.2482C43.8086 18.0684 44.2643 18.5242 44.2643 19.0846V19.6919C44.2643 20.2523 43.8086 20.708 43.2482 20.708H34.814V20.709Z" fill="#3760F2"/>
<path d="M83.6304 20.7033C82.7042 20.7033 81.8123 20.4959 80.982 20.0861C79.783 19.5033 78.8118 18.5282 78.2456 17.3409C77.824 16.5096 77.6128 15.6206 77.6128 14.6867V2.25148C77.6128 1.69109 78.0685 1.23535 78.6289 1.23535H79.2363C79.7966 1.23535 80.2524 1.69109 80.2524 2.25148V15.0857L80.2563 15.1189C80.4568 16.6505 81.6666 17.8602 83.1981 18.0607L83.2304 18.0646H92.4861C93.0465 18.0646 93.5022 18.5204 93.5022 19.0808V19.6881C93.5022 20.2485 93.0465 20.7042 92.4861 20.7042H83.6284L83.6304 20.7033Z" fill="#3760F2"/>
<path d="M1.83667 20.7033C1.27628 20.7033 0.820535 20.2475 0.820535 19.6871V19.0798C0.820535 18.5194 1.27628 18.0637 1.83667 18.0637H15.4239C16.4322 18.0637 17.377 17.6148 18.0166 16.8304C18.6503 16.0539 18.8968 15.0397 18.6943 14.047C18.3814 12.5175 16.973 11.4074 15.3457 11.4074H5.01905C3.70952 11.4074 2.47725 10.9096 1.5511 10.006C1.28704 9.75365 1.07579 9.50427 0.903664 9.23923C0.309045 8.38838 0 7.40354 0 6.37567V6.2544C0 3.48668 2.25134 1.23535 5.01905 1.23535H19.0708C19.6312 1.23535 20.087 1.69109 20.087 2.25148V2.87153C20.087 3.43192 19.6312 3.88766 19.0708 3.88766H5.02003C3.70855 3.88766 2.64058 4.95465 2.64058 6.26711V6.37665C2.64058 7.68814 3.70757 8.75513 5.02003 8.75513H15.4249C17.1021 8.75513 18.708 9.46613 19.8327 10.7072L19.8523 10.7287L19.8738 10.7483C19.9315 10.7982 19.9843 10.8686 20.0449 10.9497C21.108 12.2554 21.5686 13.8759 21.3535 15.5297C20.9701 18.4803 18.3354 20.7052 15.2264 20.7052H1.83667V20.7033Z" fill="#3760F2"/>
<path d="M97.9932 20.7298C97.6372 20.7298 97.3125 20.5479 97.1267 20.2447C96.9429 19.9444 96.9262 19.5777 97.0827 19.2628L107.183 1.76259C107.36 1.41443 107.699 1.20709 108.089 1.20709C108.479 1.20709 108.818 1.41443 108.995 1.76259L119.096 19.2628C119.252 19.5777 119.236 19.9444 119.052 20.2447C118.867 20.5479 118.543 20.7298 118.187 20.7298L117.452 20.7268C117.089 20.7249 116.664 20.362 116.288 19.7303L108.09 5.31172L99.9394 19.651C99.3634 20.7298 99.0367 20.7298 98.7218 20.7298H97.9942H97.9932Z" fill="#3760F2"/>
<path d="M51.0727 20.7297C50.7079 20.7297 50.3754 20.5439 50.1847 20.2329C49.996 19.9248 49.9793 19.5492 50.1397 19.2265L60.4879 1.29795C60.6688 0.94196 61.016 0.729736 61.416 0.729736C61.816 0.729736 62.1622 0.94196 62.3441 1.29795L72.6922 19.2265C72.8516 19.5492 72.835 19.9248 72.6472 20.2319C72.4565 20.5429 72.125 20.7287 71.7602 20.7287L71.0071 20.7258C70.6345 20.7238 70.2003 20.3522 69.814 19.7047L61.415 4.93412L53.0649 19.6245C52.4742 20.7297 52.1407 20.7297 51.817 20.7297H51.0718H51.0727Z" fill="#3760F2"/>
<path d="M140.641 20.708C140.257 20.708 139.91 20.4958 139.736 20.1545L139.716 20.1173L134.617 13.2655C133.869 12.0469 132.517 11.2909 131.083 11.2909H122.908C122.346 11.2909 121.89 10.8342 121.89 10.2729V9.66944C121.89 9.10807 122.346 8.65135 122.908 8.65135H138.303C138.67 8.65135 138.994 8.578 139.295 8.42836C140.13 8.05575 140.682 7.20197 140.682 6.26016C140.682 5.64207 140.434 5.03963 139.984 4.56335L139.965 4.54378C139.5 4.10271 138.925 3.86995 138.302 3.86995H122.907C122.345 3.86995 121.889 3.41323 121.889 2.85186V2.24844C121.889 1.68707 122.345 1.23035 122.907 1.23035H138.302C139.642 1.23035 140.903 1.7526 141.851 2.70125C142.799 3.66066 143.321 4.92618 143.321 6.26212C143.321 8.30221 142.149 10.1379 140.403 10.8313C139.359 11.246 137.805 11.2665 137.503 11.2665H137.406L136.386 11.245L142.25 19.2675C142.394 19.5775 142.375 19.9335 142.195 20.2269C142.008 20.53 141.684 20.712 141.328 20.712H140.639L140.641 20.708Z" fill="#3760F2"/>
<path d="M57.7988 4.00122L56.6663 4.69266C55.658 5.30781 54.7964 5.93275 54.0316 6.59876C51.747 8.51758 49.7861 11.6178 50.5509 14.2183L50.5695 14.2848L49.2326 16.4687L49.1074 16.2251C48.8854 15.7899 48.7172 15.3293 48.6106 14.855C47.5964 10.1137 51.9396 5.93765 56.5382 4.41785L57.7988 4.00024V4.00122Z" fill="#3760F2"/>
<path d="M73.6044 9.4975C73.5066 12.2809 71.8352 15.0124 68.9022 17.1933C68.4758 17.5102 68.0308 17.8085 67.577 18.0823C66.6783 18.6182 65.7316 19.0779 64.7663 19.4564C62.647 20.2847 60.4602 20.7023 58.3311 20.7023C57.4235 20.7023 56.5277 20.6261 55.6485 20.4735L55.3013 20.4158L56.647 18.1381L56.7448 18.1468C59.0323 18.3728 61.6572 17.9767 64.1335 17.0378C64.9286 16.7366 65.6807 16.3894 66.3692 16.0051C67.0117 15.6452 67.6152 15.253 68.1687 14.8324C69.6641 13.7087 71.5154 11.8476 71.8509 9.38405C72.2411 6.08235 69.2562 4.03932 66.336 3.23248L64.9834 2.85791L66.3839 2.9342C68.2968 3.03493 70.0748 3.68333 71.3873 4.75228C72.867 5.95814 73.6318 7.60019 73.6044 9.4975Z" fill="#3760F2"/>
</svg>
